<svg width="400" height="400" viewBox="0 0 300 300" xmlns="http://www.w3.org/2000/svg"><g fill="#fedc56"><path d="M143.1 0h13.37C174.5.98 192.42 4.81 209 12.03c32.38 13.77 59.51 39.39 75.16 70.89 10.25 20.24 15.43 42.85 15.84 65.5v2.25c-.28 22.71-5.38 45.41-15.58 65.75-14.32 29.08-38.36 53.25-67.38 67.69-20.5 10.4-43.43 15.6-66.37 15.89h-1.2c-19.95-.26-39.91-4.07-58.25-12-32.48-13.71-59.7-39.34-75.43-70.88C6.31 198.46 1.18 177.76 0 156.9v-13.49c1.08-21.02 6.26-41.87 15.8-60.67 15.69-31.45 42.81-57.03 75.17-70.76C107.43 4.82 125.21 1.04 143.1 0m-10.12 56.59C108 60.91 85.21 76 71.15 97.05c-10.74 15.77-16.25 34.86-16.18 53.9.08 38.25-.16 76.5.1 114.75 1.32-.89 2.51-1.95 3.63-3.07 12.31-11.64 24.64-23.27 36.95-34.92 16.27 11.59 36.37 17.53 56.3 17.12 20.16-.41 40.14-7.42 56.04-19.84 18.58-14.3 31.61-35.71 35.43-58.87 3.52-19.62.47-40.34-8.37-58.19-9.12-18.5-24.45-33.89-42.95-43.02-18.12-9.04-39.21-12.05-59.12-8.32Z"/><path d="M146.11 101.18c10.31-.84 20.87 1.55 29.65 7.06 12.51 7.62 21.36 21.11 22.99 35.71 1.48 11.25-1.13 22.99-7.3 32.52-7.88 12.47-21.66 21.1-36.39 22.4-10.93 1.19-22.24-1.47-31.46-7.46-11.87-7.54-20.25-20.41-22.13-34.37-1.03-8.6-.31-17.57 3.17-25.56 6.66-16.81 23.38-29.16 41.47-30.3Z"/></g></svg>