<svg xmlns="http://www.w3.org/2000/svg" width="400" height="128" viewBox="0 0 300 96"><g fill="#005aab"><path d="M80.78 0h6.51c2.87 1.23 7.32 2.76 6.5 6.76-.53 4.02-5.7 2.65-8.51 3.45-.18 1.29-.34 2.59-.47 3.89 2.05.3 4.19.28 6.14 1.05 2.8 1.2 3.09 5.77.37 7.25-1.97.96-4.24.9-6.37 1.19-.22 6.83.04 13.67-.11 20.5-.01 2.29-.47 4.93-2.56 6.26-3.67 2.68-9.82.22-10.07-4.48-.61-7.13.31-14.32-.36-21.44-1.74-1.87-5.33-2.45-5.47-5.43-.14-3.1 3.24-4.06 5.41-5.29.33-3.03.13-6.36 1.92-8.99C75.44 2.37 78.3 1.33 80.78 0ZM16.73 1.83c3.7-1.55 8.04-1.49 11.82-.24 2.68.87 3.65 3.78 4.55 6.16 3.83 10.91 7.72 21.8 11.54 32.72.68 2.16 1.57 4.57.6 6.79-1.62 3.51-6.34 5.39-9.78 3.32-3.08-1.85-3.42-5.79-4.52-8.87-5.35-.08-10.69-.07-16.03-.01-1.28 3.22-1.55 7.67-5.2 9.2-4.75 2.33-11.16-2.67-9.3-7.89C4.11 31.37 8.52 19.96 12.46 8.4c.98-2.4 1.67-5.42 4.27-6.57m1.25 28.81c3.28-.03 6.57-.02 9.85.04-1.66-5.21-3.06-10.5-4.9-15.65-1.91 5.12-3.29 10.41-4.95 15.61ZM53.4 1.23c4.19-2.84 9.96.91 9.87 5.75.24 12.01.04 24.04.1 36.06.12 3.22-1.2 6.97-4.55 8.03-4 1.63-8.53-1.92-8.57-6.08-.31-11.67-.01-23.36-.14-35.04-.1-3.15.27-6.95 3.29-8.72ZM101.99 15.96c5.44-3.26 12.6-3.8 18.24-.72 2.06-.98 4.15-2.45 6.55-1.99 3.21.44 5.36 3.61 5.43 6.71.19 7.35-.02 14.71.09 22.06.2 3.43-.38 7.76-3.97 9.28-2.81 1.47-5.72-.25-8.18-1.58-6.7 3.73-15.56 2.31-21.23-2.67-9.05-8.14-7.26-24.8 3.07-31.09m8.4 7.36c-2.91 1.31-4 4.71-4.08 7.67-.1 3.24-.2 6.94 2.05 9.56 2.53 3.01 8.4 2.69 9.75-1.33 1.36-4.23 1.33-9-.21-13.19-1.11-2.91-4.8-4.13-7.51-2.71Z"/></g><g fill="#ed1c24"><path d="M278.2 5.16c3.88-.64 10.3-3.21 12.13 1.88-.16 3.89-1.8 7.55-2.44 11.38 4.05.03 8.08-.31 12.1-.81-.81 2.41-1.66 5.26-4.27 6.3-2.96 1.08-6.19.45-9.26.55-1.05 5.96-3.67 12.12-2.23 18.18 2.74 3.44 7.4-.02 10.34-1.49.95 2.46 1.29 5.57-1.21 7.25-5.12 3.68-13.32 5.12-18.31.52-3.81-4.76-1.68-11.26-1-16.72 1.18-9.04 5.56-17.78 4.15-27.04ZM143.41 14.31c3.31-.54 7.32-2.43 10.26.04 2.38 2.96.11 6.88-.19 10.18 3.96-4.38 7.59-9.79 13.6-11.47 2.66-.98 6.24.17 7.05 3.09.95 3.14-.35 6.36-.67 9.5 4.18-4.91 8.11-10.89 14.71-12.67 3.26-1.2 7.51 1.26 7.12 4.98-.6 8.48-3.64 16.6-4.39 25.06-.14 2.33.89 4.49 1.69 6.61-2.98.99-6.25 2.83-9.39 1.38-2.66-1.14-3.37-4.38-2.95-6.98.93-7.71 3.45-15.14 4.27-22.87-1.65 1.1-3.2 2.39-4.34 4.02-4.07 5.54-7.44 11.58-10.25 17.85-1.18 2.44-1.18 5.17-1.19 7.81-2.22.32-4.45.85-6.69.6-2.05-.29-3.72-2.35-3.36-4.43 1.34-8.67 5.11-17.07 4.81-25.94-6.57 5.68-10.24 13.84-13.98 21.49-1.43 2.57-1.31 5.53-1.15 8.37-3.55.52-9.51 1.83-10.6-2.99 1.49-11.2 6.94-22.1 5.64-33.63ZM200.67 27.67c3.35-7.01 9.25-13.82 17.38-14.84 3.69-1.01 7.11 2.61 10.66 1.03 3.24-1.31 6.7-.19 9.84.82-4.65 10.92-7.86 23.42-4.75 35.18-3.35 1.39-7.73 2.9-10.8.1-3-2.77-1.59-7.3-1.87-10.87-3.52 4.41-6.68 9.64-12.11 11.92-3.43 1.57-8.34.86-10.06-2.84-2.98-6.6-1.26-14.22 1.71-20.5m16.62-8.45c-3.49 1.62-4.88 5.6-6.09 8.98-1.39 4.91-2.94 10.28-1.15 15.3 6.96-5.06 10.73-13.23 14.82-20.57-2.17-1.71-4.5-4.37-7.58-3.71ZM244.52 14.44c3.5-.71 7.86-2.47 10.94.17 2.17 3.01-.41 6.71-.48 10 3.81-4.06 6.8-9.39 12.21-11.53 1.84-.96 4.49-.03 4.89 2.13.43 4.55-2.65 8.35-5.3 11.7-1.2-.63-2.36-1.35-3.65-1.78-3.51 1.72-5.55 5.27-7.59 8.43-2.95 5.33-6.28 10.97-5.75 17.31-3.48.47-8.84 1.95-10.7-2.1-.45-4.12 1.61-8.03 2.35-12.03 1.46-7.34 4.53-14.71 3.08-22.3ZM8.79 65.83c4.85-3.05 10.77-2.32 16.21-2.38 91.59.03 183.18 0 274.77.02-.01 3.93.18 8.07-1.57 11.71-2.7 6.28-9.32 10.55-16.15 10.4-94.02 0-188.03-.01-282.05.01v-5.12c.41-5.92 3.53-11.69 8.79-14.64Z"/></g><path fill="#ffd502" d="M282.06 89.88c7.01.24 13.36-3.56 17.94-8.61v.71c-1.72 3.18-3.16 6.65-5.9 9.12-2.67 2.61-6.29 3.84-9.78 4.9H0v-6.1c94.02-.03 188.04.02 282.06-.02Z"/></svg>