<svg xmlns="http://www.w3.org/2000/svg" width="200pt" height="193pt" viewBox="0 0 200 193"><g fill="#242424"><path d="M11.17 0h177.52l2.1.87c-56.93.29-113.87.02-170.81.14-3.63.03-7.25-.09-10.88-.16L11.17 0ZM9.2 192.13c3.61-.04 7.22-.17 10.84-.14 56.94.12 113.88-.15 170.82.13l-1.99.88H11.32l-2.12-.87Z" opacity=".64"/></g><path d="M6.47 1.83c.88-.32 1.75-.66 2.63-.98 3.63.07 7.25.19 10.88.16 56.94-.12 113.88.15 170.81-.14 1.31.52 2.59 1.09 3.87 1.66.7 1.74 1.96 3.16 3.5 4.2.41.7.84 1.39 1.27 2.08l-.36 1.81c-.12 57.24-.1 114.49-.01 171.74.08.46.25 1.38.33 1.84-.42.69-.83 1.39-1.23 2.11-1.48 1.05-3.02 2.29-3.4 4.17-1.31.53-2.6 1.1-3.9 1.64-56.94-.28-113.88-.01-170.82-.13-3.62-.03-7.23.1-10.84.14-1.3-.52-2.57-1.09-3.85-1.65-.7-1.75-1.97-3.16-3.52-4.2-.41-.71-.83-1.41-1.26-2.1.09-.46.27-1.36.36-1.81.12-57.25.1-114.51.01-171.76L.62 8.77c.43-.73.86-1.47 1.27-2.22C3.6 5.16 5.14 3.59 6.47 1.83m3.76 5.41c-2.12 1.09-3.88 3.24-3.66 5.75 0 55.68-.02 111.37.01 167.05-.19 3.35 3.01 6.51 6.37 6.17 58.02-.01 116.05-.01 174.08 0 3.36.32 6.64-2.83 6.4-6.21.01-55.65.01-111.31 0-166.97.2-3.35-2.97-6.58-6.35-6.24-57.36 0-114.73.03-172.09-.01-1.58.11-3.29-.28-4.76.46Z"/><path d="M33.58 17.87c2.07-.72 4.28-.94 6.47-.97 39.97.01 79.95.01 119.93 0 4.73-.12 9.74 1.55 12.78 5.33 2.48 2.98 3.53 6.93 3.53 10.76-.03 13.32 0 26.65-.01 39.97.12 7.7-6.27 14.99-14.13 15.09-41.42.07-82.85.06-124.27.01-7.84-.09-14.25-7.35-14.17-15.04.02-13.7-.01-27.4.02-41.09.1-6.11 3.89-12.16 9.85-14.06m-3.16 13.01c-.08 14.39-.03 28.79-.02 43.18-.36 4.6 4.35 7.97 8.64 7.66 40.63.01 81.27 0 121.91 0 4.29.32 9.01-3.05 8.65-7.66.02-14.35.04-28.7-.01-43.05.17-3.98-3.54-7.81-7.57-7.46-42.11-.05-84.22 0-126.33-.03-2.68 1.54-5.5 3.94-5.27 7.36Z"/><path d="M48.81 70.01c3.95-10.72 7.71-21.51 11.69-32.22 2.93.03 5.86.03 8.79.01 3.99 10.69 7.77 21.46 11.65 32.2h-8.02c-.67-1.95-1.33-3.9-2.02-5.84-4.05.03-8.1.03-12.15.02L56.89 70c-2.69 0-5.38 0-8.08.01m16.02-23.88c-1.38 4.07-2.79 8.14-4.02 12.27 2.74.01 5.47.01 8.21-.03-1.42-4.07-2.81-8.16-4.19-12.24ZM84 37.82h25V44c-2.89 0-5.78 0-8.66.01V70h-7.68V44.01C89.78 44 86.89 44 84 44v-6.18ZM115.82 37.82h9.19c3.04 7.51 6.04 15.03 9.13 22.51 2.96-7.52 6-15 8.98-22.52 3.02.01 6.04.01 9.06.01V70h-7.52c-.04-6.59.1-13.17-.1-19.75-2.68 6.51-4.92 13.19-7.46 19.75h-6.11c-2.42-6.46-4.68-12.99-7.28-19.38-.24 6.46-.07 12.92-.12 19.38h-7.77V37.82ZM26.38 109.25c3.66.07 7.32.09 10.98-.02 0 3.68-.01 7.35.02 11.03-3.66-.07-7.32-.06-10.98-.01.03-3.67.03-7.34-.02-11ZM44.32 109.22c3.63.12 7.25.09 10.88.05-.07 3.66-.07 7.32-.01 10.97-3.62-.04-7.25-.05-10.87.05.04-3.69.04-7.38 0-11.07ZM62.28 109.25c3.65.07 7.31.07 10.96-.01-.02 3.67-.03 7.34-.01 11.01-3.65-.03-7.29-.05-10.94 0 .03-3.67.03-7.33-.01-11ZM118.14 111.47c17.62-.08 35.25.03 52.87-.06 1.78.13 4.1-.35 5.24 1.43 1 1.18.36 2.77.21 4.12-1.04.51-2.17.9-3.35.88-18.42.06-36.85-.06-55.27.06-.83-.93-1.64-1.86-2.43-2.81.79-1.26 1.04-3.21 2.73-3.62ZM26.38 127.21c3.67.01 7.34.02 11.01-.02-.06 3.67-.05 7.34-.03 11.01-3.65-.1-7.3-.09-10.94 0 0-3.67.01-7.33-.04-10.99ZM44.29 127.2c3.64.03 7.27.02 10.91.03-.09 3.65-.08 7.3-.02 10.95-3.6-.07-7.21-.09-10.82.03-.01-3.67 0-7.34-.07-11.01ZM26.39 145.24c3.66.06 7.32.07 10.97-.01-.02 3.67-.03 7.35.02 11.02-3.67-.05-7.33-.05-10.99 0 .05-3.67.04-7.34 0-11.01ZM44.33 145.23c3.62.07 7.24.07 10.86.04-.07 3.65-.08 7.31.01 10.96-3.63-.04-7.27-.03-10.9.04.07-3.68.06-7.36.03-11.04ZM62.29 145.23c3.66.07 7.32.06 10.98.01-.07 3.67-.07 7.34-.03 11.01-3.66-.05-7.31-.04-10.96-.01.06-3.67.05-7.34.01-11.01ZM116.97 147.89c1.96-.57 4.02-.44 6.04-.46 16.97.14 33.94-.12 50.9.11 2.73.01 3.43 3.3 2.59 5.41-1.38.69-2.91.99-4.45.92-17.71-.08-35.43.03-53.15-.06-1.41.11-2.31-1.22-3.4-1.87.38-1.37.51-2.92 1.47-4.05Z"/><path fill="#181818" d="M1.89 6.55C1.83 3.86 3.81 1.9 6.47 1.83a27.284 27.284 0 0 1-4.58 4.72Z" opacity=".22"/><path fill="#1b1b1b" d="M194.66 2.53c2.03.4 3.49 2.11 3.5 4.2-1.54-1.04-2.8-2.46-3.5-4.2Z" opacity=".22"/><path fill="#fcfbc7" d="M10.23 7.24c1.47-.74 3.18-.35 4.76-.46 57.36.04 114.73.01 172.09.01 3.38-.34 6.55 2.89 6.35 6.24.01 55.66.01 111.32 0 166.97.24 3.38-3.04 6.53-6.4 6.21-58.03-.01-116.06-.01-174.08 0-3.36.34-6.56-2.82-6.37-6.17-.03-55.68-.01-111.37-.01-167.05-.22-2.51 1.54-4.66 3.66-5.75m1.17 1.25c-3.57 1.12-3.32 5.56-3.42 8.56-.1 51.32.04 102.63-.05 153.94.06 3.51-.28 7.11.55 10.56.66 2.4 3.25 3.24 5.49 3.09 54.36-.06 108.71-.01 163.07-.03 3.84-.07 7.72.38 11.54-.16 2.62-.89 3.63-3.85 3.48-6.4 0-51.03-.01-102.07 0-153.11-.03-4.01.2-8.04-.25-12.04-.18-2.4-2.21-4.78-4.75-4.64-55.68-.01-111.36-.07-167.04 0-2.87.01-5.77-.25-8.62.23Z"/><path fill="#fff59c" d="M11.4 8.49c2.85-.48 5.75-.22 8.62-.23 55.68-.07 111.36-.01 167.04 0 2.54-.14 4.57 2.24 4.75 4.64.45 4 .22 8.03.25 12.04-.01 51.04 0 102.08 0 153.11.15 2.55-.86 5.51-3.48 6.4-3.82.54-7.7.09-11.54.16-54.36.02-108.71-.03-163.07.03-2.24.15-4.83-.69-5.49-3.09-.83-3.45-.49-7.05-.55-10.56.09-51.31-.05-102.62.05-153.94.1-3-.15-7.44 3.42-8.56m22.18 9.38c-5.96 1.9-9.75 7.95-9.85 14.06-.03 13.69 0 27.39-.02 41.09-.08 7.69 6.33 14.95 14.17 15.04 41.42.05 82.85.06 124.27-.01 7.86-.1 14.25-7.39 14.13-15.09.01-13.32-.02-26.65.01-39.97 0-3.83-1.05-7.78-3.53-10.76-3.04-3.78-8.05-5.45-12.78-5.33-39.98.01-79.96.01-119.93 0-2.19.03-4.4.25-6.47.97m-7.2 91.38c.05 3.66.05 7.33.02 11 3.66-.05 7.32-.06 10.98.01-.03-3.68-.02-7.35-.02-11.03-3.66.11-7.32.09-10.98.02m17.94-.03c.04 3.69.04 7.38 0 11.07 3.62-.1 7.25-.09 10.87-.05-.06-3.65-.06-7.31.01-10.97-3.63.04-7.25.07-10.88-.05m17.96.03c.04 3.67.04 7.33.01 11 3.65-.05 7.29-.03 10.94 0-.02-3.67-.01-7.34.01-11.01-3.65.08-7.31.08-10.96.01m53.79 2.21 2.07.01c-1.69.41-1.94 2.36-2.73 3.62.79.95 1.6 1.88 2.43 2.81 18.42-.12 36.85 0 55.27-.06 1.18.02 2.31-.37 3.35-.88.98-.63 1.94-1.27 2.91-1.91-1.43-1.98-2.57-5.08-5.41-5.18-17.35.14-34.71.26-52.06-.02-1.99.15-4.61-.5-5.83 1.61m-89.69 15.75c.05 3.66.04 7.32.04 10.99 3.64-.09 7.29-.1 10.94 0-.02-3.67-.03-7.34.03-11.01-3.67.04-7.34.03-11.01.02m17.91-.01c.07 3.67.06 7.34.07 11.01 3.61-.12 7.22-.1 10.82-.03-.06-3.65-.07-7.3.02-10.95-3.64-.01-7.27 0-10.91-.03m17.97.01c.08 3.66.06 7.33.09 10.99 3.63-.09 7.26-.08 10.9-.03-.05-3.66-.05-7.32.02-10.98-3.67.04-7.34.03-11.01.02m-35.87 18.03c.04 3.67.05 7.34 0 11.01 3.66-.05 7.32-.05 10.99 0-.05-3.67-.04-7.35-.02-11.02-3.65.08-7.31.07-10.97.01m17.94-.01c.03 3.68.04 7.36-.03 11.04 3.63-.07 7.27-.08 10.9-.04-.09-3.65-.08-7.31-.01-10.96-3.62.03-7.24.03-10.86-.04m17.96 0c.04 3.67.05 7.34-.01 11.01 3.65-.03 7.3-.04 10.96.01-.04-3.67-.04-7.34.03-11.01-3.66.05-7.32.06-10.98-.01m53.21 6.71c1.09.65 1.99 1.98 3.4 1.87 17.72.09 35.44-.02 53.15.06 1.54.07 3.07-.23 4.45-.92.95-.63 1.85-1.33 2.68-2.11-1.51-2.26-2.84-5.75-6.18-5.3-15.01.15-30.03.12-45.04.07-3.62.05-7.33-.41-10.88.5-2.37.7-3.84 4.13-1.58 5.83Z"/><path fill="#2c2d2c" d="m0 9.16.62-.39.32 1.84-.94.16V9.16Z" opacity=".44"/><g fill="#2b2b2b"><path d="m199.43 8.81.57.46v1.67l-.93-.32.36-1.81ZM199.06 182.36l.94-.16v1.61l-.61.39c-.08-.46-.25-1.38-.33-1.84Z" opacity=".43"/></g><path d="m0 10.77.94-.16c.09 57.25.11 114.51-.01 171.76l-.93-.32V10.77ZM199.07 10.62l.93.32V182.2l-.94.16c-.09-57.25-.11-114.5.01-171.74Z" opacity=".83"/><g fill="#74a6f5"><path d="M30.42 30.88c-.23-3.42 2.59-5.82 5.27-7.36 42.11.03 84.22-.02 126.33.03 4.03-.35 7.74 3.48 7.57 7.46.05 14.35.03 28.7.01 43.05.36 4.61-4.36 7.98-8.65 7.66-40.64 0-81.28.01-121.91 0-4.29.31-9-3.06-8.64-7.66-.01-14.39-.06-28.79.02-43.18m18.39 39.13c2.7-.01 5.39-.01 8.08-.01l1.86-5.82c4.05.01 8.1.01 12.15-.02.69 1.94 1.35 3.89 2.02 5.84h8.02c-3.88-10.74-7.66-21.51-11.65-32.2-2.93.02-5.86.02-8.79-.01-3.98 10.71-7.74 21.5-11.69 32.22M84 37.82V44c2.89 0 5.78 0 8.66.01V70h7.68V44.01c2.88-.01 5.77-.01 8.66-.01v-6.18H84m31.82 0V70h7.77c.05-6.46-.12-12.92.12-19.38 2.6 6.39 4.86 12.92 7.28 19.38h6.11c2.54-6.56 4.78-13.24 7.46-19.75.2 6.58.06 13.16.1 19.75h7.52V37.82c-3.02 0-6.04 0-9.06-.01-2.98 7.52-6.02 15-8.98 22.52-3.09-7.48-6.09-15-9.13-22.51h-9.19Z"/><path d="M64.83 46.13c1.38 4.08 2.77 8.17 4.19 12.24-2.74.04-5.47.04-8.21.03 1.23-4.13 2.64-8.2 4.02-12.27Z"/></g><path fill="#fefdbf" d="M116.07 111.46c1.22-2.11 3.84-1.46 5.83-1.61 17.35.28 34.71.16 52.06.02 2.84.1 3.98 3.2 5.41 5.18-.97.64-1.93 1.28-2.91 1.91.15-1.35.79-2.94-.21-4.12-1.14-1.78-3.46-1.3-5.24-1.43-17.62.09-35.25-.02-52.87.06l-2.07-.01Z"/><path fill="#000001" d="M62.26 127.21c3.67.01 7.34.02 11.01-.02-.07 3.66-.07 7.32-.02 10.98-3.64-.05-7.27-.06-10.9.03-.03-3.66-.01-7.33-.09-10.99Z"/><path fill="#fbfbba" d="M115.5 151.94c-2.26-1.7-.79-5.13 1.58-5.83 3.55-.91 7.26-.45 10.88-.5 15.01.05 30.03.08 45.04-.07 3.34-.45 4.67 3.04 6.18 5.3-.83.78-1.73 1.48-2.68 2.11.84-2.11.14-5.4-2.59-5.41-16.96-.23-33.93.03-50.9-.11-2.02.02-4.08-.11-6.04.46-.96 1.13-1.09 2.68-1.47 4.05Z"/><path fill="#2c2c2c" d="m0 182.05.93.32c-.09.45-.27 1.35-.36 1.81l-.57-.46v-1.67Z" opacity=".43"/><path fill="#1b1c1b" d="M1.83 186.28c1.55 1.04 2.82 2.45 3.52 4.2-2.04-.4-3.49-2.12-3.52-4.2Z" opacity=".22"/><path fill="#1b1b1b" d="M194.76 190.48c.38-1.88 1.92-3.12 3.4-4.17-.16 1.96-1.4 3.76-3.4 4.17Z" opacity=".22"/></svg>