<svg xmlns="http://www.w3.org/2000/svg" width="400" height="265pt" viewBox="0 0 300 265"><g fill="#39649d"><path d="M12.09 0h276.09c6.11 1.12 11.04 6.31 11.82 12.48V206.8c-.99 6.72-7.02 12.37-13.93 12.26-90.7.04-181.4.04-272.1 0C6.9 219.18.62 213.28 0 206.29V12.77C.57 6.38 5.77.98 12.09 0m5.78 17.86c-.01 61.11-.01 122.21 0 183.31 88.09.01 176.17.01 264.26.01.01-61.12.01-122.23 0-183.35-88.09.06-176.17.01-264.26.03ZM117.11 223.64c21.93-.02 43.85-.02 65.77 0 5.78 11.16 12.42 22.12 21.6 30.84 4.91 4.81 10.91 8.52 17.5 10.52H78.03c6.17-1.85 11.8-5.24 16.51-9.6 9.67-8.86 16.63-20.19 22.57-31.76Z"/></g><g fill="#aa4462"><path d="M93.58 70.69C112.37 57.74 131.26 44.93 150 31.9c19.94 13.83 40.04 27.46 60.02 41.25 1.66 1.23 3.82 2.04 4.89 3.93-2.64-.17-5.28-.27-7.91-.25-40.73.09-81.45-.13-122.17.11 2.67-2.41 5.85-4.14 8.75-6.25m32.69-15.45c-.14 4.43-.14 8.86-.01 13.3 3.01-.32 7.33.96 9.05-2.33 1.22-1.89-.11-4.1-1.88-5.01.47-.58 1.4-1.74 1.87-2.32-.68-4.54-5.66-3.67-9.03-3.64m14.7-.12c-1.57 4.47-3.12 8.95-4.68 13.43 2.36.77 3.43-1.15 3.78-3.17 1.65.07 3.31.13 4.96.18.22.74.64 2.21.85 2.94.99.01 1.98.02 2.98.02-1.51-4.53-3.02-9.06-4.74-13.52l-3.15.12m9.52.19c-.19 4.53-.28 9.08.22 13.6.51-.18 1.53-.53 2.04-.7.23-3.32-.07-6.64-.1-9.95 1.92 3.32 3.53 6.82 5.43 10.16.79 0 2.37-.01 3.16-.01.06-4.55.15-9.09-.06-13.63-.51.16-1.52.47-2.02.63-.73 3.11-.01 6.41-.01 9.6-1.78-3.03-3.11-6.3-4.99-9.26-.9-1.07-2.48-.38-3.67-.44m13.82-.17c-.06 4.5-.11 9.01.03 13.52.6-.02 1.79-.06 2.39-.09.08-2.25.09-4.51.11-6.77 1.49 2.27 2.96 4.56 4.49 6.81.67-.02 2.03-.05 2.7-.07-1.09-2.63-2.86-4.89-4.46-7.23 1.29-2.14 3.99-3.86 3.88-6.57-3.65.05-4.51 4.29-6.61 6.52 0-2.06-.02-4.12-.06-6.18-.62.02-1.86.05-2.47.06Z"/><path d="M128.78 57.12c1.3.09 3.7-.04 3.52 1.87.09 1.85-2.25 1.55-3.5 1.73 0-1.2-.01-2.4-.02-3.6ZM140.57 63.4c.6-1.84 1.21-3.68 1.84-5.51.71 1.85 1.38 3.72 2.03 5.59-1.29-.03-2.58-.05-3.87-.08ZM128.81 62.49c1.53.14 4.65.02 4.01 2.45-.15 1.89-2.69 1.39-4.03 1.62 0-1.36.01-2.72.02-4.07ZM94.8 79.38c5.02-.17 10.05-.01 15.08-.11.12 28.21.06 56.41.03 84.62-5.01-.08-10.02-.04-15.03-.03-.03-28.16.13-56.32-.08-84.48ZM112.62 79.22c24.92.16 49.86.12 74.79.02.02 28.23-.03 56.45.02 84.68-6.64-.12-13.29-.12-19.93 0-.08-14.29.07-28.59-.07-42.88.18-2.28-2.45-3.33-4.35-3.16-8.72 0-17.44.01-26.16 0-2.38-.34-4.91 1.62-4.41 4.17.02 13.94-.03 27.87.04 41.81-6.64.02-13.29-.13-19.93.09-.05-28.25-.03-56.49 0-84.73m10.67 18.22c-.17.36-.52 1.08-.69 1.44l.49.82c17.62.32 35.26.12 52.89.1 2.13.62 1.51-2.77-.08-2.4-17.53.04-35.08-.05-52.61.04ZM189.84 79.29c5.09.03 10.19.02 15.28.01-.02 28.18-.02 56.37 0 84.55-5.1 0-10.19-.03-15.28.02.03-28.19.03-56.38 0-84.58ZM83.61 166.2c44.27.25 88.55.17 132.81.04.02 3.1.05 6.2.07 9.3-44.31-.26-88.62.02-132.93-.13-.04-3.07-.06-6.14.05-9.21ZM74.18 177.88c50.54.2 101.08.14 151.63.03.05 3.06.05 6.13.03 9.19H74.16c-.02-3.07-.02-6.15.02-9.22Z"/></g></svg>