<svg xmlns="http://www.w3.org/2000/svg" width="400" height="98pt" viewBox="0 0 300 98"><g fill="#d61627"><path d="M0 0h300v30.32c-11.92.47-23.87.16-35.79.15-1.16-5.45-5.79-9.23-11-10.6C219.89 9.34 184.82 5.12 149.97 4.74 115.13 5.09 80.06 9.3 46.75 19.8c-5.27 1.36-9.82 5.25-11.04 10.7-11.9.11-23.81-.03-35.71.07V0Z"/><path d="M120.44 11.87c35.62-2.86 71.66-.49 106.59 7.05 8.78 1.98 17.54 4.13 26.04 7.11 2.56.88 5.14 3 5.16 5.92.15 10.35-.03 20.69.08 31.04-.09 2.07.27 4.41-1.11 6.16-1.47 2.1-4.04 2.9-6.35 3.68-16.56 5.29-33.66 8.67-50.85 11.11-43 5.91-87.06 4.19-129.43-5.26-7.96-1.86-15.92-3.81-23.63-6.54-2.62-.9-5.33-3.1-5.18-6.13-.02-11.32-.02-22.65 0-33.97-.1-3.7 3.62-5.78 6.73-6.65 23.32-7.42 47.61-11.42 71.95-13.52m.03 9c-22.54 1.59-45.05 4.43-67.13 9.34-3.22.51-6.02 3.41-5.63 6.8.04 8.35-.06 16.71.05 25.07.01 3.36 3.28 5.53 6.31 5.96 63.04 13.5 128.92 13.5 191.96-.02 3.01-.45 6.51-2.4 6.27-5.91.04-8.74.05-17.48 0-26.22.19-3.93-3.99-5.58-7.21-6.06-40.88-8.56-82.93-11.69-124.62-8.96Z"/><path d="M126.59 58.44c-2.4-6 1.53-13.32 7.67-15.02 4.95-1.59 10.38 1.49 12.6 5.96.24.59.71 1.75.94 2.33 1.64 6.14-2.53 13.1-8.81 14.29-4.52.88-9.33-1.51-11.45-5.57-.24-.5-.72-1.49-.95-1.99m6.86-13.04c-3.05 1.38-5.38 4.28-5.82 7.62-1.38 6.17 4.6 12.64 10.87 11.39 5.64-.8 9.44-7.23 7.66-12.58-1.27-5.41-7.6-8.53-12.71-6.43Z"/><path d="M128.99 51.36c1.71-2.83 4.38-5.7 7.98-5.44 3.62-.28 6.35 2.54 8.04 5.39 1 4.26-.26 9.26-4.47 11.24-4.55 2.17-9.55-.53-11.61-4.79-.11-2.13-.09-4.27.06-6.4m6.52-3.8c-5.3 1.13-7.47 8.61-3.28 12.2 3.19 3.76 9.47 2.08 11.18-2.27 2.54-4.88-2.59-11.44-7.9-9.93Z"/><path d="M132 51.61c1.44-2.92 4.87-3.4 7.74-2.67 1.55 1.69 3.35 3.55 3.31 6.01-.56 2.65-2.48 5.32-5.34 5.7-4.53.65-8.42-5.2-5.71-9.04m3.52-1.19c-2.96 1.04-3.73 5.45-1.39 7.44 1.64 1.83 4.89 1.52 6.26-.49 2.78-3.11-.98-8.78-4.87-6.95Z"/></g><g fill="#fff"><path d="M46.75 19.8C80.06 9.3 115.13 5.09 149.97 4.74c34.85.38 69.92 4.6 103.24 15.13 5.21 1.37 9.84 5.15 11 10.6 11.92.01 23.87.32 35.79-.15v3.41c-11.97.1-23.94.01-35.91.05.07 10.15.09 20.31-.02 30.46 11.98-.06 23.96.2 35.93-.12v3.32c-11.92.19-23.85-.09-35.77.15-1.07 3.97-3.6 7.59-7.48 9.21-7.16 3.01-14.79 4.72-22.28 6.67-50.14 11.84-102.75 12.94-153.37 3.38-12.35-2.38-24.68-5.18-36.54-9.38-4.46-1.5-7.7-5.36-8.81-9.87-11.91-.08-23.85-.36-35.75.13V64.3c11.98-.1 23.96 0 35.94-.05-.12-10.16-.08-20.31-.01-30.46-11.97.05-23.96-.18-35.93.1v-3.32c11.9-.1 23.81.04 35.71-.07 1.22-5.45 5.77-9.34 11.04-10.7m73.69-7.93c-24.34 2.1-48.63 6.1-71.95 13.52-3.11.87-6.83 2.95-6.73 6.65-.02 11.32-.02 22.65 0 33.97-.15 3.03 2.56 5.23 5.18 6.13 7.71 2.73 15.67 4.68 23.63 6.54C112.94 88.13 157 89.85 200 83.94c17.19-2.44 34.29-5.82 50.85-11.11 2.31-.78 4.88-1.58 6.35-3.68 1.38-1.75 1.02-4.09 1.11-6.16-.11-10.35.07-20.69-.08-31.04-.02-2.92-2.6-5.04-5.16-5.92-8.5-2.98-17.26-5.13-26.04-7.11-34.93-7.54-70.97-9.91-106.59-7.05Z"/><path d="M120.47 20.87c41.69-2.73 83.74.4 124.62 8.96 3.22.48 7.4 2.13 7.21 6.06.05 8.74.04 17.48 0 26.22.24 3.51-3.26 5.46-6.27 5.91-63.04 13.52-128.92 13.52-191.96.02-3.03-.43-6.3-2.6-6.31-5.96-.11-8.36-.01-16.72-.05-25.07-.39-3.39 2.41-6.29 5.63-6.8 22.08-4.91 44.59-7.75 67.13-9.34M81.32 31.84c-5.66 1.09-12.2 1.65-16.28 6.24-3.31 3.72-1.1 10.43 3.91 11.17 2.87.88 5.1-1.37 6.77-3.33-2.39-.62-6.29-2.62-4.47-5.66 2.74-3.54 7.77-3.79 11.77-4.88-2.51 5.54-4.42 11.33-6.94 16.86-2.14 4.51-6.8 8.42-12.04 7.88-3.28-.61-5.2-3.58-6.26-6.5-1.29 1.88-3.99 4.25-2.18 6.64 4.47 6.02 14.01 5.52 19.29.84 4.43-3.07 7.84-8.08 13.37-9.21-.47 4.48-2.76 8.46-4.21 12.66 1.92.02 3.85.04 5.78.08 2.35-4.06 2.61-9.4 6.07-12.71l.85.33c.89 3.88-4.8 8.58-.56 11.84 3.34.99 6.37-2.28 9.42-3.4 1.22 4.35 6.48 4.89 9.69 2.33.36.45 1.1 1.35 1.46 1.79 3.83-.84 7.18-2.92 10.78-4.38 2.12 4.06 6.93 6.45 11.45 5.57 6.28-1.19 10.45-8.15 8.81-14.29l4.98-1.62c-1.91 4.81-3.59 9.7-5.49 14.51 2-.01 3.99-.06 5.99-.08 1.31-3.46 2.45-6.99 3.96-10.37.62-1.3 1.99-3.3 3.1-1.24-1.15 3.96-2.76 7.78-4.38 11.56 2.12.1 4.25.11 6.38.06 1.28-3.47 2.46-6.99 3.96-10.38.51-1.32 1.97-3.14 3.14-1.3-.75 2.73-2.14 5.29-2.53 8.12-.07 1.71.96 3.83 2.98 3.53 2.91-.83 5.48-2.49 8.13-3.92 1.08 1.51 1.88 3.67 3.99 3.94 2.03.4 3.92-.51 5.67-1.4.93.7 1.8 1.89 3.14 1.44 6.71-1.45 10.33-7.64 14.41-12.49.47-.05 1.4-.16 1.86-.21-.39 3.79-4.86 7.57-2.33 11.34 3.61 2.89 8.71.82 12.2-1.33 3.48 3.72 9.26 3.27 13.37.87 4.75 3.74 11.3 1.21 14.84-2.98-2.96-1.9-5.14 2.64-8.23 1.56-1.27-3.13 1.36-6.51 2.16-9.6.26-1.68 2.2-1.56 3.46-2.01.39-1.32 1.37-2.61 1.22-4.02-.63-.08-1.89-.25-2.52-.33 1.4-3.19 2.62-6.46 3.89-9.7-1.79.22-3.9-.49-5.48.53-1.37 3-2.32 6.17-3.4 9.29-.65.02-1.94.05-2.59.07-.66 1.44-1.3 2.89-1.64 4.43.64.06 1.93.18 2.58.25-1.26 2.86-2.09 5.96-3.81 8.6-2.15 3.1-7.04 3.55-9.67.82 3.72-2.21 7.85-5.09 8.49-9.73.42-3.4-3.71-5.19-6.47-4.01-5.27 2.1-8.59 8.21-7.37 13.79-2.02 1.14-4.25 2.24-6.29.54.95-3.54 3.82-6.54 3.61-10.35-1.89-.3-3.71-.88-5.42-1.72 1.07-.94 2.14-1.86 3.22-2.78-1.9-.39-3.7-1.12-5.32-2.2-.88 1.35-1.77 2.7-2.65 4.05-.49 5.46-4.49 11.36-10.09 12.4 1.65-4.76 3.48-9.46 5.3-14.16-3.05.09-6.05.97-9.1.31-5.73.85-9.17 6.48-10.98 11.51-.51 2.02-2.95 2.22-4.44 3.23-1.35-4.53 3.84-8.61 2.54-13.22-1.83-3.43-5.73-.43-7.91 1.04-.96-1.04-1.71-2.56-3.26-2.81-2.18-.13-3.89 1.47-5.82 2.21-.86-.86-1.49-2.66-3.05-2.05-3.22.89-6.18 2.46-9.27 3.68-2.22-4.47-7.65-7.55-12.6-5.96-6.14 1.7-10.07 9.02-7.67 15.02-1.8.64-3.66 1.23-5.59 1.08 3.2-7.86 5.85-15.93 9.08-23.79-1.72-.03-3.43-.07-5.14-.12-1.51 3.4-2.7 6.92-4.01 10.4-2.67-.26-5.52-.46-7.95.9-4.28 2.29-6.69 6.99-7.42 11.65-1.49.5-2.99.98-4.51 1.38.58-3.86 2.78-7.23 3.5-11.06.2-1.57-.98-3.29-2.65-3.32-2.35-.01-4.19 1.59-5.98 2.89-1.06-1.25-1.93-3.02-3.83-2.99-4.02.78-7.01 3.85-10.52 5.73 2.81-6.94 5.45-13.96 8.31-20.88l-8.56 1.53Z"/><path d="M133.45 45.4c5.11-2.1 11.44 1.02 12.71 6.43 1.78 5.35-2.02 11.78-7.66 12.58-6.27 1.25-12.25-5.22-10.87-11.39.44-3.34 2.77-6.24 5.82-7.62m-4.46 5.96c-.15 2.13-.17 4.27-.06 6.4 2.06 4.26 7.06 6.96 11.61 4.79 4.21-1.98 5.47-6.98 4.47-11.24-1.69-2.85-4.42-5.67-8.04-5.39-3.6-.26-6.27 2.61-7.98 5.44Z"/><path d="M135.51 47.56c5.31-1.51 10.44 5.05 7.9 9.93-1.71 4.35-7.99 6.03-11.18 2.27-4.19-3.59-2.02-11.07 3.28-12.2M132 51.61c-2.71 3.84 1.18 9.69 5.71 9.04 2.86-.38 4.78-3.05 5.34-5.7.04-2.46-1.76-4.32-3.31-6.01-2.87-.73-6.3-.25-7.74 2.67ZM116.23 50.39c1.45-1.05 2.15 1.47 1.52 2.46-.84 3.03-2.63 6.15-5.63 7.45-1.56-1.41-.57-3.51.1-5.08.93-1.86 2.1-3.83 4.01-4.83Z"/><path d="M135.52 50.42c3.89-1.83 7.65 3.84 4.87 6.95-1.37 2.01-4.62 2.32-6.26.49-2.34-1.99-1.57-6.4 1.39-7.44ZM183.59 59.04c.03-3.88 2.7-7.17 5.68-9.4 2.1 3.11-.48 6.73-2.54 9.15-.7.81-2.97 2.48-3.14.25ZM220.66 55.92c-.97-3.01 2.26-5.72 4.9-6.41-.8 2.7-2.86 4.63-4.9 6.41Z"/></g><g fill="#006ab4"><path d="m81.32 31.84 8.56-1.53c-2.86 6.92-5.5 13.94-8.31 20.88 3.51-1.88 6.5-4.95 10.52-5.73 1.9-.03 2.77 1.74 3.83 2.99 1.79-1.3 3.63-2.9 5.98-2.89 1.67.03 2.85 1.75 2.65 3.32-.72 3.83-2.92 7.2-3.5 11.06 1.52-.4 3.02-.88 4.51-1.38.73-4.66 3.14-9.36 7.42-11.65 2.43-1.36 5.28-1.16 7.95-.9 1.31-3.48 2.5-7 4.01-10.4 1.71.05 3.42.09 5.14.12-3.23 7.86-5.88 15.93-9.08 23.79 1.93.15 3.79-.44 5.59-1.08.23.5.71 1.49.95 1.99-3.6 1.46-6.95 3.54-10.78 4.38-.36-.44-1.1-1.34-1.46-1.79-3.21 2.56-8.47 2.02-9.69-2.33-3.05 1.12-6.08 4.39-9.42 3.4-4.24-3.26 1.45-7.96.56-11.84l-.85-.33c-3.46 3.31-3.72 8.65-6.07 12.71-1.93-.04-3.86-.06-5.78-.08 1.45-4.2 3.74-8.18 4.21-12.66-5.53 1.13-8.94 6.14-13.37 9.21-5.28 4.68-14.82 5.18-19.29-.84-1.81-2.39.89-4.76 2.18-6.64 1.06 2.92 2.98 5.89 6.26 6.5 5.24.54 9.9-3.37 12.04-7.88 2.52-5.53 4.43-11.32 6.94-16.86-4 1.09-9.03 1.34-11.77 4.88-1.82 3.04 2.08 5.04 4.47 5.66-1.67 1.96-3.9 4.21-6.77 3.33-5.01-.74-7.22-7.45-3.91-11.17 4.08-4.59 10.62-5.15 16.28-6.24m34.91 18.55c-1.91 1-3.08 2.97-4.01 4.83-.67 1.57-1.66 3.67-.1 5.08 3-1.3 4.79-4.42 5.63-7.45.63-.99-.07-3.51-1.52-2.46ZM0 33.89c11.97-.28 23.96-.05 35.93-.1-.07 10.15-.11 20.3.01 30.46-11.98.05-23.96-.05-35.94.05V33.89ZM264.09 33.78c11.97-.04 23.94.05 35.91-.05v30.39c-11.97.32-23.95.06-35.93.12.11-10.15.09-20.31.02-30.46ZM239.67 36.19c1.58-1.02 3.69-.31 5.48-.53-1.27 3.24-2.49 6.51-3.89 9.7.63.08 1.89.25 2.52.33.15 1.41-.83 2.7-1.22 4.02-1.26.45-3.2.33-3.46 2.01-.8 3.09-3.43 6.47-2.16 9.6 3.09 1.08 5.27-3.46 8.23-1.56-3.54 4.19-10.09 6.72-14.84 2.98-4.11 2.4-9.89 2.85-13.37-.87-3.49 2.15-8.59 4.22-12.2 1.33-2.53-3.77 1.94-7.55 2.33-11.34-.46.05-1.39.16-1.86.21-4.08 4.85-7.7 11.04-14.41 12.49-1.34.45-2.21-.74-3.14-1.44-1.75.89-3.64 1.8-5.67 1.4-2.11-.27-2.91-2.43-3.99-3.94-2.65 1.43-5.22 3.09-8.13 3.92-2.02.3-3.05-1.82-2.98-3.53.39-2.83 1.78-5.39 2.53-8.12-1.17-1.84-2.63-.02-3.14 1.3-1.5 3.39-2.68 6.91-3.96 10.38-2.13.05-4.26.04-6.38-.06 1.62-3.78 3.23-7.6 4.38-11.56-1.11-2.06-2.48-.06-3.1 1.24-1.51 3.38-2.65 6.91-3.96 10.37-2 .02-3.99.07-5.99.08 1.9-4.81 3.58-9.7 5.49-14.51l-4.98 1.62c-.23-.58-.7-1.74-.94-2.33 3.09-1.22 6.05-2.79 9.27-3.68 1.56-.61 2.19 1.19 3.05 2.05 1.93-.74 3.64-2.34 5.82-2.21 1.55.25 2.3 1.77 3.26 2.81 2.18-1.47 6.08-4.47 7.91-1.04 1.3 4.61-3.89 8.69-2.54 13.22 1.49-1.01 3.93-1.21 4.44-3.23 1.81-5.03 5.25-10.66 10.98-11.51 3.05.66 6.05-.22 9.1-.31-1.82 4.7-3.65 9.4-5.3 14.16 5.6-1.04 9.6-6.94 10.09-12.4.88-1.35 1.77-2.7 2.65-4.05 1.62 1.08 3.42 1.81 5.32 2.2-1.08.92-2.15 1.84-3.22 2.78 1.71.84 3.53 1.42 5.42 1.72.21 3.81-2.66 6.81-3.61 10.35 2.04 1.7 4.27.6 6.29-.54-1.22-5.58 2.1-11.69 7.37-13.79 2.76-1.18 6.89.61 6.47 4.01-.64 4.64-4.77 7.52-8.49 9.73 2.63 2.73 7.52 2.28 9.67-.82 1.72-2.64 2.55-5.74 3.81-8.6-.65-.07-1.94-.19-2.58-.25.34-1.54.98-2.99 1.64-4.43.65-.02 1.94-.05 2.59-.07 1.08-3.12 2.03-6.29 3.4-9.29m-56.08 22.85c.17 2.23 2.44.56 3.14-.25 2.06-2.42 4.64-6.04 2.54-9.15-2.98 2.23-5.65 5.52-5.68 9.4m37.07-3.12c2.04-1.78 4.1-3.71 4.9-6.41-2.64.69-5.87 3.4-4.9 6.41Z"/></g><path fill="#fecf22" d="M0 67.73c11.9-.49 23.84-.21 35.75-.13 1.11 4.51 4.35 8.37 8.81 9.87 11.86 4.2 24.19 7 36.54 9.38 50.62 9.56 103.23 8.46 153.37-3.38 7.49-1.95 15.12-3.66 22.28-6.67 3.88-1.62 6.41-5.24 7.48-9.21 11.92-.24 23.85.04 35.77-.15V98H0V67.73Z"/></svg>