<svg xmlns="http://www.w3.org/2000/svg" width="400" height="101pt" viewBox="0 0 300 101"><g fill="#1b1d74"><path d="M0 0h163.87c.14 8.96 0 17.91.09 26.87-54.65 0-109.31.06-163.96-.03V0ZM91.53 32.25c6.2-2.27 13.76-1.5 18.7 3.13-1.28 1.69-2.58 3.36-3.85 5.06-2.86-1.49-5.9-3.65-9.29-2.96-2.7.48-4.9 3.91-2.97 6.3 2.63 3.35 7.31 4.71 9.19 8.75 2.67 6.23-1.1 14.22-7.55 16.23-6.65 1.99-14.25 1.29-20.02-2.76 1.09-1.92 2.16-3.85 3.2-5.8 4.01 2.18 8.87 3.64 13.35 2.03 2-.66 3.03-3.3 1.62-5.01-3.46-3.88-9.34-5.88-10.92-11.26-.98-5.85 3.1-11.74 8.54-13.71ZM27.53 31.9c5.94-.35 11.89.11 17.84.27-.12 7.88.12 15.76.06 23.65 4.75-7.81 9.26-15.76 13.94-23.61 2.87 0 5.74-.01 8.61.03-7.59 12.14-14.72 24.57-22.47 36.61-3.02.93-6.29.36-9.42.47-.21-9.13-.6-18.25-.68-27.38-.08-2.26-.02-4.85-1.71-6.6-1.8-1.57-4.12-2.29-6.17-3.44ZM71.23 31.88c3.22 0 6.43 0 9.64-.02-4.11 12.47-7.98 25.01-12.19 37.44-3.25.04-6.5.04-9.75.03 4.26-12.43 7.98-25.04 12.3-37.45ZM102.92 69.34c7.02-12.25 13.57-24.76 20.38-37.13 3.61-.01 7.22-.01 10.83-.01.56 12.37 1.1 24.74 1.66 37.12-3.14.02-6.28.02-9.41.01l.06-7.43c-3.67-.03-7.33-.03-11 .06-1.17 2.46-2.31 4.92-3.48 7.38-3.02 0-6.03-.01-9.04 0m15.31-13.64c2.64-.02 5.27-.03 7.91-.04-.54-4.21-.97-8.45-1.12-12.7-2.37 4.19-4.45 8.53-6.79 12.74ZM292.05 84.51c.58.02 1.73.08 2.3.1-.06 4.55-.05 9.1-.03 13.65-2.24 0-4.5.26-6.73.05-4.37-.96-4.79-7.94-.71-9.54 1.77-1.02 3.71.02 5.45.55-.12-1.6-.2-3.21-.28-4.81m-5.44 7.52c-1.5 2.53 1.81 6.05 4.19 4.03 2.4-1.21.92-3.86.56-5.78-1.51.47-4.45-.48-4.75 1.75ZM228.18 85.53c.63 0 1.88-.01 2.51-.02l-.28 3 3.71.09v1.82c-1.24.01-2.47.03-3.7.05.09 1.94.18 3.87.3 5.8 1.41.17 2.83.37 4.25.59-1.34 2.2-4.68 2.31-6.24.33-.57-2.03-.36-4.17-.47-6.25-.65-.6-2.34-.6-1.94-1.86l2.06-1.03-.2-2.52ZM186.43 88.69c2.94-.05 6.07-.71 8.72.97.44-.38 1.32-1.16 1.76-1.54 1.68.4 3.92.3 4.79 2.12.45 3.08.44 6.32-.69 9.26-1.19-2.96-1.17-6.17-1.53-9.28-1.45.24-3.48-.13-3.91 1.77-.26 2.1-.14 4.23-.14 6.35-.55 0-1.64.01-2.19.01.01-2.47.14-4.95-.19-7.41-1.36-.9-2.69-.86-4 .12-.52 2.39-.3 4.86-.3 7.29-.57-.01-1.72-.02-2.29-.02.03-3.22.03-6.43-.03-9.64ZM207.44 88.53c2.25-.14 4.5.11 6.75.21.07 3.21-.09 6.42-.43 9.62-2.68-.44-5.85.93-8.09-1.05-2.8-2.34-1.96-7.88 1.77-8.78m-.95 3.51c-1.6 2.51 1.91 6.09 4.3 4.01 2.34-1.14.88-3.74.61-5.64-1.72.17-4.29-.57-4.91 1.63ZM247.54 88.72c2.14-.06 4.28-.2 6.43-.32-.14.41-.4 1.23-.54 1.64-1.13.24-2.26.53-3.37.86-.77 2.41-.4 4.97-.45 7.45l-2.04.01c0-3.21.02-6.43-.03-9.64ZM266.36 89.26c1.55-1.49 3.73-.67 5.56-.33.86-.16 1.72-.33 2.59-.49-.05 3.09-.06 6.18.02 9.27-2.83.09-6.39 1.89-8.69-.54-2.46-1.95-2.18-6.29.52-7.91m.19 4.88c.24 2.44 2.95 2.32 4.77 2.53.52-1.78 2.09-4.05.16-5.57-1.99-2.15-5.98.12-4.93 3.04ZM277.24 88.4c.82.14 1.64.28 2.47.42 1.29-.19 2.59-.37 3.9-.56-.15.51-.44 1.51-.58 2.02-1.14.11-2.28.23-3.41.36-.18 2.57-.23 5.14-.26 7.72-.54 0-1.61-.01-2.14-.01.04-3.31.04-6.63.02-9.95ZM216.55 92.09c-.28-4.84 6.37-4.43 9.01-2.13-2.38 1.08-5.52-.64-7.32 1.72 2.74.75 7.98.83 6.57 5.08-2.47 2.84-6.47 1.71-9.38.33 2.49-1.4 5.64.3 7.88-1.78-2.19-1.08-5.34-.91-6.76-3.22ZM235.71 93.99c-.73-3.86 3.81-7.15 7.21-5.13 1.92.92 2.24 3.18 2.97 4.96-2.62.24-5.23.35-7.85.4l.71 2.22c2.25-.05 4.49-.16 6.74-.12-2.56 3.8-9.57 2.53-9.78-2.33m3.07-3c-.89 1.93 3.63 2.14 4.08.57-.65-1.49-2.95-1.48-4.08-.57ZM257.07 88.85c2.05-.94 5.82-1.01 6.16 1.91-1.78-.03-3.68-.73-5.38-.03-2.22 1.34-.8 3.93-.35 5.81 1.71-.13 3.43-.28 5.15-.44l.68 1.65c-2.07.43-4.44 1.45-6.42.16-3.48-1.72-3.39-7.45.16-9.06Z"/></g><path fill="#f3242d" d="M192.31 15.6c5.63-5.34 13.06-8.58 20.7-9.63 9.63-1.25 19.57 1.76 27.25 7.61-8.43 6.9-14.08 17.38-14.06 28.39-.47 11.51 5.16 22.77 14.08 29.92-8.69 6.86-20.48 9.39-31.24 6.87-12.81-2.8-23.61-13.08-27.11-25.7-4.13-13.11.28-28.26 10.38-37.46Z"/><path fill="#fbab3b" d="M240.41 13.46c4.83-3.7 10.59-6.1 16.55-7.23 12.82-2.29 26.64 2.96 34.77 13.11 5.17 6.14 8 14.07 8.27 22.06v3.01c-.37 10.9-5.9 21.45-14.69 27.91-12.77 9.96-32.16 9.78-44.83-.27 8.15-7.39 14.11-17.74 13.9-28.99.37-11.46-5.54-22.17-13.97-29.6Z"/><path fill="#ff7222" d="m240.26 13.58.15-.12c8.43 7.43 14.34 18.14 13.97 29.6.21 11.25-5.75 21.6-13.9 28.99l-.2-.16c-8.92-7.15-14.55-18.41-14.08-29.92-.02-11.01 5.63-21.49 14.06-28.39Z"/><path fill="#e59703" d="M0 74.24c54.67-.14 109.35-.06 164.02-.04-.19 8.93 0 17.87-.12 26.8H0V74.24Z"/></svg>