<svg xmlns="http://www.w3.org/2000/svg" width="144" height="86pt" viewBox="0 0 108 86"><path d="M20.43 0h63.42c5.14.56 10.91-.39 15.51 2.5 5 2.91 8.18 8.6 7.97 14.4-.02 17.73.07 35.46-.04 53.19-.01 7.95-6.86 15.17-14.83 15.48-1.57.11-4.72.32-6.29.43H24.1c-5.39-.52-11.49.39-16.14-2.97C3.29 80.05.46 74.6.67 69.06c-.01-17.36 0-34.73 0-52.1-.02-3.35.78-6.75 2.7-9.53C6.95 1.72 14.03-.2 20.43 0m-9.09 16.94c-.01 17.37-.01 34.75 0 52.12-.33 3.1 2.29 6.11 5.48 5.91 24.42.08 48.85 0 73.28.04 2.6.27 5.5-1 6.28-3.66.51-2.3.25-4.68.29-7.02-6.25-.12-12.5.26-18.73-.2-10-1.06-18.32-10.11-18.57-20.15-.62-9.44 5.92-18.69 14.97-21.36 7.29-1.83 14.9-.6 22.33-.95-.01-2.12.12-4.24-.14-6.34-.36-2.54-2.85-4.44-5.38-4.3-23.39-.09-46.79.02-70.18-.05-1.97.02-3.96-.1-5.9.27-2.44.67-3.92 3.23-3.73 5.69m57.09 26.07c-.15 6.25 5.22 11.97 11.47 12.17 5.58.23 11.17.02 16.76.09.01-8.18.01-16.36 0-24.54-5.57.07-11.14-.13-16.7.08-6.28.17-11.71 5.93-11.53 12.2Z"/><path d="M78.29 38.22c3.36-1.86 7.94 1.03 7.7 4.86.13 4.11-5.14 6.81-8.39 4.28-3.27-2.1-2.86-7.56.69-9.14Z"/></svg>