<svg width="400" height="98pt" viewBox="0 0 300 98" xmlns="http://www.w3.org/2000/svg"><g fill="#039"><path d="M34.49 1.67c18.97-3.53 38.63.13 56.21 7.62 1 .56 2.52.83 2.8 2.15 8.38 24.69 8.35 52.23-.34 76.82-23.87 11.69-52.66 12.64-77.45 3.03-2.77-1.31-6.81-1.7-7.81-5.11C1.77 71.72-1.13 55.7.81 40.04c1.07-9.61 3.72-19.02 7.42-27.94.52-1.69 2.22-2.44 3.67-3.17 7.18-3.35 14.78-5.86 22.59-7.26m2.07 3.07c-8.13 1.29-16.05 3.83-23.46 7.39-2.1.79-2.45 3.24-3.26 5.04-6.64 17.43-8.33 36.94-3.21 55 1.47 4.69 2.6 9.71 5.28 13.86 8.19 3.76 17.01 6.21 25.93 7.5 16.88 2.73 34.32-.13 50.1-6.43 1.04-.53 2.57-.81 2.83-2.18 7.44-22.83 7.41-47.97.05-70.82-.26-1.35-1.66-1.74-2.72-2.25C71.91 5.19 53.97 1.8 36.56 4.74Z"/><path d="M35.08 26.04c-.58-9.31 8.8-17.08 17.84-15.42 8.63.78 15.53 9.7 13.7 18.24-2.43 8.09-10.76 12.73-13.03 20.91-2.83 8.3-1.07 17.2-2.72 25.67-1.43-9.96.2-20.65-4.31-30-3.51-6.63-11.3-11.25-11.48-19.4ZM230.95 13.34c5.01 2.96 10.18 5.64 15.23 8.54-2.98 6.56-5.62 13.25-8.51 19.84-8.13-5.73-19.41-5.73-28.06-1.17-3.79 1.96-7.32 4.92-8.97 8.95-1.7 5.87.01 13.19 5.68 16.27 7.42 4.08 16.22 2.17 23.9-.1-2.59 6.97-5.21 13.93-7.89 20.86-10.07.49-20.76.99-29.98-3.82-7.79-3.75-12.98-12.08-13.04-20.72-.59-8.76 2.88-17.12 7-24.64 4.29-7.69 10.55-14.68 18.89-17.96 7.65-3.2 16.1-2.21 24.16-1.9.53-1.38 1.06-2.76 1.59-4.15ZM121.8 34.25c3.33-6.42 6.67-12.84 9.98-19.28 11.57.4 23.16.57 34.73.85 6.26.17 12.3 4.89 13.01 11.29 1.35 8.35-3.72 16.43-10.77 20.56 5.14 4.65 7.85 12.09 5.61 18.85-3.89 11.58-16.3 19.47-28.4 18.84-10.49-.03-20.97-.06-31.45.02 3.96-17.28 7.81-34.59 11.92-51.84-1.55.24-3.09.47-4.63.71m22.43 8.54c4.41-.26 8.92.42 13.27-.39 4.42-2.38 5.62-10.37 1.27-13.28-3.64-.51-7.34-.14-11-.24-1.26 4.61-2.26 9.3-3.54 13.91m-2.27 10.51c-1.35 5.16-2.84 10.29-3.97 15.51 4.52-.19 9.11.39 13.59-.36 3.53-1.61 5.66-5.68 5.7-9.47.21-2.59-1.76-5.35-4.44-5.52-3.62-.33-7.26-.1-10.88-.16ZM261.35 16.32c10.74-.71 21.67.05 32.49-.35 1.97 23.39 4.11 46.75 6.07 70.14-8.02-.01-16.03-.01-24.05 0V72.45c-5.85.03-11.7.05-17.54-.02-1.66 4.33-3.15 8.72-4.9 13.01-7.44-.19-14.88-.11-22.31-.04 8.16-17.25 16.06-34.62 24.26-51.85-.92.06-2.75.16-3.66.21 3.39-5.72 6.14-11.8 9.64-17.44m2.26 42.35c4.08-.12 8.16-.1 12.24-.05-.06-8.07.17-16.14-.1-24.21-3.93 8.14-7.96 16.24-12.14 24.26Z"/><path d="M25.43 34.71c2.85-1.17 5.81.27 8.35 1.53 6.06 3.25 9.99 9.47 11.81 15.96 2.06 7.15 1.81 14.69 1.54 22.05-4.39-2.59-8.68-6.33-14.1-6.06-4.92-.06-10.62.94-14.64-2.63-2.83-3.38-1.83-8.13-1.53-12.15 6.48 5.85 14.83 9.2 23.47 10.16-2.41-2.23-4.77-5.16-8.3-5.41-6.72-.59-13.28-5.35-14.67-12.14-.98-5.22 3.38-9.84 8.07-11.31ZM58.46 46.43c3.01-6.06 8.67-11.3 15.57-12.18 5.67.49 11.35 5.73 10.42 11.74-1.41 6.74-7.87 11.56-14.58 12.14-3.59.22-6 3.16-8.41 5.47 8.57-1.05 16.9-4.26 23.36-10.1.52 3.92 1.31 8.54-1.28 11.92-4.24 3.93-10.36 2.56-15.59 2.8-5.12.04-9.18 3.6-13.35 6.09-.3-9.37-.58-19.32 3.86-27.88ZM24.05 82.09c1.47-4.01 7.32-2.48 7.49 1.53-1.36-.84-2.61-1.84-3.81-2.89-2.13.93-2.98 3.32-1.8 5.36h3.3c-.61-.72-1.84-2.16-2.45-2.89.97.38 2.91 1.13 3.89 1.5-.11 6.13-9.6 1.93-6.62-2.61ZM72.21 79.97c2.7 1.66 4.05 4.85 5.75 7.43-1.23-.5-2.41-1.09-3.55-1.77-1.45 1.01-2.7 2.27-3.9 3.56.52-3.04-.08-6.54 1.7-9.22m.25 3.18c-.53 1.67 0 2.25 1.58 1.73.52-1.67-.01-2.25-1.58-1.73ZM32.56 80.87c2.25.55 4.67 1.03 6.19 2.96-.8.82-1.61 1.64-2.42 2.46.5 1.37.95 2.74 1.33 4.15-1.86-1.28-2.93-3.29-4.21-5.08-.45 1.54-.3 3.76-2.48 3.75.5-2.75 1.05-5.5 1.59-8.24m1.16 2.34c-1.04 1.39 1.57 2.48 2.47 1.44 1.08-1.43-1.55-2.47-2.47-1.44ZM62.9 84.11c.55-3.2 5.7-3.33 6.33-.05-1.32-.33-2.62-.76-3.96-1-1.59 1.34-1.02 3.54.05 5 1.66.04 2.87-1.21 4.18-2.03-.12 2.12-1.68 3.21-3.33 4.14-2.04-1.29-4.21-3.39-3.27-6.06ZM39.4 81.87c3.44 1.41-1.43 7.4 3.5 7.4.81-2.11-.66-6.05 2.24-6.72-.09 2.06-.04 4.16-.47 6.19-.7 2.77-5.68 2.15-5.82-.67-.17-2.08.27-4.14.55-6.2ZM46.21 90.44c-.2-2.55.17-5.1.46-7.62 1.93.29 5-.35 5.48 2.28.42 2.44-2.27 2.96-4.07 3.03-.09.74-.25 2.23-.34 2.97-.38-.16-1.14-.49-1.53-.66m1.86-6.05c-1.65 1.33.88 3.48 2.21 2.11 1.54-1.33-.9-3.31-2.21-2.11ZM55.48 83c1.8-.03 3.63-.29 5.41.07.28 2.23 1.63 4.55.89 6.78-1.76.63-3.63.78-5.46 1.06-.32-2.63-.6-5.27-.84-7.91m1.93 1.3c-1.35 1.56 1.52 2.74 2.46 1.42 1.36-1.54-1.54-2.8-2.46-1.42m.1 3.14c-1.17 2.07 3.26 2.65 3.44.62-.27-1.53-2.54-1.58-3.44-.62Z"/></g></svg>