<svg width="400" height="116" viewBox="0 0 300 87" xmlns="http://www.w3.org/2000/svg"><g fill="#f15a22"><path d="M0 0h25.73C23.57 7.5 24.32 15.58 27 22.87c3.43 9.29 8.69 17.85 14.91 25.53-2.81 2.56-5.85 4.86-8.82 7.23-11-13.74-21.85-27.6-33.09-41.14V0ZM36.57 0h45.76c.04 3.7.02 7.4-.01 11.1-4.17-1.91-8.87-2.29-13.38-1.73-11.85 1.72-21.38 12.59-21.83 24.52-1.23-.28-1.7-1.66-2.45-2.53-6.18-9.05-10.2-20.33-8.09-31.36Z"/><path d="M52.52 30.11c1.17-7.5 8.73-13.67 16.38-12.63 5.28.71 9.75 3.97 13.43 7.63.03 10.8.02 21.6.01 32.4-3.03 1.63-6.66 1.57-9.93.88-6.7-2.21-11.68-7.67-15.53-13.36-2.81-4.4-5.01-9.6-4.36-14.92ZM0 32l.58-.47C8.44 41.93 16.76 52 25.01 62.1 16.82 68.98 8.36 75.52.16 82.38l-.16.13V32ZM36.4 59.9c2.84-2.51 5.88-4.8 8.76-7.27 5.14 5.06 10.69 10.32 17.81 12.45 6.38 2.3 13.54 1.01 19.36-2.24.05 6.51-.03 13.01.05 19.52-9.45.05-18.91.04-28.36 0 1.86-1.77 4.04-3.16 5.98-4.82-1.74-.87-4.03.78-5.91-.38-8.08-3.04-12.03-11.34-17.69-17.26ZM8.41 82.36c6.56-5.41 13.29-10.59 19.84-16.01 4.1 5.22 8.76 10.1 11.87 16.02-10.57.02-21.14.05-31.71-.01Z"/></g><path fill="#fff" d="M25.73 0h10.84c-2.11 11.03 1.91 22.31 8.09 31.36.75.87 1.22 2.25 2.45 2.53.45-11.93 9.98-22.8 21.83-24.52 4.51-.56 9.21-.18 13.38 1.73.02 4.67 0 9.34.01 14.01-3.68-3.66-8.15-6.92-13.43-7.63-7.65-1.04-15.21 5.13-16.38 12.63-.65 5.32 1.55 10.52 4.36 14.92 3.85 5.69 8.83 11.15 15.53 13.36 3.27.69 6.9.75 9.93-.88-.01 1.78-.01 3.55-.01 5.33-5.82 3.25-12.98 4.54-19.36 2.24-7.12-2.13-12.67-7.39-17.81-12.45-2.88 2.47-5.92 4.76-8.76 7.27 5.66 5.92 9.61 14.22 17.69 17.26 1.88 1.16 4.17-.49 5.91.38-1.94 1.66-4.12 3.05-5.98 4.82-4.64.02-9.27-.01-13.9.01-3.11-5.92-7.77-10.8-11.87-16.02-6.55 5.42-13.28 10.6-19.84 16.01-2.75.02-5.5-.01-8.25.02 8.2-6.86 16.66-13.4 24.85-20.28C16.76 52 8.44 41.93.58 31.53L0 32V14.49c11.24 13.54 22.09 27.4 33.09 41.14 2.97-2.37 6.01-4.67 8.82-7.23C35.69 40.72 30.43 32.16 27 22.87 24.32 15.58 23.57 7.5 25.73 0Z"/><g fill="#006885"><path d="M104.24 0h35.97c6.86.7 14.36 2.21 19.18 7.58 7.31 7.85 4.15 23.09-6.45 26.27-1.21-1.04-2 .82-1.12 1.46 1.64-.77 3.32.51 4.89.92 7 2.81 13.18 8.94 14.13 16.66 1.27 6.84-.99 14.16-5.77 19.18-4.91 5.35-11.95 8.3-19.05 9.29-13.8 1.7-27.74.61-41.6 1.06.58-1.39 2.42-1.57 3.25-2.8 3.21-2.98 3.34-7.59 3.43-11.65V16.06c.05-2.91-.12-5.85-.69-8.7-.89-3.27-3.52-5.49-6.17-7.36m19.55 7.65c.03 8.52.01 17.04.01 25.56 5.72-.09 11.54.48 17.16-.92 9.35-1.61 11.87-15.39 4.63-20.92-6.15-4.91-14.51-3.39-21.8-3.72m.02 33.48c0 10.9-.03 21.8.01 32.7 7.37-.19 14.98.8 22.09-1.66 4.5-1.31 8.82-4.39 10.44-8.94 2.75-6.85 0-15.61-6.69-19.05-7.9-4.21-17.24-3.3-25.85-3.05ZM180.24 0h18.36c3.53 5.55 7.66 10.69 11.51 16.01 10.64 14.32 21.26 28.66 31.9 42.99.87 1.2 1.45 2.67 2.81 3.45-.43-17.25.1-34.51-.28-51.76.06-4.64-2.97-8.32-6.69-10.69h22.63c-4.23 2.53-6.99 7.02-6.79 12.04-.09 24.98-.09 49.97 0 74.96h-.46c-10.04-6.45-18.31-15.35-25.24-25-9.72-13.02-19.41-26.05-29.14-39.06-.78-1.23-1.6-2.45-2.75-3.38.31 17.13 0 34.26.17 51.39.16 2.66.4 5.5 2.05 7.71 1.11 1.93 3.32 2.75 4.67 4.48-7.59-.38-15.22-.39-22.81 0 1.47-1.54 3.45-2.53 4.68-4.32 2.13-3.14 2.28-7.12 2.29-10.79-.06-18.69.09-37.37-.08-56.05.06-4.97-2.56-9.49-6.83-11.98ZM273.86 0H300v.29c-3.77 2.32-6.4 6.26-6.33 10.79-.16 19.95-.07 39.91-.04 59.86-.23 4.81 2.26 9.28 6.37 11.72v.5c-8.69-.47-17.45-.4-26.14-.01 1.07-1.41 2.76-2.12 3.88-3.47 2.65-2.85 2.98-7.01 2.94-10.72-.06-19.27.11-38.56-.08-57.83.08-4.76-2.91-8.66-6.74-11.13Z"/></g></svg>