<svg width="400" height="115pt" viewBox="0 0 300 115" xmlns="http://www.w3.org/2000/svg"><g fill="#00529c"><path d="M18.31 0h75.87c9.76-.79 19 7.25 19.23 17.04.12 26.65.01 53.31.01 79.96.23 9.35-7.76 17.8-17.15 18H18.1C8.8 115.27.58 107.47 0 98.27V17.16C.34 7.69 8.83-.25 18.31 0m-1.32 10.97c-2.88 2-4.18 5.56-4.07 8.98-.03 25.02-.01 50.05-.01 75.07-.33 4.66 2.73 9.48 7.42 10.46 6.89.89 14.83.01 19.67-5.54 5.18-5.37 5.36-14.59.25-20.07-7.06-7.5-14.33-14.8-21.52-22.17 7.5-7.49 14.84-15.14 22.26-22.71 5.26-5.23 5.63-14.26 1.01-20.01-2.95-4.01-8.01-6.08-12.93-5.67-4.02.25-8.58-.89-12.08 1.66m35.75-1.65c7.06 10.74 5.94 26.84-3.8 35.62-4.07 4.17-8.06 8.43-12.16 12.57 4.3 4.29 8.5 8.68 12.74 13.02 4.03 4.16 6.13 9.84 6.79 15.51.9 6.8-1.64 13.44-4.44 19.51 12.75.07 25.51.03 38.26.06 2.13.11 4.17-.5 6.13-1.25C80.87 88.91 65.88 73.05 50.59 57.5c6.87-7.06 13.73-14.15 20.58-21.23 2.32-2.3 4.37-5.04 5.04-8.3 1.82-7.18-2.37-15.36-9.4-17.85-4.53-1.47-9.39-.54-14.07-.8m31.46-.2c6.69 10.73 6.1 26.68-3.64 35.41-4.26 4.3-8.44 8.68-12.73 12.95 11 11.08 21.69 22.46 32.76 33.46-.26-23.98-.01-47.96-.1-71.94.12-4.21-2.91-8.22-6.97-9.3-3.07-.6-6.22-.38-9.32-.58ZM124.63 9.27c11.79.01 23.58-.02 35.37.02 8.19-.02 16.8 2.08 23 7.69 6.09 5.43 8.59 14.08 7.59 22.03-.83 5.05-3.67 9.57-7.32 13.08 6.95 5.12 11.79 13.3 12.25 21.99.57 8.16-1.79 16.85-7.76 22.67-6.21 6.17-15.2 8.63-23.76 8.72-13.13.04-26.26.01-39.38.01.06-32.07.04-64.14.01-96.21m17.7 37.59c8.88.03 17.75-.04 26.63.04 5.34-5.41 5.83-16.55-2.06-19.83-7.92-2.52-16.42-.87-24.58-1.34.07 7.04.05 14.09.01 21.13m-.06 16.73c.16 8.35.12 16.69.02 25.04 8.56-.25 17.24.72 25.72-.63 7.41-1.2 11.7-9.91 8.83-16.68-1.65-4.96-6.85-7.78-11.89-7.72-7.56-.1-15.12-.05-22.68-.01ZM201.78 9.27c13.41.04 26.82-.09 40.23.07 10.56.27 22.01 4.65 27.3 14.34 6.44 12.16 4.46 29.1-6.31 38.22-3.67 3.28-8.22 5.31-12.87 6.74 8.91 12.09 17.08 24.72 25.96 36.84-7.07.03-14.14-.03-21.22.03-8.41-11.88-16.62-23.89-24.99-35.79-3.36 0-6.71 0-10.06.01.09 11.9-.14 23.8.12 35.7-6.05.11-12.11.03-18.17.05.04-32.07.02-64.14.01-96.21m18.04 16.46c.02 9.13 0 18.26.01 27.39 5.74 0 11.47-.01 17.21.01 3.94 0 8.15-.27 11.52-2.54 6.69-4 8.33-14.51 2.92-20.2-2.84-3.25-7.26-4.58-11.45-4.64-6.74-.07-13.48 0-20.21-.02ZM281.6 9.29c6.13-.03 12.26-.03 18.4 0v96.18c-6.14.03-12.28.02-18.42.01.07-32.06.04-64.13.02-96.19Z"/></g></svg>