<svg width="400" height="182pt" viewBox="0 0 300 182" xmlns="http://www.w3.org/2000/svg"><path fill="#f8ad3c" d="M257.11 0h.39c6.22 4.62 13.58 8.31 21.49 8.34 5.46.26 10.83-.93 16.05-2.4-1.43 6.3-3.88 12.65-2.85 19.21.96 7.07 4.7 13.28 7.81 19.56v.61c-9.79-1.29-20.54.82-28.03 7.58-3.11 2.65-5.34 6.11-7.94 9.21-1.6-7.38-3.96-15.12-9.53-20.51-4.58-4.56-11.22-5.77-16.47-9.29 11.74-6.15 19.44-19.02 19.08-32.31Z"/><g fill="#00a39d"><path d="M220.22 48.9c.11-.41.35-1.25.46-1.67 8.11 1.56 16.05 5.13 21.58 11.43 6.2 6.5 9.53 15.49 9.64 24.41 0 32.75-.03 65.5.01 98.25-10.57.08-21.23.4-31.76-.16.15-44.09.01-88.17.07-132.26ZM125.3 63.28c7.04-7.87 17.23-12.49 27.61-13.83 16.69-1.91 34.41 2.42 47.32 13.45-2.3 4.78-4.92 9.4-7.41 14.08-1.52 2.99-4.9 5.58-8.4 4.52-3.83-1.19-7.02-3.77-10.7-5.31-6.8-3.25-14.88-4.06-22.03-1.51-6.8 2.53-10 12.18-5.32 17.95 3.56 3.92 8.75 5.7 13.61 7.44 9.28 2.94 18.8 5.66 27.16 10.8 7.74 4.8 13.19 13.07 14.45 22.09 1.46 11.31-.96 23.39-7.89 32.61-6.46 8.86-16.69 14.2-27.26 16.43H145.4c-11.61-2.11-22.98-6.64-32.11-14.23-.75-.89-2.17-1.51-2.29-2.76 2.81-4.56 5.69-9.09 8.56-13.61 2.24-3.59 7.33-5.22 11.03-2.84 6.75 3.9 13.41 8.8 21.41 9.6 5.51.37 11.62.5 16.32-2.85 4.91-3.58 5.79-10.5 4.42-16.04-1.91-4.96-7.04-7.57-11.74-9.3-10.64-3.72-22.2-5.64-31.62-12.2-9.02-6.08-13.66-17.16-13.54-27.83-.59-9.68 2.93-19.5 9.46-26.66ZM0 50.26c16.66-.01 33.33-.04 49.99.02 9.42.31 19.02 1.29 27.76 5.03 7.34 3.01 14.01 8.43 16.97 15.97 3.23 8.36 3.96 18.18.14 26.46-3.75 7.79-11.39 12.84-19.24 15.89 9.03 1.85 18.22 6.85 22.26 15.51 3.6 7.95 3.16 17.27.47 25.42-3.39 9.91-11.46 17.76-20.97 21.89-8.23 3.83-17.42 4.87-26.41 4.91-16.99 0-33.98.01-50.97 0V50.26M30.23 73.3c-.15 10.64-.03 21.29-.06 31.93 6.93-.06 13.87.13 20.8-.14 5.34-.38 11.41-1.99 14.19-7.03 2.6-5.41 2.55-11.98.22-17.47-1.8-4.06-6.17-6.15-10.38-6.67-8.21-1.04-16.52-.27-24.77-.62m-.06 52.63c-.01 10.72-.01 21.45 0 32.17 7.96-.03 15.92.05 23.88-.04 6.27-.3 13.28-3.33 15.25-9.79 1.45-5.06 1.67-10.96-.87-15.73-2.68-4.67-8.42-5.96-13.37-6.53-8.29-.2-16.59-.04-24.89-.08Z"/></g></svg>