<svg width="400" height="160" viewBox="0 0 300 120" xmlns="http://www.w3.org/2000/svg"><g fill="#0069ab"><path d="M40.53 0h.9c.9 1.03 2.19 1.58 3.33 2.27C57.09 9.34 69.33 16.58 81.7 23.56c.03 15.74-.03 31.48.03 47.22-3.37 1.98-6.76 3.93-10.14 5.9-.08-3.88-.05-7.76.03-11.64 0-11.82-.05-23.64.02-35.47C61.4 23.7 51.18 17.79 40.98 11.84c-10.14 6.08-20.56 11.7-30.61 17.93.32 11.71.1 23.43.11 35.15.04 3.92.09 7.83-.05 11.75C6.94 74.63 3.36 72.73 0 70.49V23.85c12.4-7.26 24.87-14.4 37.29-21.62 1.1-.69 2.38-1.21 3.24-2.23ZM103.24 76.58c4.52-21.6 8.93-43.22 13.44-64.82 11.43.1 22.86-.02 34.29.05 5.52.27 11.93.95 15.66 5.56 4.83 6.97 2.92 18.2-4.66 22.48-1.55.89-3.37 1.2-4.85 2.21 4.72.76 8.29 4.75 9.44 9.26 1.22 6.41-.4 13.56-5.12 18.24-5.36 5.24-13.14 7.05-20.43 7.02-12.59.05-25.18.05-37.77 0m27.46-39.36c5.09-.33 10.38.73 15.33-.67 3.72-1.09 4.42-6.87.9-8.63-4.64-.85-9.41-.21-14.1-.4-.67 3.24-1.29 6.49-2.13 9.7m-2.28 12.2c-1.09 3.97-1.51 8.13-2.76 12.08 5.95-.47 12.2.98 17.91-1.09 4.53-1.62 4.93-9.56-.14-10.65-4.94-.8-10.02-.45-15.01-.34ZM176 28.55c1.12-5.64 2.15-11.33 3.71-16.86 18.54.22 37.08.08 55.63.07-1.24 5.59-2.42 11.19-3.59 16.79-6-.03-11.99-.03-17.99 0-3.22 16.05-6.47 32.11-10 48.09-6.59-.03-13.19-.08-19.78.03 3.35-16.03 6.48-32.12 10.05-48.1-6.01-.08-12.02-.03-18.03-.02ZM242.22 11.82c6.58-.06 13.15-.01 19.73-.03 4.32 11.78 7.93 23.85 12.42 35.55 2.48-11.86 4.72-23.78 7.33-35.61 6.1.12 12.2.05 18.3.05v3.29c-4.54 20.48-8.69 41.05-13.04 61.57-6.53-.07-13.05 0-19.57-.05-4.23-12.01-7.55-24.35-12.18-36.2-2.23 12.12-4.95 24.15-7.4 36.22-6.31.01-12.61-.01-18.92.01 4.44-21.6 9.02-43.17 13.33-64.8Z"/><path d="M20.53 35.62c6.72-4.17 13.7-7.9 20.45-12.02 6.78 4.09 13.75 7.87 20.49 12.01-.19 7.79-.03 15.58-.11 23.37.02 3.91.03 7.82 0 11.73 0 3.99.08 7.98-.02 11.97-3.46 1.83-6.8 3.86-10.19 5.81.01-3.92.05-7.83.06-11.75-.01-3.92-.02-7.85-.01-11.77-.02-3.92 0-7.84.02-11.76-.01-3.97-.01-7.94-.06-11.91-3.41-1.93-6.78-3.93-10.17-5.89-3.38 1.97-6.72 4-10.18 5.81-.15 4.01-.09 8.03-.12 12.04.02 3.92.04 7.84.02 11.76.01 3.91.01 7.83-.01 11.74.01 3.9.04 7.8.1 11.7-3.36-1.93-6.68-3.95-10.11-5.75-.15-4-.03-8.01-.04-12-.03-3.93-.02-7.86 0-11.78-.09-7.77.08-15.54-.12-23.31Z"/></g><g fill="#a68561"><path d="M30.69 53.26c3.39-2.09 6.85-4.05 10.3-6.03 3.43 1.95 6.86 3.91 10.23 5.98-.02 3.92-.04 7.84-.02 11.76-3.37-2.06-6.81-3.98-10.21-5.99-3.42 2.03-6.89 3.96-10.28 6.04.02-3.92 0-7.84-.02-11.76ZM10.48 64.92c3.38-2.01 6.8-3.95 10.17-5.99-.02 3.92-.03 7.85 0 11.78-3.37 2.03-6.77 4.03-10.22 5.96.14-3.92.09-7.83.05-11.75ZM61.36 58.98c3.42 2.02 6.9 3.95 10.26 6.06-.08 3.88-.11 7.76-.03 11.64-3.45-1.92-6.85-3.94-10.23-5.97.03-3.91.02-7.82 0-11.73ZM30.7 76.76c3.43-1.99 6.86-3.98 10.28-5.98 3.42 1.96 6.83 3.95 10.23 5.96-.01 3.92-.05 7.83-.06 11.75-3.37-2.01-6.77-3.96-10.15-5.95-3.39 2-6.79 3.96-10.2 5.92-.06-3.9-.09-7.8-.1-11.7Z"/></g><path fill="#e31c24" d="M122.01 97.17c59.32-2.96 118.69-5.11 177.99-8.7v5.43c-64.77 8.68-129.53 17.54-194.32 26.1h-9.6c.93-3.42 1.32-7.01 2.75-10.28 2.47-5.27 7.16-9.46 12.71-11.26 3.35-1.21 6.97-.99 10.47-1.29Z"/></svg>