<svg width="400" height="112" viewBox="0 0 300 84" xmlns="http://www.w3.org/2000/svg"><g fill="#790008"><path d="M0 0h84.1c0 28 .01 56-.01 84H0V0m11.07 15.69c6.86 8.64 13.18 17.68 20.12 26.25-6.74 8.63-13.27 17.42-19.86 26.16 14.86-.03 29.73.04 44.59-.02 6.81-8.6 13.09-17.62 20.07-26.08l-.29-.01c-6.44-8.85-13.19-17.46-19.73-26.23-14.97-.03-29.93.08-44.9-.07ZM106.13 41.97c-.07-13.38 10.67-25.48 23.76-27.68 8.62-1.92 17.58 1.33 24.38 6.62-2.7 2.53-5.32 5.17-7.95 7.79-5.77-4.81-14.56-5.46-20.8-1.16-8.7 5.56-10.51 18.82-3.7 26.53 5.73 7.36 17.51 8.19 24.53 2.23 2.67 2.54 5.26 5.16 7.9 7.74-6.64 5.42-15.52 8.35-24.06 6.67-13.59-2.02-24.66-14.91-24.06-28.74ZM164.38 15.36c3.67.08 7.33.07 10.99.05-.03 18.07-.04 36.14.01 54.21-3.67 0-7.33-.03-11 .06-.04-18.11-.04-36.21 0-54.32ZM188.68 15.21c3.51.23 7.04.19 10.57.06 6.52 11.38 12.34 23.2 19.27 34.32 6.19-11.47 12.45-22.91 18.79-34.29 3.54.08 7.08.07 10.62.01.36 18.05.01 36.11.08 54.15-3.7.04-7.4.02-11.1-.02-.08-10.55.16-21.1-.09-31.65-6.37 10.63-12.09 21.66-18.75 32.11-5.88-10.96-12.4-21.57-18.44-32.44-.1 10.69.1 21.39-.07 32.09-3.67-.12-7.35-.11-11.02-.01.09-18.11-.18-36.23.14-54.33ZM260.52 15.51c7.5-.17 15.01-.06 22.51-.08 5.76-.01 12.07 2.49 14.68 7.95 3.4 6.22 1.53 14.53-4.39 18.51 3.74 2.21 6.57 6.04 6.68 10.5v3.22c-.28 4.16-2.21 8.31-5.65 10.77-3.21 2.43-7.35 3.1-11.28 3.2-7.46.14-14.92-.12-22.37.14-.26-18.07.12-36.14-.18-54.21m11.23 9.79c-.08 3.94-.05 7.88-.03 11.83 4.33-.17 8.74.44 13.01-.53 4.98-1.51 4.62-9.98-.56-10.91-4.1-.68-8.29-.14-12.42-.39m-.02 21.75c-.01 4.23-.13 8.45.08 12.67 4.26-.32 8.55.14 12.8-.26 5.48-1.36 6.05-9.74.85-11.9-4.5-.89-9.16-.18-13.73-.51Z"/></g><path fill="#fff" d="M11.07 15.69c14.97.15 29.93.04 44.9.07 6.54 8.77 13.29 17.38 19.73 26.23-14.83-.27-29.68-.16-44.51-.05-6.94-8.57-13.26-17.61-20.12-26.25Z"/><path fill="#ed3024" d="M31.19 41.94c14.83-.11 29.68-.22 44.51.05l.29.01c-6.98 8.46-13.26 17.48-20.07 26.08-14.86.06-29.73-.01-44.59.02 6.59-8.74 13.12-17.53 19.86-26.16Z"/></svg>