<?xml version="1.0" encoding="UTF-8"?>
<!DOCTYPE svg PUBLIC "-//W3C//DTD SVG 1.1//EN" "http://www.w3.org/Graphics/SVG/1.1/DTD/svg11.dtd">
<svg xmlns="http://www.w3.org/2000/svg" version="1.1" width="183px" height="46px" style="shape-rendering:geometricPrecision; text-rendering:geometricPrecision; image-rendering:optimizeQuality; fill-rule:evenodd; clip-rule:evenodd" xmlns:xlink="http://www.w3.org/1999/xlink">
<g><path style="opacity:0.922" fill="#eb712d" d="M -0.5,-0.5 C 1.16667,-0.5 2.83333,-0.5 4.5,-0.5C 12.3809,1.61378 20.3809,3.61378 28.5,5.5C 28.5,8.16667 28.5,10.8333 28.5,13.5C 18.8333,13.5 9.16667,13.5 -0.5,13.5C -0.5,8.83333 -0.5,4.16667 -0.5,-0.5 Z"/></g>
<g><path style="opacity:0.924" fill="#fdbe2b" d="M 28.5,-0.5 C 29.5,-0.5 30.5,-0.5 31.5,-0.5C 41.5,3.83333 51.5,8.16667 61.5,12.5C 50.4268,10.488 39.4268,8.15469 28.5,5.5C 28.5,3.5 28.5,1.5 28.5,-0.5 Z"/></g>
<g><path style="opacity:0.875" fill="#ef9926" d="M 28.5,5.5 C 39.4268,8.15469 50.4268,10.488 61.5,12.5C 62.1667,12.5 62.8333,12.5 63.5,12.5C 63.5,12.8333 63.5,13.1667 63.5,13.5C 51.8333,13.5 40.1667,13.5 28.5,13.5C 28.5,10.8333 28.5,8.16667 28.5,5.5 Z"/></g>
<g><path style="opacity:0.953" fill="#eb722c" d="M 63.5,13.5 C 63.5,13.1667 63.5,12.8333 63.5,12.5C 87.5,12.5 111.5,12.5 135.5,12.5C 135.5,17.5 135.5,22.5 135.5,27.5C 134.5,27.5 133.5,27.5 132.5,27.5C 109.83,22.833 87.1638,18.1663 64.5,13.5C 64.1667,13.5 63.8333,13.5 63.5,13.5 Z"/></g>
<g><path style="opacity:0.967" fill="#ee9726" d="M 135.5,12.5 C 151.167,12.5 166.833,12.5 182.5,12.5C 182.5,21.1667 182.5,29.8333 182.5,38.5C 167.215,35.243 151.882,32.243 136.5,29.5C 135.167,28.8333 133.833,28.1667 132.5,27.5C 133.5,27.5 134.5,27.5 135.5,27.5C 135.5,22.5 135.5,17.5 135.5,12.5 Z"/></g>
<g><path style="opacity:0.938" fill="#fdbd2b" d="M 64.5,13.5 C 87.1638,18.1663 109.83,22.833 132.5,27.5C 133.833,28.1667 135.167,28.8333 136.5,29.5C 136.5,32.5 136.5,35.5 136.5,38.5C 112.287,30.5412 88.2872,22.2079 64.5,13.5 Z"/></g>
<g><path style="opacity:0.877" fill="#046148" d="M -0.5,25.5 C 12.1993,23.6994 17.0326,29.0328 14,41.5C 13.3103,43.3502 12.1436,44.6836 10.5,45.5C 6.83333,45.5 3.16667,45.5 -0.5,45.5C -0.5,38.8333 -0.5,32.1667 -0.5,25.5 Z M 4.5,29.5 C 8.54819,29.7243 10.2149,31.8909 9.5,36C 10.2149,40.1091 8.54819,42.2757 4.5,42.5C 4.5,38.1667 4.5,33.8333 4.5,29.5 Z"/></g>
<g><path style="opacity:0.819" fill="#046148" d="M 28.5,45.5 C 24.8333,45.5 21.1667,45.5 17.5,45.5C 15.6687,41.9474 16.3353,39.114 19.5,37C 16.0184,36.1873 15.6851,34.5206 18.5,32C 20,31.8333 21.5,31.6667 23,31.5C 24.9806,31.6292 26.6472,32.2958 28,33.5C 28.4988,37.4862 28.6655,41.4862 28.5,45.5 Z M 22.5,33.5 C 24.6246,34.3676 24.7913,35.3676 23,36.5C 21.3167,35.8235 21.1501,34.8235 22.5,33.5 Z M 21.5,39.5 C 23.3547,39.272 24.1881,39.9387 24,41.5C 21.3655,42.6922 20.5322,42.0256 21.5,39.5 Z"/></g>
<g><path style="opacity:0.852" fill="#046048" d="M 42.5,45.5 C 41.1667,45.5 39.8333,45.5 38.5,45.5C 38.5,41.8333 38.5,38.1667 38.5,34.5C 37.5,34.5 36.5,34.5 35.5,34.5C 35.5,38.1667 35.5,41.8333 35.5,45.5C 33.8333,45.5 32.1667,45.5 30.5,45.5C 30.5,40.8333 30.5,36.1667 30.5,31.5C 34.4367,31.2065 38.27,31.5399 42,32.5C 42.499,36.8206 42.6657,41.1539 42.5,45.5 Z"/></g>
<g><path style="opacity:0.822" fill="#046148" d="M 56.5,45.5 C 53.1667,45.5 49.8333,45.5 46.5,45.5C 43.454,41.8487 44.1206,39.0154 48.5,37C 47.552,36.5172 46.552,36.3505 45.5,36.5C 45.2965,34.6096 45.9632,33.1096 47.5,32C 50.1667,31.3333 52.8333,31.3333 55.5,32C 56.4667,36.4014 56.8,40.9014 56.5,45.5 Z M 50.5,33.5 C 52.6246,34.3676 52.7913,35.3676 51,36.5C 49.3167,35.8235 49.1501,34.8235 50.5,33.5 Z M 49.5,39.5 C 50.5,39.5 51.5,39.5 52.5,39.5C 52.5,40.5 52.5,41.5 52.5,42.5C 51.5,42.5 50.5,42.5 49.5,42.5C 49.5,41.5 49.5,40.5 49.5,39.5 Z"/></g>
<g><path style="opacity:0.817" fill="#046148" d="M 78.5,45.5 C 77.1667,45.5 75.8333,45.5 74.5,45.5C 74.5,41.8333 74.5,38.1667 74.5,34.5C 73.5,34.5 72.5,34.5 71.5,34.5C 71.5,38.1667 71.5,41.8333 71.5,45.5C 69.8333,45.5 68.1667,45.5 66.5,45.5C 66.5,41.8333 66.5,38.1667 66.5,34.5C 65.5,34.5 64.5,34.5 63.5,34.5C 63.5,38.1667 63.5,41.8333 63.5,45.5C 61.8333,45.5 60.1667,45.5 58.5,45.5C 58.5,40.8333 58.5,36.1667 58.5,31.5C 64.9963,31.7452 71.3296,31.9119 77.5,32C 78.4667,36.4014 78.8,40.9014 78.5,45.5 Z"/></g>
<g><path style="opacity:0.828" fill="#046148" d="M 90.5,45.5 C 88.1667,45.5 85.8333,45.5 83.5,45.5C 79.5413,40.9985 79.5413,36.4985 83.5,32C 92.5093,30.0131 95.676,33.5131 93,42.5C 92.3021,43.6906 91.4687,44.6906 90.5,45.5 Z M 86.5,33.5 C 89.3516,35.5725 90.0182,38.2392 88.5,41.5C 87.675,42.3857 86.675,42.719 85.5,42.5C 85.2641,39.3915 85.5975,36.3915 86.5,33.5 Z"/></g>
<g><path style="opacity:0.864" fill="#046148" d="M 107.5,45.5 C 105.833,45.5 104.167,45.5 102.5,45.5C 102.823,41.774 102.489,38.1073 101.5,34.5C 100.914,34.7093 100.414,35.0426 100,35.5C 99.5017,38.8168 99.335,42.1501 99.5,45.5C 98.1667,45.5 96.8333,45.5 95.5,45.5C 95.5,40.8333 95.5,36.1667 95.5,31.5C 99.2711,31.6957 103.104,32.029 107,32.5C 107.499,36.8206 107.666,41.1539 107.5,45.5 Z"/></g>
</svg>
