<svg width="400" height="116" viewBox="0 0 300 87" xmlns="http://www.w3.org/2000/svg"><path fill="#ffb700" d="M231.25 0h2.36c3.61.54 7.3 1.78 9.86 4.5 2.77 2.95 4.99 6.38 7.83 9.27 2.85 2.93 7.41 3.7 11.26 2.64 7.28-2.4 13.08-7.91 20.37-10.28 3.02-1.18 6.42.04 8.57 2.32 3.1 3.25 5.83 6.85 8.5 10.47v.04c-8.5 4.77-16.9 9.72-25.4 14.5-2.87 1.69-6.58 2.45-9.54.53-5.69-3.62-8.08-10.84-14.3-13.84-7.1-3.73-15.6-1.4-22.2 2.31-7.45 4.22-14.79 8.61-22.26 12.78-3.11 1.71-7.54 2.53-10.3-.25-4.47-4.8-7.89-11.01-14.1-13.84-6.68-2.99-14.26-.74-20.47 2.35-7.69 4.22-15.22 8.76-22.85 13.08-3.06 1.84-6.88 2.22-10.21.92-5.69-1.91-8.29-7.8-12.32-11.77 12.26-6.96 24.49-13.97 36.76-20.9 6.05-3.28 14.08-4.68 20.19-.82 4.52 3.14 6.91 8.39 10.97 12.01 3.75 3.1 9.51 3.11 13.59.61 7.67-4.41 15.37-8.79 23.05-13.19C223.87 1.56 227.49.3 231.25 0Z"/><g fill="#003a70"><path d="M164.89 33.61c3.18-.01 6.37-.01 9.56-.04.16 17.58-.3 35.17.29 52.74-2.84 0-5.67-.02-8.51-.03-.13-1.95-.26-3.9-.38-5.85-2.44 3.37-5.9 6-10.12 6.57h-4.48c-5.92-.78-10.81-5.35-12.68-10.92-2.2-6.51-1.86-14.09 1.61-20.1 3.27-5.79 10.29-9.25 16.87-7.93 3.24.42 5.84 2.54 8.07 4.77-.43-6.4-.16-12.81-.23-19.21m-11.42 22.03c-7.09 2.96-7.95 12.72-5.07 18.96 2.46 5.76 11.32 6.71 14.76 1.37 2.6-3.81 1.63-8.73 1.63-13.06-.25-5.35-6.3-9.34-11.32-7.27ZM8.58 54.33C11.05 51.41 14 48.5 17.97 48c5.35-1.21 11.04 1.76 13.09 6.83 3.43-5.37 10.38-8.67 16.59-6.3 5.85 2.05 8.44 8.67 8.28 14.46-.04 7.77.19 15.54.04 23.31-3.09 0-6.17 0-9.26.01-.08-7.42.11-14.85-.07-22.27-.06-3.29-1.24-7.2-4.74-8.27-4.47-1.41-9.01 2.77-9.01 7.21-.27 7.76-.02 15.53-.09 23.29-3.09.02-6.18.04-9.27.05-.08-7.73.13-15.46-.08-23.18.02-3.34-1.87-7.1-5.49-7.58-4.66-.63-8.43 4.05-8.29 8.44-.16 7.46.14 14.93-.13 22.39-3.18-.08-6.36-.11-9.54-.12V48.69c2.76 0 5.52-.01 8.27-.02.11 1.89.22 3.77.31 5.66ZM63.03 51.07c6.38-3.11 14.04-4.49 20.86-2.05 5.35 1.87 8.25 7.6 8.38 13.01.26 8.1-.26 16.21.42 24.3-2.79-.02-5.58-.04-8.37-.05-.26-1.45-.52-2.9-.76-4.35-2.33 2.6-5.36 4.49-8.84 5.07h-4.45c-2.84-.44-5.62-1.72-7.44-4.01-4.1-4.93-2.96-13.15 2.23-16.87 5.1-3.83 11.73-4.25 17.87-4.41-.29-2.39-.87-5.1-3.28-6.23-4.85-2-10.31-.45-14.8 1.8-.61-2.07-1.2-4.15-1.82-6.21m6.71 23.92c-.28 5.67 7.4 6.89 10.76 3.43 3.33-2.52 2.25-7.07 2.41-10.66-4.97.11-12.95.69-13.17 7.23ZM107.42 54.3c4.42-6.62 14.52-8.89 20.73-3.47 3.51 2.96 4.79 7.71 4.87 12.14.18 7.77.01 15.55.07 23.32-3.19 0-6.38 0-9.57.04-.05-7.43.07-14.86-.05-22.29-.02-3.19-1.25-6.89-4.53-8.06-4.69-1.93-10.23 2.15-10.39 7.07-.16 7.75.01 15.52-.07 23.28-3.21-.04-6.42-.04-9.63-.03-.11-12.55.27-25.11-.28-37.65 2.81.03 5.63.04 8.45.06.12 1.86.26 3.72.4 5.59ZM210.4 50.34c2.46-1.56 5.46-1.68 8.28-1.83.04 2.8.06 5.59.06 8.38-4.97-1.2-10.73 1.7-11.34 7.09-.58 7.41-.1 14.88-.25 22.32-3.2-.01-6.39-.01-9.58.03-.12-12.55.27-25.11-.3-37.65 2.73.02 5.47.01 8.21-.08.18 2.52.28 5.04.29 7.56 1.3-2.09 2.4-4.54 4.63-5.82ZM181.14 48.72c3.21-.04 6.41-.06 9.62-.03.01 12.51-.05 25.02.03 37.54-3.21.09-6.43.11-9.64.02.03-12.51.04-25.02-.01-37.53ZM223.17 48.68c3.13.03 6.26.01 9.39-.1.2 12.61.27 25.23-.04 37.84-3.12-.13-6.24-.16-9.36-.13.01-12.53 0-25.07.01-37.61Z"/></g></svg>