<?xml version="1.0" encoding="UTF-8"?>
<svg version="1.1" viewBox="0 0 2048 1157" width="1280" height="1280" xmlns="http://www.w3.org/2000/svg">
<path transform="translate(153,305)" d="m0 0h127l1650 1v547l-2 1-1812 1-3-2-1-19v-495l1-33z" fill="#FCC204"/>
<path transform="translate(311,410)" d="m0 0 25 1 19 3 16 5 15 6 16 8 14 9 14 11 12 11 7 8 8 11 12 21 8 19 6 19 3 18 1 16v20l-2 18-7 24-11 24-10 16-10 13-12 13-11 9-18 12-23 12-20 7-25 5-9 1h-25l-20-3-14-3-18-6-17-7-18-10-10-8-8-7-12-11-11-14-10-16-10-19-8-24-3-17-1-13v-30l3-20 6-20 9-22 5-8 7-11 11-13 18-18 9-7 14-9 17-9 21-8 21-5z" fill="#FCC204"/>
<path transform="translate(626,476)" d="m0 0h6l6 14 15 43 9 26 13 36 3 4 17-51 12-35 10-27 4-7 2-1 44-1h18l2 6 17 117 9 61 3 13v7l-3 1h-46l-6-2-2-11-6-53-5-34-2-26-1-7-2 1-11 28-9 25-12 36-8 21-6 17-4 5-3 1h-24l-8-3-5-10-9-26-10-28-12-34-10-27-1-6h-3l-2 22-3 26-6 44-4 39-3 2h-48l-3-1v-12l7-39 9-68 9-60 4-21 1-2 4-1 40-1z" fill="#070303"/>
<path transform="translate(1233,460)" d="m0 0h8l1 1v23l-1 32-1 15 22-2h24l15 3 12 5 9 5 10 9 8 11 7 16 4 16 1 11-2 12-5 20-6 12-7 9-6 7-13 9-11 5-13 4-26 2h-17l-21-1-34-5-6-2-1-3v-186l1-25 1-1 13-1z" fill="#070303"/>
<path transform="translate(1764,460)" d="m0 0h9l1 1 1 132 3-3 13-19 10-12 8-10 9-9 7-8 3-1 59-2 1 3-7 11-9 10-8 8-7 9-12 14-8 9-4 3 1 6 10 14 24 32 14 18 10 14v2l-11 1h-22l-24-1-7-2-12-16-12-15-10-14-8-13-6-7-4-4-1 5-1 66h-56l-1-10v-159l1-49 2-2z" fill="#070303"/>
<path transform="translate(1426,525)" d="m0 0h22l23 3 13 3 10 5 11 10 7 11 3 11 1 9v88l-1 12-5 3-24 3-9 1-24 1h-18l-23-1-15-3-17-7-10-8-7-8-4-8-2-7v-14l3-10 6-11 7-6 16-8 17-5 30-5 25-2-1-10-3-6-5-3-14-2h-19l-21 3-14 4h-7l-8-26 2-5 11-4 29-6z" fill="#070303"/>
<path transform="translate(899,525)" d="m0 0 24 1 23 4 14 6 7 7 6 9 6 15 1 4 1 14v87l-3 5-6 3-13 2-15 2-19 1h-32l-16-1-14-3-18-7-8-5-7-7-7-14-2-12v-9l3-9 9-10 12-9 15-7 21-5 21-3 25-2-1-8-3-9-11-3-21-2-19 2-26 7-3-3-8-19-2-5 1-4 5-3 26-6 21-3z" fill="#070303"/>
<path transform="translate(1169,529)" d="m0 0h6l-1 6-12 25-10 21-13 29-36 80-12 26-10 22-3 3-10 2h-49l3-10 8-15 10-23 4-11v-8l-8-16-10-21-18-41-14-29-7-15-9-19v-2l3-1 40-2h18l7 18 10 29 9 25 7 24 2 9 2-3 6-17 14-37 13-37 3-8 2-2 43-1z" fill="#070303"/>
<path transform="translate(1598,525)" d="m0 0h20l24 2 16 3 12 5 13 9 11 12 3 7 1 11v107l-7 2h-21l-30-1-1-85-1-24-1-3-13-5-14-2h-14l-1 2v116l-1 1h-53l-5-1-1-139 4-4 9-4 21-5 18-3z" fill="#070303"/>
<path transform="translate(311,410)" d="m0 0 25 1 19 3 16 5 15 6 16 8 14 9 14 11 12 11 7 8 8 11 12 21 8 19 6 19 3 18 1 16v20l-2 18-7 24-11 24-10 16-10 13-12 13-11 9-18 12-23 12-20 7-25 5-9 1h-25l-20-3-14-3-18-6-17-7-18-10-10-8-8-7-12-11-11-14-10-16-10-19-8-24-3-17-1-13v-30l3-20 6-20 9-22 5-8 7-11 11-13 18-18 9-7 14-9 17-9 21-8 21-5zm-8 13-20 3-16 4-21 9-18 10-12 9-12 11-9 9-10 13-10 17-10 23-5 20-2 19v19l3 25 10 30 11 21 12 17 10 11 11 9 10 8 9 6 24 11 21 6 16 3 21 2 16-1 20-4 19-6 14-6 16-10 14-10 10-9 13-14 11-16 7-11 9-21 6-26 1-7v-30l-3-18-6-20-9-21-8-14-9-14-9-10-5-5-11-9-11-8-16-9-16-7-23-7-11-2z" fill="#0B0503"/>
<path transform="translate(383,536)" d="m0 0h6l8 7 7 9 5 10-1 7-4 2-4 7 1 10 2 14v19l-5 8-4 5-1 3-2 17-3 9-2 7-1 9 4-1 5-2 2-4 7-11 8-16 3-11 1-10v-19l-1-10v-23l2-3 5-2 4 9 4 21 2 19 3-3 5-12 2-9 1-12v-24l-2-16 9 6 3 9 2 19v14l-3 19-5 18-11 25-10 15-8 10-5 4-5 5-16 11-14 8-15 8-3 1h-10l-1-5 4-8 7-10 4-7 2-7-9 1-12 6-14 2-4-2-1-5 4-6 5-6 2-12v-6l-2-4h-11l-9 6-4 5-5 11-3 13-3 4-3 1h-12l-16-4-11-8-4-7-4-9-1-10 3 2 9-4 6-7 8-11 6-12v-7l-3-1h-15l-7 3-6 5-5 10-2 6h-8l-10-4-10-5-6-5v-2l-4-2-7-9-6-10v-2l-3-1-7-11v-7l8-5 3-1h7l13 5 1 4-5 9-2 2v8l1 7 6 8 8 5 6 2h7l8-9 8-5v-6l-6-2-9 1-6 1-3-3v-8l4-6 5 1 15 5 5 1 2 4 4 2 18 3h8l2 2 5 2 11 11 3 6-1 9-3 5-6 3h-2l-2 4-11 10-10 5-10 3-4 2 2 6 10 8 8 2h6l8-6 5-15 8-11 1-2 10-5 4-1h12l5 3 5 1 3 8v20l7 1 16-12 5-5 3-11v-8l-2-11v-7l4-4 10 1 2-3-1-11-3-10-7-12-2-9 8-9-2-12z" fill="#080403"/>
<path transform="translate(327,436)" d="m0 0h8l10 4 14 10 20 20 16 8 11 6 5 4 4 19 7 20 1 5v10l-5 1-11-14-11-12-3-3-5 1-6 5-8 2h-5l-7-9-1-3v-18l-3-14-5-10-8-12-5-5-7-3-6 12-4 11-5 5-3 1-2-1v-2h-11l-7 4-3 14-2 1h-8l-2-2 1-5-10 4-11 6-8 8-9 11-12 12-16 12-10 9-6 3-4 3h-2l2-6 7-11 12-12 8-7 9-9 9-12 11-9 12-7 15-6 8-2 3-10 6-6h7l7 4v2h4l13-26z" fill="#080403"/>
<path transform="translate(192,565)" d="m0 0h7l13 5 1 4-5 9-2 2v8l1 7 6 8 8 5 6 2h7l8-9 8-5v-6l-6-2-9 1-6 1-3-3v-8l4-6 5 1 15 5 5 1 2 4 4 2 18 3h8l2 2 5 2 11 11 3 6-1 9-3 5-6 3h-2l-2 4-11 10-10 5-10 3-4 2 2 6 10 8 8 2h6l8-6 5-15 8-11 1-2 10-5 4-1h12l5 3 5 1 3 8v20l7 1 8-6 2 1-10 9-9-1-15 6 1 7 15-1v-2h5l-4 3-13 3-6-1-2-3 1-5 8-10 2-12v-6l-2-4h-11l-9 6-4 5-5 11-3 13-3 4-3 1h-12l-16-4-11-8-4-7-4-9-1-10 3 2 9-4 6-7 8-11 6-12v-7l-3-1h-15l-7 3-6 5-5 10-2 6h-8l-10-4-10-5-6-5v-2l-4-2-7-9-6-10v-2l-3-1-7-11v-7l8-5z" fill="#3A1D05"/>
<path transform="translate(161,542)" d="m0 0 1 4-2 12-1 12v19l3 25 10 30 11 21 12 17 9 10 11 9 10 8 9 6 24 11 21 6 16 3 21 2 16-1 20-4 19-6 10-4 2 1-2 3 13-3v-2l13-7 10-7 5-5 5-4 3 1-1 4-4 4 4 2-12 9-18 11-21 10-15 5-25 5-9 1h-25l-20-3-14-3-18-6-17-7-18-10-10-8-8-7-12-11-11-14-10-16-3-5 1-2 5 8 8 12 2 1v-7l-3-5-2-5h-2l-3-3v-6l-2-4-5-5v-3h-2l-2-11-1-9v-3l-2-34v-14l2-6 3-21z" fill="#1C0B05"/>
<path transform="translate(1244,563)" d="m0 0h23l8 3 9 8 7 11 3 9 1 13-3 15-4 10-8 10-10 6-15 3-10-1-3-2-2-15v-40l1-26 1-3z" fill="#FCC204"/>
<path transform="translate(315,480)" d="m0 0h2l5 13-1 6-11 8-5 6-2 6-9 13-6 13-1 7h8l6-4 4-11 4-13 4-6 8-5 9 2 2 3-5 5-3 4-6 11-4 10 1 16 2 3 4 20v6l-4 5-5-1-4-7-1-12-3-7-3-2h-7v13l-1 6-3-1v-2l-5-2-4-2-20-2-8-6-5-6v-4h-2l1-7 2-3 7 1 4 6 9 3h12l3-3 2-8-2 1-11-1-2-1 1-5 9-14 2-7-1-2-4 2-13 10-6-1-1-1v-11l6-9 3-2 12 1 9 1 7-8 5-8 5-5 6-8 3-1z" fill="#3A1D05"/>
<path transform="translate(327,436)" d="m0 0h8l10 4 14 10 17 17h-3l-2-1v-2l-3-1v-2l-9 3-4-2-1 4-1 2-8-12-5-5-7-3-6 12-4 11-5 5-3 1-2-1v-2h-11l-7 4-3 14-2 1h-8l-2-2 1-5-10 4-11 6-8 8-9 11-12 12-16 12-10 9-6 3-4 3h-2l2-6 7-11 12-12 8-7 9-9 9-12 11-9 12-7 15-6 8-2 3-10 6-6h7l7 4v2h4l13-26z" fill="#2E1205"/>
<path transform="translate(383,536)" d="m0 0h6l8 7 7 9 5 10-1 7-4 2-4 7 1 10 2 14v19l-5 8-4 5-1 3-2 17-3 9-2 7-1 9 4-1 5-2 2-4v3l-4 5-4 2h-5l-1-7 4-15v-6l-1-1-9-1-9 5-4 2 4-5 6-4 4-13v-8l-2-11v-7l4-4 10 1 2-3-1-11-3-10-7-12-2-9 8-9-2-12z" fill="#3A1D05"/>
<path transform="translate(920,612)" d="m0 0 8 1 1 2v29l-4 8-7 2h-20l-14-4-8-7-2-4v-11l6-7 6-4 11-3z" fill="#FCC204"/>
<path transform="translate(347,518)" d="m0 0 6 1 4 8 2 17v25l-5 4-4 2v8l7 18 1 4v12l-4 8h-6l-3-4-8-16-6-16-1-9 2-11 4-13 4-11 3-12 1-11z" fill="#0A0403"/>
<path transform="translate(1449,613)" d="m0 0h13l1 2v30l-3 6-4 2-7 1-21-1-11-3-7-8-1-3v-9l3-6 7-6 8-3z" fill="#FCC204"/>
<path transform="translate(161,542)" d="m0 0 1 4-2 12-1 12v19l3 25 10 30 11 21 12 17 9 10 11 9 10 8 9 6 24 11v1l-8-1-4-2v-2l-8-2-10-4-8 1 3 5 11 6 7 2v2l7 1v2l5 1 15 5 23 5 19 2h11l27-3 19-5 8-1-3 2-14 4-20 4-9 1h-25l-20-3-14-3-18-6-17-7-18-10-10-8-8-7-12-11-11-14-10-16-3-5 1-2 5 8 8 12 2 1v-7l-3-5-2-5h-2l-3-3v-6l-2-4-5-5v-3h-2l-2-11-1-9v-3l-2-34v-14l2-6 3-21z" fill="#1D0C05"/>
<path transform="translate(1176,530)" d="m0 0h3l1 2 2 1-1 2h2v9l-1 7h-1l-2 17v5l1-10 2 1 1 10-1 45-2-1-1-5-1-9-1 5h-1v-36l1-16-1-7h-2l-2 5-3 9-6 16-4 7-1-2h-2l-6 15-4 7-9 17-6 15-7 12-2 9-3 5-4 8-2 9-11 25-14 28-2 3h-2l-1 3-4 1 6-15 16-34 18-41 13-28 26-58 13-26 1-3h3z" fill="#FED004"/>
<path transform="translate(444,637)" d="m0 0h5l1 9 6-2-2 6-5 5-4 6-2 6-8 11-7 2-3-1 2-3-8 3-2 3h-2l-1 4 7-3 2-1-1 5-4 4 1 5-5 6-19 13-16 9-8 3-13 2 5-5 12-5h2v-2h2l1-4 4-3 5 1 2-2h3l-4-1-2-3-15 7-10 4-7 2-5-1v-2l13-4 7-4 9-4 6-4 8-5 7-4 3-1 1-3 8-5 4-5 5-5 6-7 4-7 4-4z" fill="#FED304"/>
<path transform="translate(172,510)" d="m0 0h2l-3 9-5 12-3 11-2 1-3 21-2 8v17l2 26-1 5 2 6 1 10v5h2l3 6 4 4 1 4 1 5h3l2 2h-2l4 6 2 4-1 7-4-2-8-13-3-5-3-3-7-15-6-19-3-17-1-13v-30l3-20 2-4-1 19v8l2 2 2-2 2-8 2-5 2-9 3-6 2-8 3-7v-7l3-1 1-2z" fill="#1C0B05"/>
<path transform="translate(192,565)" d="m0 0h7l13 5 1 4-5 9-2 2v8l1 7 6 8 8 5 6 2h7l2-1v2l4-3 4 1h2l2-1-2 5-3 10-1 1h-8l-10-4-10-5-6-5v-2l-4-2-7-9-6-10v-2l-3-1-7-11v-7l8-5z" fill="#3B1E05"/>
<path transform="translate(321,632)" d="m0 0h12l5 3 5 1 3 8v20l7 1 8-6 2 1-10 9-9-1-15 6 1 7 15-1v-2h5l-4 3-13 3-6-1-2-3 1-5 8-10 2-12v-6l-2-4h-11l-9 6-4 5-5 11-3 13-3 4h-9l-3-4-1-5 5-5 3-4 4-13 8-11 1-2 10-5z" fill="#2B1105"/>
<path transform="translate(440,540)" d="m0 0 9 6 3 9 2 19v14l-3 19-5 18-5 12-1-3 4-13 1-6-10 3h-5l-1-2-2-17-3-15-2 1-1 3-3 3-1 34-1 11-2 3 1-15v-19l-1-10v-23l2-3 5-2 4 9 4 21 2 19 3-3 5-12 2-9 1-12v-24z" fill="#3A1D05"/>
<path transform="translate(327,436)" d="m0 0h8l10 4 14 10 17 17h-3l-2-1v-2l-3-1v-2l-9 3-4-2-1 4-1 2-8-12-5-5-7-3-6 12-4 11-4 3-4-1-5-1-12 1-9 6-3-1 3-2 1-6v-8l5-5h7l7 4v2h4l13-26z" fill="#2C1105"/>
<path transform="translate(392,551)" d="m0 0 10 2 4 5 1 10-6 8-1 2 1 10 2 14v19l-2 4-6 4-2-4h-5l1-3 5-4 1-4-6 3-2 5h-7l-2-4h3l-1-10 11 1 3-8h2l-4-5-3-12-6-9-2-6v-4l5-3h2l1-7z" fill="#2E1305"/>
<path transform="translate(299,552)" d="m0 0 12 2 1 1 1 9 3 5 1 5v10h-6l-5-15-4-2-10-2v17l-14-4-17-2-3-2-1-5-2-1-1 2-2-4 3-1 1 1 3-4h9l1 1h12l4-2 2-7 9 1v-2z" fill="#1A0A05"/>
<path transform="translate(1593,519)" d="m0 0h20l37 4 14 4 19 10 6 5 8 10 1 5-4 1-9-11-10-8-14-7-12-3-16-2-15-1h-20l-17 2-26 5-13 4-5 3-3-1 4-3h2l1-3 7-4 12-4 19-4z" fill="#FED104"/>
<path transform="translate(315,480)" d="m0 0h2l5 13-1 6-11 8-5 6-2 6-9 13-2 4-4 4-2 4h-2l-2-5v-4l4-2-2-13 3-5 6-5 4-9 4-5 4-4 6-8 3-1z" fill="#1B0B04"/>
<path transform="translate(161,542)" d="m0 0 1 4-2 12-1 12v19l3 25 10 30 11 21 12 17 6 6-1 2-5-4-1 3v3h-2v-3l-4-2-8-11-3-8-3-4v-3h-3l-2-2v-6l-2-4-5-5v-3h-2l-2-11-1-9v-3l-2-34v-14l2-6 3-21z" fill="#2B1005"/>
<path transform="translate(1426,519)" d="m0 0h18l12 2 4 1 9 1 9 3 10 3 3 3 8 3 8 7 8 12v8l-1-3h-2l-6-10-8-9-9-6-12-4-19-3-10-1h-22l-26 4-25 6-4-1 6-4 12-4 21-4z" fill="#FED104"/>
<path transform="translate(275,596)" d="m0 0h7l14 4 9 9v7h2l-2 5-3 6h-6l-5-4-6-4-3-7-1-7-5-3-4-1 1-4z" fill="#080403"/>
<path transform="translate(249,553)" d="m0 0 7 1 4 6 2 2-4 2-2 3-4-1 2 3h4v5l9 2 16 2 8 3v-14l1-2 10 1 5 3 4 13v2h6l-1-11h2l3 14v6l-4 5-5-1-4-7-1-12-3-7-3-2h-7v13l-1 6-3-1v-2l-5-2-4-2-20-2-8-6-5-6v-4h-2l1-7z" fill="#3B1E05"/>
<path transform="translate(408,487)" d="m0 0 3 1 4 19 7 20 1 5v10l-5 1-11-14-11-12-3-3-5 1-6 5-8 2h-5l-5-6v-2h2l2 3h14l8-7h5l5 8 4 1 3-1v-2h3l1 6 4-2v-4l-3-1-2-4-2-10-3-4 2-4 3 1z" fill="#190A04"/>
<path transform="translate(321,632)" d="m0 0h12l5 3 5 1 3 8v20l7 1 8-6 2 1-10 9-9-1-15 6 1 7 15-1v-2h5l-4 3-13 3-6-1-2-3 1-5 8-10 2-12v-6l-2-4h-11l-9 6-5 5 1-4 7-8 6-2h13l-2-6-7 1-6-2z" fill="#391C05"/>
<path transform="translate(422,453)" d="m0 0 7 3 7 7 5 4 3 6 4 5 4 7 3 4-1 3-7-2 1 5 1 4-4-5-9-14-8-9-5-5-11-9-2-3 4 2 5 2 2-4z" fill="#1C0C04"/>
<path transform="translate(392,551)" d="m0 0 10 2 4 5 1 10-6 8-11 2-3 1-4-4-2-6v-4l5-3h2l1-7z" fill="#070303"/>
<path transform="translate(231,580)" d="m0 0 11 1 13 4 2 4 4 2 18 3h8l2 2 5 2 1 2-5-1-8-2h-9l-1 4 6 1v1h-20v-5h-5l-1-5-5-1-13-3-6-3 1-5z" fill="#2C1105"/>
<path transform="translate(985,554)" d="m0 0 4 2 11 23 10 21 5 12-1 6 6 12 1 3-5-2-8-15-4-10-5-11-7-20 2-4h-4l-6-8z" fill="#FED004"/>
<path transform="translate(383,536)" d="m0 0h6l8 7 7 9 5 10-1 7-2-1-1-10-3-4-10-2-3 6-1 4-5 3h-2l3 10 6 9 4 14h2v3h-2l-3 9-9-1-3-2 10 1 2-3-1-11-3-10-7-12-2-9 8-9-2-12z" fill="#3A1D05"/>
<path transform="translate(225,515)" d="m0 0v3l-10 10 6-1v-2h2v-3l3-2h5v2l5-1-5 6-16 12-10 9-6 3-4 3h-2l2-6 7-11 12-12 8-7z" fill="#391D05"/>
<path transform="translate(1437,579)" d="m0 0 11 1 7-1 5 2v1l-23 2-1 1-30 5-17 5-16 8-7 6-3 6h-2l-1-7 9-7 5-4 11-5 13-5 23-5z" fill="#FED004"/>
<path transform="translate(267,511)" d="m0 0 12 1v2l3 1v6l-5 3-4 5-8 6-6-1-1-1v-11l6-9z" fill="#1E0B05"/>
<path transform="translate(1822,532)" d="m0 0 1 3-12 13-8 9-10 13-10 14-6 9h-2l1-16 6-3 6-8h2l2-5 11-12 7-5 7-9z" fill="#FED004"/>
<path transform="translate(259,562)" d="m0 0h9l1 1h12l3-1v2h-2v3l-6 3 2 3 7 1 7 2v6l-14-4-17-2-3-2-1-5-2-1-1 2-2-4 3-1 1 1z" fill="#2A0F05"/>
<path transform="translate(338,470)" d="m0 0 5 2 6 7 2 7v6l-1 2h-3v2l-7-2-9-9-1-6 4-6z" fill="#3B1E05"/>
<path transform="translate(226,715)" d="m0 0 8 2 12 5 1 2 12 5 3 3-7 3-12-2-2-1v-2l-7-1-12-7-3-6z" fill="#080303"/>
<path transform="translate(302,524)" d="m0 0 4 1 1 7-2 9-4 8-6 4-8-1v-7l6-12 5-2v-3h2z" fill="#FCC304"/>
<path transform="translate(1794,639)" d="m0 0 5 2 14 18 8 10 3 4 2 7-6-1-10-13-1-3h-2l-6-8-5-6 1 4-2 1v-2l-5 1 1-9 1-4z" fill="#FED104"/>
<path transform="translate(225,443)" d="m0 0 3 1-5 2-1 3h-2v2l-5 3-4 5h-2l-1 3-8 5-2 6 2 1-6 7-3-1-3 3-5 3-3 4-2 7h-3l-1-3 6-12 13-13 5-6 4-1 2-4 6-5 5-3 4-4z" fill="#190A04"/>
<path transform="translate(280,627)" d="m0 0 4 1 4 2 1 3-7 11-9 1-3 3-5-1-1-6 4-8 6-5z" fill="#280E05"/>
<path transform="translate(322,645)" d="m0 0 1 4-2 4-2 7-2 1v8l-2 4-1 7-4 5-6 1-1-2 2-9 1-7 3-9 6-9 3-2h3z" fill="#FED304"/>
<path transform="translate(468,546)" d="m0 0h2l3 11v-8l3-1 2 5v44l-3-1-2 5-1 8-3 4 2-16v-30z" fill="#1D0C05"/>
<path transform="translate(268,412)" d="m0 0h3v2l-4 1v2l-19 7-17 8-18 11-8 7-5 4h-2l2-4 9-8h2l2-4 9-6 11-7 21-10z" fill="#FED004"/>
<path transform="translate(295,505)" d="m0 0v3l-6 7h-2l-2 8 2 10-3 1-1 2v3l1 5 2-1 4-7 1 2-3 7-1 7 4 1-4 2-2 7-1-2 2-8-2 1-11-1-2-1 1-5 9-14 2-7-1-2-6 2 3-4h3l-1-6-2-2h9z" fill="#3A1D05"/>
<path transform="translate(317,633)" d="m0 0h9l3 1h5l3 6-3 1h-11l-7 3-6 7-1 5-3 2h-3v-9l4-11z" fill="#2D1105"/>
<path transform="translate(823,620)" d="m0 0 1 4v13l3 15 4 7 6 4 8 7 8 4v2h5v2h6v2l22 2h64v1l-6 1-19 1h-32l-16-1-14-3-18-7-8-5-7-7-7-14-2-12v-9z" fill="#391D05"/>
<path transform="translate(284,420)" d="m0 0h44l6 2v1l-31 1-20 3-16 4-21 9-2-1 1-2h3l2-4 3-2 9-1 5-3 6-2 6-4z" fill="#251005"/>
<path transform="translate(1066,601)" d="m0 0 5 2 4 5 8 1-1 10-7 18-2-2-6-24-1-3z" fill="#FED004"/>
<path transform="translate(1895,848)" d="m0 0h16l15 5v1h-62l-5-1v-1l21-2 3-1z" fill="#FFD404"/>
<path transform="translate(207,712)" d="m0 0 5 2 8 6 14 8 7 2v2l7 1v2l5 1 15 5 23 5 19 2h11l27-3 19-5 8-1-3 2-14 4-20 4-9 1h-25l-20-3-14-3-18-6-17-7-18-10-10-8z" fill="#3B1E05"/>
<path transform="translate(1178,558)" d="m0 0h1v15l1-10 2 1 1 10-1 45-2-1-1-5-1-9-1 5h-1v-36l1-14z" fill="#FED304"/>
<path transform="translate(320,515)" d="m0 0 4 1 1 5-5 10-3 3h-3v2l-4 2h-3v-8l3-8 5-5z" fill="#1D0C05"/>
<path transform="translate(405,672)" d="m0 0 4 1-2 6h4l-2 4-9 6-11 7-13 8h-2v-2l12-8 2-8 8-3 4-1 3-8h2z" fill="#1D0C05"/>
<path transform="translate(393,607)" d="m0 0 7 2v8l-3 8-4 1-5-1 1-3 5-4 1-4-6 3-2 5h-7l-2-4h3l-1-10 11 1h2z" fill="#060303"/>
<path transform="translate(239,495)" d="m0 0h2l-2 4-9 12-14 14-9 6-5 4 1-5 7-6 6-7h2v-2l5-5 7-8 6-6z" fill="#FED004"/>
<path transform="translate(354,596)" d="m0 0 2 3 2 6v12l-4 8h-6l-3-4-8-16 1-2 7 12v2h4l1-5-2-1 1-5 2-2h3z" fill="#1E0B05"/>
<path transform="translate(347,518)" d="m0 0 6 1 4 8 2 17v25l-5 4-4 2v8l1 6-2-2-1-3v-12l6-3 1-1v-26l-1-17h-4v-3h-3l-2 11h-1v-11z" fill="#321705"/>
<path transform="translate(357,664)" d="m0 0v3l-3 4h-10l1 5 7 1v1h-7v2l-9 2h-6l-2-3v-5l5-3 11-4 9 1z" fill="#1C0B05"/>
<path transform="translate(304,471)" d="m0 0h10l2 2 5-1-1 3-5 2-2-1v-2h-11l-7 4-3 14-2 1h-8l-2-2 1-5-4-1 14-6 5-6z" fill="#3B1E05"/>
<path transform="translate(300,460)" d="m0 0 5 1v3h2v2h3l-2 5-12 3-7 5-3-1 3-2 1-6v-7l3-2 7 1z" fill="#190A05"/>
<path transform="translate(315,480)" d="m0 0h2l5 13-1 6-11 8-5 6-2 6-2 1 2-10h2v-2l4-4v-5l2-1v2l3-1 1-1-1-6h-8l2-4 3-4 3-1z" fill="#3B1E05"/>
<path transform="translate(377,608)" d="m0 0h3l2 6-1 5-3 1 9 2 1-5 4-3h3l-1 5-5 4-1 2h5l-3 2-3 1-3 4-5-1-1-9h-2l-1-4v-7z" fill="#1B0A05"/>
<path transform="translate(231,580)" d="m0 0 11 1 13 4v6l-8 1-13-3-6-3 1-5z" fill="#210D05"/>
<path transform="translate(243,498)" d="m0 0 1 3-6 8h2v2l-6 1 2 5v4l-5 1v-2l-8 2v3h-2v2l-7 2 6-7 5-5 3-5 9-11z" fill="#290F05"/>
<path transform="translate(1185,674)" d="m0 0 1 2 33 5 60 2v-2l15-2 8-1-3 2-10 3-26 2h-17l-21-1-34-5-6-2z" fill="#341905"/>
<path transform="translate(608,547)" d="m0 0 4 1-1 3v-2h-3l-2 22-3 26-6 44-2 18h-1v-16l1-4 1-14 1-1 3-24 3-29 2-16 2-7z" fill="#391C05"/>
<path transform="translate(327,436)" d="m0 0h8l10 4 3 2v3l-4 1-8-2v-2l-7 2-4 2v5l-2 2-3-1 2-8z" fill="#1F0D05"/>
<path transform="translate(386,634)" d="m0 0h4v10l-2 5v9l-2-4-1-1-11-1 4-8 3-1 2-7z" fill="#270E05"/>
<path transform="translate(391,426)" d="m0 0 9 2 5 2v2l5 1 9 6 8 7v2l4 1 2 5-4-1-17-13-21-12z" fill="#FECF04"/>
<path transform="translate(419,571)" d="m0 0 3 1 3 8 1 9-2-1v-4l-2 1-1 3-3 3-1 34-1 11-2 3 1-15 1-49z" fill="#230E05"/>
<path transform="translate(354,697)" d="m0 0 1 2v3l8 2h11l-2 2-13 6h-10l-1-5 4-8z" fill="#220E05"/>
<path transform="translate(161,542)" d="m0 0 1 4-2 12-1 12v19l3 25 9 27-1 3-4-9-4-13-3-9-1-4-2-30 2-23 2-13z" fill="#3A1D05"/>
<path transform="translate(420,567)" d="m0 0 3 3 3 9 4 24 1 13 3-1-1 3h-3l-1-2-2-17-3-19-3-8-3 1-1 6-1 26h-1l-1-10v-23l2-3z" fill="#391C05"/>
<path transform="translate(723,607)" d="m0 0h3l1 5-2 11-5 10-2 3h-2-3l6-18 3-10z" fill="#FFD404"/>
<path transform="translate(446,599)" d="m0 0h4l-1 10-3 12h-1v-6l-12 3 3-9h2l1-3 1 2 3-1z" fill="#2A0F05"/>
<path transform="translate(314,636)" d="m0 0h7l1 2-3 3-6 1v2h-2l-2 12-3 2h-3v-9l3-7z" fill="#1A0A05"/>
<path transform="translate(1835,593)" d="m0 0h3l-1 6 6 8 2 4 4 2 2 6-1 4-5-4-10-14-3-6 1-4z" fill="#FECF04"/>
<path transform="translate(1375,669)" d="m0 0 9 3 4 2v2l7 1v2l21 3 61 1v1l-24 1h-18l-23-1-15-3-17-7z" fill="#351905"/>
<path transform="translate(475,520)" d="m0 0 2 3 6 19 3 18 1 16v20l-2 18-2 4 1-13v-44l-2-8-3-17-4-12z" fill="#341905"/>
<path transform="translate(1824,673)" d="m0 0 3 2v2l10 2 52 2-2-7 4 4 1 4-11 1h-22l-24-1-7-2-4-5z" fill="#301505"/>
<path transform="translate(348,453)" d="m0 0 5 1 4 2 4 1h3l8 6 4 5-5-2v-2l-3-1v-2l-9 3-4-2-1 4-1 2-5-8-1-6z" fill="#1E0D05"/>
<path transform="translate(247,500)" d="m0 0 2 4h2l-2 4-12 13-2-4-1-5 6-1v-2h-2l2-4z" fill="#3B1E05"/>
<path transform="translate(1742,456)" d="m0 0h22v2l3 1-6 1-36 1v-2l9-2z" fill="#FFD404"/>
<path transform="translate(883,583)" d="m0 0h9l-1 2h-4v2l-20 4-14 5-6 1 3-3 14-7 7-2z" fill="#FECF04"/>
<path transform="translate(422,584)" d="m0 0h2l3 9 2 12v6l-2-4-2-3v-8l-2 1-1 4-5 1v-11l2-3h2z" fill="#1A0A05"/>
<path transform="translate(977,564)" d="m0 0 2 3 1 4 1 14v87h-1l-1-77-2-23z" fill="#3A1D05"/>
<path transform="translate(605,548)" d="m0 0 2 1-2 10-3 34-3 20h-1l1-25 2-15 1-16 2-8z" fill="#1D0B05"/>
<path transform="translate(1295,528)" d="m0 0 7 1 3 1v2l6 1 7 3 12 8 5 9-4-2-10-9-17-8-7-2v-2h-2z" fill="#FECE04"/>
<path transform="translate(350,420)" d="m0 0h6l1 2 5 3v2l10 5-3 1-23-7-11-2v-1l13-1z" fill="#210E05"/>
<path transform="translate(811,654)" d="m0 0h1l4 20v7l-3 1h-46l-6-2-1-8 2 3v4l19 1h31l1-4-2-11z" fill="#331805"/>
<path transform="translate(288,468)" d="m0 0h1v7l-2 2-13 5-4 3h-5l-3-3 13-6 11-3z" fill="#3B1E05"/>
<path transform="translate(671,579)" d="m0 0 11 2-1 7-3 8-4-1-3-12z" fill="#FED304"/>
<path transform="translate(163,652)" d="m0 0h4l3 10 1 3 3 1v2h2l3 6v5l-4-2-8-13-5-9z" fill="#060303"/>
<path transform="translate(202,691)" d="m0 0 6 4 10 9 16 11 24 11v1l-8-1-4-2v-2l-8-2-6-3v-2l-5-2-14-10-11-10z" fill="#2C1305"/>
<path transform="translate(875,558)" d="m0 0h28l10 1 8 4-2 1-14-3-18-1-19 3-8 1 1-2z" fill="#331905"/>
<path transform="translate(289,463)" d="m0 0h1l1 10-3 5 6-2-5 5-9 4h-3v2h-6v-4l5-3 11-4 1-1z" fill="#1D0B05"/>
<path transform="translate(435,456)" d="m0 0 5 2 10 10 6 8 4 5 1 6-4-2-6-9-9-11-7-7z" fill="#FECE04"/>
<path transform="translate(823,620)" d="m0 0 1 4v13l3 15 4 7 6 4 8 7 5 3-2 1-10-6-3-3-5-3-7-14-2-12v-9z" fill="#2B1305"/>
<path transform="translate(307,491)" d="m0 0h7l2 7-1 3-5-2v6l-3 3h-2v2h-2v5l-2-3v-5h2l1-5 4-5z" fill="#2A0F05"/>
<path transform="translate(1023,732)" d="m0 0 1 2-1 6 30 1h22v1l-7 1h-49l3-10z" fill="#391C05"/>
<path transform="translate(1279,638)" d="m0 0 2 1-4 5-10 5h-12l1-3 18-6z" fill="#FED104"/>
<path transform="translate(408,487)" d="m0 0 3 1 4 19 7 20 1 5v10l-5 1-4-5 1-2 6 3-1-11-7-19-2-7-2-12z" fill="#3A1D05"/>
<path transform="translate(390,510)" d="m0 0h5l5 8v3l-5-6-6-1-7 6-8 2h-5l-5-6v-2h2l2 3h14z" fill="#3A1D05"/>
<path transform="translate(355,599)" d="m0 0 2 2 1 4v12l-4 8h-6l-3-4-8-16 1-2 8 14 1 3 4-1 4-2z" fill="#3B1E05"/>
<path transform="translate(484,561)" d="m0 0h1v44l-2 16-2-4-1-6 2-6-1-3-3-3 2-2 3 1z" fill="#1B0A05"/>
<path transform="translate(472,567)" d="m0 0h1l1 18h3l1 4v8l-3-1-2 5-1 8-3 4 2-16z" fill="#271205"/>
<path transform="translate(270,662)" d="m0 0h2v2l4 1v2l5 1 12-6-1 6-2 2-9 2-11-3-1-6z" fill="#FED304"/>
<path transform="translate(271,594)" d="m0 0h16l2 2 5 2 1 2-5-1-8-2h-9l-1 4 6 1v1l-14-1 2-5h3v-2z" fill="#1D0C05"/>
<path transform="translate(1203,456)" d="m0 0h22l8 1v2l-24 1h-15l4-3z" fill="#FFD404"/>
<path transform="translate(285,524)" d="m0 0 2 4 3 1v2l4-1-2 6-4 4-2 4h-2l-2-5v-4l4-2z" fill="#2B0F05"/>
<path transform="translate(1424,524)" d="m0 0h31l11 2v1l-18-1h-22l-26 4-4-1 3-2 11-1 1-1z" fill="#FCC204"/>
<path transform="translate(322,522)" d="m0 0 1 4-6 8h-3v2l-4 2h-3v-8l2 2 4-1 2-4 5-3h2z" fill="#2A0F05"/>
<path transform="translate(464,649)" d="m0 0 1 2-2 8h-2l-2 6-4 8-6 2 2-6 5-8 4-2 1-5z" fill="#190A05"/>
<path transform="translate(1861,637)" d="m0 0h3v2h2l6 7 2 5v3h2v2h3l1 5-8-6-11-15z" fill="#FECF04"/>
<path transform="translate(172,510)" d="m0 0h2l-3 9-5 12-3 11h-1v-11l4-9v-7l3-1 1-2z" fill="#230F05"/>
<path transform="translate(300,460)" d="m0 0 5 1v3h2v2h3l-1 4-5-1v-2l-7-1-5 1-1-4 2-2 7 1z" fill="#060303"/>
<path transform="translate(407,493)" d="m0 0h4l2 12 4 11-1 4-1-4-3-1-2-4-2-10-3-4z" fill="#190A05"/>
<path transform="translate(331,455)" d="m0 0 2 1v2l3 1-2 1v5l-3 2 3 3-4 2-4-1v-4l2-9z" fill="#FFD404"/>
<path transform="translate(227,618)" d="m0 0 10 1 6-1-1 6-3 1-12-1-2-4z" fill="#2A0F06"/>
<path transform="translate(248,604)" d="m0 0h3v3h-2l-2 6-3 3-1-2-4 1-3 1 1-5 4-4z" fill="#260E05"/>
<path transform="translate(1052,560)" d="m0 0 3 3 3 7 4 8 1 11-2 1-9-26z" fill="#FFD404"/>
<path transform="translate(1023,734)" d="m0 0 2 4h8l1 1 32 1 6-1 6 1v1l-11 1h-14l-28-1-2-1z" fill="#1D0B05"/>
<path transform="translate(711,493)" d="m0 0 1 4-1 8-6 16-4 2 2-6 2-7 3-11z" fill="#FECF04"/>
<path transform="translate(275,515)" d="m0 0h5l1 6-5 5-4 2-4-1 2-4 3-2z" fill="#070303"/>
<path transform="translate(299,552)" d="m0 0 12 2 1 1v9h-2v-5l-19-3v-1h5v-2z" fill="#2A0F06"/>
<path transform="translate(1242,524)" d="m0 0 17 3 2 2-9 1-1 1h-10z" fill="#FED104"/>
<path transform="translate(1517,658)" d="m0 0 2 1 2 8v10l-1 3-5 1z" fill="#FFD404"/>
<path transform="translate(1780,553)" d="m0 0h2l1 4v11l-5 1v-5h-2l1-6z" fill="#FFD404"/>
<path transform="translate(295,457)" d="m0 0h7l7 4 3 6-1 3h-2l1-4h-3v-2h-2l-2-3-6 1-7 1z" fill="#261105"/>
<path transform="translate(1432,612)" d="m0 0h29v1l-27 2-11 2-6 2 4-4z" fill="#311705"/>
<path transform="translate(282,610)" d="m0 0 3 2 3 5 2 1v2l5 2 2 2h3l4-5 1-3h2l-2 5-3 6h-6l-5-4-6-4z" fill="#1F0B05"/>
<path transform="translate(900,611)" d="m0 0h26l2 2-20 1-19 2 3-2z" fill="#331805"/>
<path transform="translate(399,601)" d="m0 0 2 3v18l-3 5-3 2-2-3 4-2 2-9v-5l-6-3-1 2v-3h6z" fill="#190A05"/>
<path transform="translate(258,522)" d="m0 0 2 3v2l11 2-5 5-4 1-4-2z" fill="#3A1D05"/>
<path transform="translate(295,505)" d="m0 0v3l-6 7h-2l-3 12-2-4-6 2 3-4h3l-1-6-2-2h9z" fill="#381C05"/>
<path transform="translate(207,712)" d="m0 0 5 2 8 6 14 8 7 2v2l7 1-4 2-16-8-14-8-7-6z" fill="#371B05"/>
<path transform="translate(388,657)" d="m0 0 1 2-2 10-2 4v6l4-1 5-2 2-4v3l-4 5-4 2h-5l-1-7 5-17z" fill="#371B05"/>
<path transform="translate(351,701)" d="m0 0 1 2-2 4 15 1-3 3-3 1h-10l-1-5z" fill="#3B1E05"/>
<path transform="translate(705,657)" d="m0 0h2l-1 9-4 8-3 4v-10l2-5h2z" fill="#FED104"/>
<path transform="translate(237,582)" d="m0 0h8v2l3 1v2l2 1-4 2-6-2-4-3z" fill="#070303"/>
<path transform="translate(693,548)" d="m0 0h1l-1 9-4 11h-2l-1 2v-8l3-6z" fill="#FECF04"/>
<path transform="translate(389,509)" d="m0 0 4 1-5 3-6 5h-14l-2-3 5-1h12z" fill="#200C05"/>
<path transform="translate(624,596)" d="m0 0h4l2 13h-4l-3-6v-6z" fill="#FED204"/>
<path transform="translate(605,548)" d="m0 0 2 1-2 10-2 25h-1v-27l2-8z" fill="#210C05"/>
<path transform="translate(444,610)" d="m0 0 3 3-1 8h-1v-6l-12 3 1-5 4-2h5z" fill="#1C0B05"/>
<path transform="translate(392,551)" d="m0 0 10 2 4 5-1 2-4-3h-7-4l-1 3-1-2z" fill="#1A0A05"/>
<path transform="translate(401,725)" d="m0 0 3 1-17 9h-2l2-4 3-4z" fill="#2F1405"/>
<path transform="translate(304,471)" d="m0 0h10l2 2 5-1-1 3-5 2-2-1v-2h-11l-4 2-4-1 4-3z" fill="#381B05"/>
<path transform="translate(357,561)" d="m0 0h2v8l-5 4-4 2v8l1 6-2-2-1-3v-12l6-3 3-1z" fill="#361A05"/>
<path transform="translate(307,656)" d="m0 0 1 2-4 11-2 9-3 4-3-1 4-4 1-14 1-3 1 1z" fill="#3B1E05"/>
<path transform="translate(415,576)" d="m0 0 2 3-1 26h-1l-1-10v-18z" fill="#3B1E05"/>
<path transform="translate(229,529)" d="m0 0 3 1-4 2v2l-5 3-5 6-6 1 5-6z" fill="#FFD404"/>
<path transform="translate(289,463)" d="m0 0h1l1 10-3 5 6-2-5 5-6 1-1-2-2-1 8-4z" fill="#2B1005"/>
<path transform="translate(291,408)" d="m0 0 4 1 4 2-6 1h-9-3l-6 1-1-2 6-2z" fill="#FED104"/>
<path transform="translate(330,686)" d="m0 0h11v4l-1 1h-8l-3-2z" fill="#FFD404"/>
<path transform="translate(232,561)" d="m0 0 7 1v4l-3 3-4-1-2-3z" fill="#3B1E05"/>
<path transform="translate(253,431)" d="m0 0h7l-1 3-13 6-2-1 1-2h3l2-4z" fill="#1F0D05"/>
<path transform="translate(202,691)" d="m0 0 6 4 10 9 10 7-2 1-13-9-11-10z" fill="#311505"/>
<path transform="translate(818,626)" d="m0 0h2v15h-3l-1-2v-9z" fill="#FFD404"/>
<path transform="translate(417,520)" d="m0 0 2 3 2 5 1 11h-3l-3-2 3-2 1-3h-2l1-6-4 1-1-2z" fill="#2A0F06"/>
<path transform="translate(1353,630)" d="m0 0 2 1v10h-4-2l-1-8h3l1 1z" fill="#FFD404"/>
<path transform="translate(341,740)" d="m0 0h9l-2 4-7 1-7-1v-1h5v-2z" fill="#060303"/>
<path transform="translate(302,524)" d="m0 0 4 1v6l-2 1v-2l-4 1-3 3h-2l1-3h2v-3h2z" fill="#FFD404"/>
<path transform="translate(317,517)" d="m0 0h5v4l-1 2-8 2 1-4z" fill="#060303"/>
<path transform="translate(317,455)" d="m0 0 2 4v7h-2v2l-3-1v-2h-4l1-2h2z" fill="#3A1D05"/>
<path transform="translate(351,703)" d="m0 0h2v2l6-1 8 3v1h-15l-2-1z" fill="#2A0F05"/>
<path transform="translate(400,686)" d="m0 0 2 1-9 7-4 1 1-7z" fill="#311505"/>
<path transform="translate(309,575)" d="m0 0h3l1 5 4-2v6h-6l-2-5z" fill="#2A0F06"/>
<path transform="translate(168,659)" d="m0 0 5 2h3l-2 1 4 6 2 4-1 4-3-6v-2h-2l-6-8z" fill="#190A05"/>
<path transform="translate(629,612)" d="m0 0h2v2h2l2 9h-4l-2-3z" fill="#FFD404"/>
<path transform="translate(168,629)" d="m0 0 4 1 1 7 2 1-1 5-3-3-3-9z" fill="#FFD404"/>
<path transform="translate(681,591)" d="m0 0h1v9l-3 4h-3l-1-7 3 2z" fill="#2F1605"/>
<path transform="translate(1390,563)" d="m0 0h8l-4 2-10 3h-7v-3h8z" fill="#2D1405"/>
<path transform="translate(896,521)" d="m0 0 5 2v1l-19 2v-2l7-2z" fill="#FFD404"/>
<path transform="translate(831,660)" d="m0 0 5 2 9 8 5 3-2 1-10-6-7-7z" fill="#1C0B05"/>
<path transform="translate(401,521)" d="m0 0 6 2v2l3 1 2 8-11-11z" fill="#331705"/>
<path transform="translate(1180,481)" d="m0 0h1l1 13 1 4-2 10h-1z" fill="#FFD404"/>
<path transform="translate(1352,597)" d="m0 0 4 1 1 5-1 5h-3v-7z" fill="#FFD404"/>
<path transform="translate(258,586)" d="m0 0 15 3-2 2h-8l-5-3z" fill="#FFD404"/>
<path transform="translate(390,510)" d="m0 0h5l5 8v3l-5-6-6-1h-3z" fill="#361A05"/>
<path transform="translate(379,436)" d="m0 0h12v3 3l-6-2-6-3z" fill="#251005"/>
<path transform="translate(468,614)" d="m0 0h1v5l4 2-1 4-4-1-2 2z" fill="#241005"/>
<path transform="translate(194,571)" d="m0 0 4 2-1 6-5 2z" fill="#FCC304"/>
<path transform="translate(323,640)" d="m0 0m-3 1h3v2l-9 6-5 5 1-4 7-8z" fill="#3B1E05"/>
<path transform="translate(379,608)" d="m0 0 2 3 1 7-5 2v-7z" fill="#190A05"/>
<path transform="translate(977,564)" d="m0 0 2 3 1 4v14l-2-4z" fill="#321705"/>
<path transform="translate(387,560)" d="m0 0 1 2-5 3h-2l3 10 1 2-3-1-3-9 2-5z" fill="#2C1305"/>
<path transform="translate(1295,528)" d="m0 0 7 1 3 1v2h2v2l-10-2v-2h-2z" fill="#FECF04"/>
<path transform="translate(345,520)" d="m0 0 6 1 2 4h-3v-3h-3l-2 11h-1v-11z" fill="#291205"/>
<path transform="translate(267,511)" d="m0 0 12 1v1l-14 2-3 5h-2l2-5z" fill="#391C05"/>
<path transform="translate(540,673)" d="m0 0 2 4 4 2 19 1v1h-21l-4-2z" fill="#1F0C05"/>
<path transform="translate(1888,670)" d="m0 0 6 3 1 8h-2l-5-8z" fill="#FFD404"/>
<path transform="translate(1375,669)" d="m0 0 9 3 4 2v2l7 1v1h-6l-12-6z" fill="#301705"/>
<path transform="translate(821,655)" d="m0 0h2l1 4-3 1-2 3h-4v-2h2v-4z" fill="#FFD404"/>
<path transform="translate(400,614)" d="m0 0h1v8l-3 5-3 2-2-3 4-2z" fill="#220C05"/>
<path transform="translate(1164,526)" d="m0 0h6l2 2-12 1v1h-8l3-3z" fill="#FED304"/>
<path transform="translate(1280,526)" d="m0 0h11l3 1v2l-16-1z" fill="#FFD404"/>
<path transform="translate(251,652)" d="m0 0 3 1v2h3v5l-5-1-2-6z" fill="#2A0F06"/>
<path transform="translate(231,580)" d="m0 0 5 1-3 3 1 4-6-2 1-5z" fill="#2A0F06"/>
<path transform="translate(161,537)" d="m0 0h1v5l-1 1-2 9h-2v-7z" fill="#1A0A05"/>
<path transform="translate(166,526)" d="m0 0 1 2-4 14h-1v-11l2-4z" fill="#2B1305"/>
<path transform="translate(330,644)" d="m0 0 4 1 1 6h-4l-2-3z" fill="#FFD404"/>
<path transform="translate(305,616)" d="m0 0h2l-2 5-3 6h-6l-1-2 5-1 4-5z" fill="#230D05"/>
<path transform="translate(369,525)" d="m0 0h9l4 2-5 2-6-1-2-1z" fill="#FFD404"/>
<path transform="translate(417,579)" d="m0 0h1l1 10-1 2-1 14h-1v-17z" fill="#2A0F06"/>
<path transform="translate(422,584)" d="m0 0h2l1 8-2 1-3-1 1-7z" fill="#060303"/>
<path transform="translate(1100,562)" d="m0 0h1l-1 7-1 3h-2l-1 2v-7z" fill="#FECF04"/>
<path transform="translate(241,721)" d="m0 0 5 1 2 5-6-1-3-3h2z" fill="#150804"/>
<path transform="translate(397,576)" d="m0 0 2 1-4 3-8 1v-3z" fill="#1A0A05"/>
<path transform="translate(304,460)" d="m0 0 5 1 3 6-1 3h-2l1-4h-3v-2h-2z" fill="#1D0C05"/>
<path transform="translate(285,594)" d="m0 0 4 2 5 2 1 2-5-1-10-3v-1z" fill="#341905"/>
<path transform="translate(1308,532)" d="m0 0 7 2 2 5-6-2-4-2z" fill="#FDCC04"/>
<path transform="translate(412,505)" d="m0 0 2 4 3 7-1 4-1-4-3-1z" fill="#230D05"/>
<path transform="translate(316,641)" d="m0 0v3l-6 7-1-4 2-3h2v-2z" fill="#2A0F06"/>
<path transform="translate(377,608)" d="m0 0h2l-1 5-1 9-2-4v-7z" fill="#321605"/>
<path transform="translate(743,546)" d="m0 0h3l1 3v7l-2-4v-3l-2 1-2 5-1-3z" fill="#331805"/>
<path transform="translate(905,559)" d="m0 0h8l8 4-2 1-14-3z" fill="#371B05"/>
<path transform="translate(946,528)" d="m0 0 7 1 3 4-7-1-3-1z" fill="#FECE04"/>
<path transform="translate(340,455)" d="m0 0 4 1 3 4-1 3-2-1v-2h-3z" fill="#FFD404"/>
<path transform="translate(383,696)" d="m0 0 4 1-11 7h-2v-2z" fill="#2D1405"/>
<path transform="translate(813,646)" d="m0 0 4 2-1 5h-3l-1-5z" fill="#FFD404"/>
<path transform="translate(1451,579)" d="m0 0 7 1 2 2h-13l1-2z" fill="#FFD404"/>
<path transform="translate(288,555)" d="m0 0 5 3-2 4-4-2z" fill="#060303"/>
<path transform="translate(1104,550)" d="m0 0h1l-1 9-1 2h-2l1-9h2z" fill="#FECE04"/>
<path transform="translate(320,515)" d="m0 0 3 1-1 1h-5l-2 4-5 3 2-4 4-4z" fill="#291304"/>
<path transform="translate(332,673)" d="m0 0h3l-1 5-3 1-2-1 1-4z" fill="#060303"/>
<path transform="translate(328,666)" d="m0 0 2 1-7 9-1-3 3-6z" fill="#FFD404"/>
<path transform="translate(483,608)" d="m0 0h1l-1 13-2-4-1-6z" fill="#210D05"/>
<path transform="translate(1634,570)" d="m0 0 3 2 1 3v10h-1l-2-9z" fill="#FFD404"/>
<path transform="translate(392,551)" d="m0 0 10 2v3l-11-2z" fill="#2A0F06"/>
<path transform="translate(706,511)" d="m0 0h1l-1 8-4 4-1-2 3-5z" fill="#FDCD04"/>
</svg>
