<?xml version="1.0" encoding="UTF-8"?>
<svg version="1.1" viewBox="0 0 2048 1196" width="1280" height="1280" xmlns="http://www.w3.org/2000/svg">
<path transform="translate(591)" d="m0 0h327l7 11 14 31 16 36 13 29 16 36 13 29 12 27 11 26 2 5v6l-1 2h3l-1-2v-6l13-28 12-27 13-29 40-90 18-41 5-10h3l8 16 19 42 17 37 18 41 14 31 18 41 14 31 28 63 16 35 9 22v11l-19 43-16 36-17 38-13 29-12 27-15 34-13 28-11 18-13 16-12 13-12 10-16 11-23 12-16 6-19 5-19 3-11 1h-19l-24-3-17-4-22-8-19-10-16-11-14-12-13-13-11-14-9-14-8-15-13-28-76-171-9-21-4-9 1-9-5 13-9 19-13 29-13 30-15 33-32 72-13 29-44 99-11 24-3 3h-326l1-5 17-38 19-43 13-29 12-27 13-29 19-43 14-31 12-27 19-43 18-40 18-41 18-40 13-29 36-81 13-29 12-27 13-29 19-43 12-27zm323 9m-1 1 1 3zm-1 3 1 2zm-1 2-12 28 1 3 10-23 2-5zm-13 31-6 13 1 3 6-13zm-7 16-14 30-8 18 1 3 12-26 10-22zm-23 51-2 4 1 3 2-4zm-3 7-4 8 1 3 4-8zm-5 11-3 6 1 3 3-6zm-4 9-3 6 1 3 3-6zm-4 9-3 6 1 3 3-6zm-4 9-3 6 1 3 3-6zm-4 9-2 4 1 3 2-4zm-3 7-3 6 1 3 3-6zm-4 9 1 2zm-1 2-18 40 1 3 18-40zm-19 43-3 6 1 3 3-6zm-4 9 1 2zm-1 2-3 6 1 3 3-6zm207 1 1 2zm6 0 2 4-1-4zm-7 2-1 5 2-2zm9 2 1 2zm1 2 1 2zm-12 1 1 2zm-208 1-7 15 1 3 7-15zm221 0 1 2zm-14 1 1 2zm15 1 1 5 4 8 1-3-5-10zm-16 1-3 6 1 3 3-6zm-4 9 1 2zm-1 2-6 13 1 3 6-13zm27 1 1 5 16 34 1-3-13-28-4-8zm-236 3-3 6 1 3 3-6zm-4 9-2 4 1 3 2-4zm206 3-7 15 1 3 7-15zm-209 4 1 2zm-1 2-2 4 1 3 2-4zm-3 7 1 2zm-1 2-4 8 1 3 4-8zm206 3-3 6 1 3 3-6zm60 6 1 5 13 29 20 45 14 31 1-3-19-42-16-36-13-29zm-271 2 1 2zm207 1 1 2zm-208 1-3 6 1 3 3-6zm207 1-3 6 1 3 3-6zm-211 8-3 6 1 3 3-6zm207 1 1 2zm-1 2-3 6 1 3 3-6zm-210 6 1 2zm-1 2-2 4 1 3 2-4zm207 1-12 26 1 3 12-26zm-210 6 1 2zm-1 2-1 5 2-2zm-2 5 1 2zm-1 2 1 2zm-1 2-1 5 2-2zm-2 5 1 2zm-1 2-1 5 2-2zm-2 5 1 2zm207 0-7 15 1 3 7-15zm-208 2 1 3zm200 16-4 8 1 3 4-8zm-5 11-11 24 1 3 11-24zm-12 27-2 4 1 3 2-4zm161 0 1 5 6 13 1-3-7-15zm-164 7 1 2zm-1 2-3 6 1 3 3-6zm-4 9-4 8 1 3 4-8zm177 0 1 5 18 40 2 2-1-5-19-42zm-182 11-3 6 1 3 3-6zm-4 9-3 6 1 3 3-6zm-4 9-2 4 1 3 2-4zm-3 7-3 6 1 3 3-6zm-4 9-3 6 1 3 3-6zm218 2 1 5 2 2-1-5zm-222 7-4 8 1 3 4-8zm225 0 1 2zm1 2 1 5 2 2-1-5zm3 7 1 5 3 4-1-5zm-234 2-4 8 1 3 4-8zm238 7 1 5 3 4-1-5zm-243 4-3 6 1 3 3-6zm247 5 1 5 4 8 1-3-5-10zm-251 4-3 6 1 3 3-6zm-4 9-3 6 1 3 3-6zm261 0 1 5 3 6 1-3-4-8zm-265 9 1 2zm-1 2-2 4 1 3 2-4zm271 0 1 5 3 4-1-5zm-274 7-2 4 1 3 2-4zm278 2 1 5 5 11 1-3-6-13zm-281 5 1 2zm-1 2-2 4 1 3 2-4zm-3 7 1 2zm-1 2-2 4 1 3 2-4zm293 0 1 5 3 6 1-3-4-8zm-296 7-1 5 2-2zm301 4 1 5 4 8 1-3-5-10zm-303 1 1 2zm-1 2 1 2zm-1 2-1 5 2-2zm-2 5 1 2zm-1 2 1 2zm314 1 1 2zm-315 1m316 1 1 2zm-317 1m-1 1 1 2z" fill="#FEC817"/>
<path transform="translate(1127)" d="m0 0h328l9 19 9 21 14 31 16 36 19 43 14 31 32 72 13 29 19 43 18 40 60 135 13 29 16 36 13 29 12 27 13 29 16 36 11 24v4h-327l-8-16-19-42-18-41-18-40-32-72-17-38-12-27-18-41-11-24-12-29-15-33-44-99-13-29-19-43-14-31-12-27-16-35-14-32-6-11z" fill="#636465"/>
<path transform="translate(1125,4)" d="m0 0 4 4 8 17 16 36 18 39 18 41 14 31 18 41 14 31 28 63 16 35 9 22v11l-19 43-16 36-17 38-13 29-12 27-15 34-13 28-11 18-13 16-12 13-12 10-16 11-23 12-16 6-19 5-19 3-11 1h-19l-24-3-17-4-22-8-19-10-16-11-14-12-13-13-11-14-9-14-7-13v-6l5-8 5-13 17-38 16-36 18-40 12-27 17-38 13-29 16-36 18-40 24-54h3l-1-2v-6l13-28 12-27 13-29 40-90 18-41 5-10zm-100 236 2 4-1-4zm2 4 1 2zm1 2 1 2zm1 2 1 2zm1 2 1 5 4 8 1-3-5-10zm6 13 1 5 16 34 1-3-13-28-4-8zm18 39 1 5 13 29 20 45 14 31 1-3-19-42-16-36-13-29zm49 110 1 5 6 13 1-3-7-15zm8 18 1 5 18 40 2 2-1-5-19-42zm21 47 1 5 2 2-1-5zm3 7 1 2zm1 2 1 5 2 2-1-5zm3 7 1 5 3 4-1-5zm4 9 1 5 3 4-1-5zm4 9 1 5 4 8 1-3-5-10zm6 13 1 5 3 6 1-3-4-8zm5 11 1 5 3 4-1-5zm4 9 1 5 5 11 1-3-6-13zm7 16 1 5 3 6 1-3-4-8zm5 11 1 5 4 8 1-3-5-10zm6 13 1 2zm1 2 1 2z" fill="#EC7726"/>
<path transform="translate(920,5)" d="m0 0 4 4 15 33 16 36 13 29 16 36 13 29 12 27 11 26 2 5v6l-7 15-16 35-11 25-19 42-12 27-13 29-11 25-13 29-12 27-18 40-14 32-10 24-1 4-4 7-2 4-13-28-76-171-9-21-4-9 1-8 8-20 16-35 16-36 18-40 20-45 18-41 14-31 16-36 14-31 13-31 2-5 4-4zm-56 582m-1 1 1 2z" fill="#FC9E29"/>
<path transform="translate(1125,4)" d="m0 0 4 4 8 17 16 36 18 39 18 41 14 31 18 41 14 31 28 63 16 35 9 22v11l-19 43-16 36-17 38-13 29-12 27-15 34-7 15-4-2-1-5-2-1-7-16-20-45-16-35-14-32-17-38-32-72-18-40-16-36-15-31-4-8v-6l13-28 12-27 13-29 40-90 18-41 5-10z" fill="#9FA0A1"/>
<path transform="translate(1006,909)" d="m0 0h67l5 8 20 40 10 19 27 54h2l12-23 14-28 10-19 18-36 8-14 1-1h62l5 1 1 2v277l-1 1h-68l-1-1-1-136-8 13-11 20-14 24-8 12-7 6-5 2-11 1-10-3-9-9-9-15-12-21-14-25-3-4v-2h-2v138h-68l-1-1v-279z" fill="#636465"/>
<path transform="translate(1649,903)" d="m0 0h28l16 2 17 5 19 10 11 9 10 10 9 14 7 14 5 15 2 13-1 1h-68l-8-16-4-6-10-6-12-3h-11l-9 2-10 6-6 8-3 7-2 11-2 25v56l2 20 4 15 6 8 8 6 12 3h12l13-4 9-6 7-10 3-11 2-15h-41l-1-2v-55l1-1h109l1 1v38l-2 33-3 20-6 18-9 15-9 11-10 9-14 9-13 6-17 5-13 2h-27l-19-4-19-7-16-10-13-12-7-8-8-13-6-15-4-17-2-18-1-27v-36l1-24 3-21 4-15 6-14 9-13 9-10 9-8 13-8 12-6 14-4z" fill="#636465"/>
<path transform="translate(1326,909)" d="m0 0h190l1 1v51l-1 9h-121l-1 47h103l2 1v60l-2 1h-102v49h119l2 1 1 8v52l-1 1h-190l-1-3v-277z" fill="#646566"/>
<path transform="translate(1891,909)" d="m0 0h53l4 9 20 56 18 49 17 47 13 36 14 39 14 37 3 4v3l-2 1h-70l-4-10-9-30v-2l-90 1-2 10-7 20-2 9-2 2h-69l-1-5 8-20 11-31 20-55 17-47 21-58 20-55 4-9zm25 104-3 8-15 48-6 19v4h50l-2-9-12-39-10-30z" fill="#636465"/>
<path transform="translate(0,909)" d="m0 0h116l15 2 15 5 13 7 12 11 7 9 6 12 4 15 1 7v12l-3 15-5 12-9 13-7 7-10 6-6 2 18 12 10 9 9 14 5 14 2 12v15l-3 18-5 12-6 10-9 10-12 9-12 5-16 4-8 1-22 1h-100zm58 26-28 1v97h80l13-2 11-4 11-8 6-7 5-10 2-7v-22l-3-10-5-9-9-9-12-6-14-3-18-1zm-28 125v103h83l16-3 10-4 10-8 7-8 4-8 2-9 1-16-3-16-6-11-9-9-8-5-15-5-7-1z" fill="#646566"/>
<path transform="translate(475,908)" d="m0 0 26 1 6 5 10 16 22 33 29 44 29 43 12 19 13 19 29 43v-219l1-4 29 1 1 1v278l-3 2h-24l-5-5-16-23-17-26-36-54-56-85-17-25-4-5v222l-2 1h-27l-1-1-1-22v-73l1-185z" fill="#656667"/>
<path transform="translate(923,908)" d="m0 0h21v3l-10 12-8 10-13 16-9 11-10 12-11 14-11 13-12 15-2 5 8 13 17 29 16 27 15 26 13 22 14 24 16 27v2l-2 1h-30l-6-5-9-16-14-24-13-23-15-26-14-25-14-24-2-4h-4l-11 14-9 11-12 14-9 11-11 13-3 5-1 6-1 72-2 1h-26l-2-5v-276h29l1 1 1 158 10-11 18-22 13-16 8-10 9-11 13-16 11-14 12-14 11-14 9-11 9-10 8-10z" fill="#646566"/>
<path transform="translate(317,909)" d="m0 0h23l3 3 22 61 21 57 18 49 23 63 16 43v4h-31l-4-8-17-49-2-5-5-1-117 1-4 10-12 35-6 16-2 2h-28l-2-1 1-6 8-20 16-45 17-46 23-63 16-43 19-52 2-4zm11 44-9 24-13 37-17 48-12 33-2 5 30 1h57l18-1-3-11-20-58-17-48-10-29z" fill="#646566"/>
</svg>
