<svg width="400" height="103pt" viewBox="0 0 300 103" xmlns="http://www.w3.org/2000/svg"><g fill="#e70b1b"><path d="M25.43 7.91C38.62.64 54.9-1.18 69.12 4.06 80.14 7.7 89.51 15.67 95.45 25.57c7.09 11.39 8.89 25.7 5.73 38.66-4 16.28-16.55 30.13-32.4 35.62-18.06 6.64-39.73 1.85-53.1-12.05 21.18.09 42.36.21 63.54-.13-4.01-.94-8.14-.73-12.22-.88-15.36-.48-30.71-1.06-46.06-1.55-3-.11-6.04.08-9-.51 22.65-1.21 45.36-.15 68.04-.38.95-.06 1.88-.21 2.8-.45-24.61-1.73-49.3-2.09-73.93-3.45 9.04.02 18.07-.33 27.11-.36 9.61.04 19.54-1.27 28.04-6.01 7.27-4.09 12.37-11.8 13.22-20.1.78-8.26-2.85-16.73-9.25-21.98-6.73-5.67-16.47-7.07-24.74-4.32-5.89-6.63-11.84-13.2-17.8-19.77Z"/><path d="M10.59 21.69c3.35-4.79 7.73-8.71 12.4-12.18 5.99 6.35 12.1 12.58 18.29 18.75-3.56 1.88-6.93 4.2-9.43 7.4-7.02-4.76-14.2-9.27-21.26-13.97ZM2.12 39.91c1.16-5.77 3.66-11.18 6.76-16.16 7.15 4.55 14.48 8.81 21.66 13.31-2.27 3.68-3.84 7.75-4.36 12.06-8-3.13-16.01-6.24-24.06-9.21ZM35 37.87c2.52-2.91 5.75-5.02 9.17-6.73 3.71 3.67 7.38 7.4 11.09 11.08.04 2.99.04 5.99.04 8.98-6.76-4.45-13.49-8.94-20.3-13.33ZM132.9 32.87c7.84-.66 16.58 1.08 22.15 7.03 8.79 10.09 8.43 26.88-.23 36.96-5.61 6.41-14.44 9.42-22.83 8.81-8.31-.07-17.15-4.12-20.66-12.02-3.98-9.07-3.94-20.33 1.39-28.85 4.33-6.92 12.12-11.22 20.18-11.93m-1.69 11.18c-5.12 1.55-8.58 6.63-8.98 11.84-.44 5.5-.16 11.81 3.88 16.02 5.43 4.93 15.37 3.8 19.24-2.58 2.61-3.93 2.74-8.87 2.36-13.42-.28-3.73-1.79-7.53-4.76-9.93-3.26-2.58-7.82-2.98-11.74-1.93ZM176.54 38.6c8.42-5.97 19.56-5.92 29.29-3.97-.44 3.65-.96 7.29-1.48 10.93-4.54-1.53-9.49-1.84-14.2-1.05-5.35 1.12-9.08 6.19-9.53 11.49-.56 5.5-.09 12.09 4.5 15.87 5.6 4.21 13.21 3.01 19.49 1.21.52 3.43.94 6.88 1.6 10.3-9.21 2.8-19.75 3.32-28.54-1.07-7.47-3.72-11.18-12.3-11.16-20.33-.39-8.73 2.7-18.14 10.03-23.38ZM214.4 84.73c.03-17.02-.01-34.05.02-51.07 7.19-.12 14.39-.21 21.58-.13 4.96.12 10.33.97 14.15 4.4 4.09 3.57 4.77 10.32 1.57 14.68-1.37 2.22-3.72 3.46-5.81 4.89 2.34 1.02 4.85 2.1 6.36 4.29 3.68 4.52 2.99 11.46-.62 15.82-3.95 4.94-10.47 6.93-16.58 7.2-6.89.28-13.78-.23-20.67-.08m13.07-41.96c-.18 3.83-.11 7.67-.11 11.5 3.85-.1 8.4.45 11.47-2.38 2.35-2.2 1.91-6.38-.98-7.88-3.31-1.23-6.91-1.11-10.38-1.24m.01 20.04c-.24 4.16-.09 8.33-.13 12.49 3.78.08 8.03.81 11.33-1.53 3.17-2.02 3.11-7.41-.22-9.25-3.32-1.93-7.33-1.13-10.98-1.71ZM270.37 38.44c8.43-5.81 19.42-5.74 29.09-3.82-.51 3.61-1.03 7.22-1.41 10.85-4.73-1.31-9.81-1.88-14.65-.86-5.42 1.44-8.81 6.94-9.04 12.34-.4 5.43.36 11.97 5.18 15.35 5.56 3.69 12.68 2.5 18.72.78.41 3.48.91 6.95 1.47 10.41-9.12 2.61-19.44 3.19-28.17-1.02C264 78.78 260 70.18 260.17 62.01c-.49-8.81 2.69-18.41 10.2-23.57ZM29.09 50.01c.93-3.94 2.61-7.65 4.87-11.01 7.04 4.66 14.22 9.11 21.37 13.6-.03 2.46-.03 4.91-.03 7.37-8.71-3.39-17.45-6.69-26.21-9.96ZM1.55 41.97c8.18 3.07 16.43 5.94 24.65 8.89-.1 5.96 1.65 11.97 5.42 16.64-1.6-5.14-3.6-10.3-2.88-15.82 8.82 3.12 17.58 6.44 26.5 9.3.06 2.55.06 5.1.08 7.65-17.27 0-34.55-.09-51.82 0C.45 60.14-.26 50.81 1.55 41.97ZM3.94 70.38c4.71.01 9.41-.04 14.12-.02 1.93-.24 2.82 1.84 4.09 2.89 7.53 0 15.06.07 22.59-.06-1.56 1.8-3.21 3.51-4.9 5.18-9.25-.04-18.5.01-27.75-.02-1.37-2.65-3.68-4.74-6.71-5.18-.49-.93-.97-1.86-1.44-2.79Z"/></g></svg>