<svg width="400" height="128" viewBox="0 0 300 96" xmlns="http://www.w3.org/2000/svg"><path fill="#ec616f" d="M269.47 0h1.46c.35.84.66 1.7.91 2.58-5.28 1.97-10.7 3.54-15.83 5.91-1.16-.94-2.29-1.91-3.38-2.92 4.94-1.38 10.06-2.39 14.6-4.87.74-.22 1.49-.45 2.24-.7Z"/><path fill="#b71127" d="M238.17 2.46c.19-.47.58-1.42.77-1.89.62.03 1.85.1 2.47.14 3.35 2.43 7.41 3.48 11.16 5.14-.83.83-1.65 1.66-2.46 2.49-4-1.71-7.74-3.98-11.89-5.32l-.05-.56Z"/><path fill="#e8022d" d="M241.41.71c8.6.06 17.22-.49 25.82-.01-4.54 2.48-9.66 3.49-14.6 4.87 1.09 1.01 2.22 1.98 3.38 2.92.26 9.5.15 19 .25 28.51-.06 4.54 1.48 9.17-.02 13.63-2.47-14.03-3.83-28.23-6.13-42.29.81-.83 1.63-1.66 2.46-2.49-3.75-1.66-7.81-2.71-11.16-5.14Z"/><path fill="#671d11" d="M238.22 3.02c4.15 1.34 7.89 3.61 11.89 5.32 2.3 14.06 3.66 28.26 6.13 42.29-.09.46-.29 1.39-.39 1.85-1.84-3.42-2.79-7.2-4.09-10.83.61-1.93.9-3.97.52-5.98-1.23-8.76-2.55-17.51-3.79-26.28-2.74-1.8-5.79-3.09-9.1-3.27-.4-1.03-.79-2.07-1.17-3.1Z"/><path fill="#b51126" d="M256.01 8.49c5.13-2.37 10.55-3.94 15.83-5.91l.12.35c-4.03 15.58-9.24 30.87-13.56 46.38-.33 1.54-1.2 2.87-2.07 4.15l-.48-.98c.1-.46.3-1.39.39-1.85 1.5-4.46-.04-9.09.02-13.63-.1-9.51.01-19.01-.25-28.51Z"/><path fill="#791a15" d="M239.39 6.12c3.31.18 6.36 1.47 9.1 3.27 1.24 8.77 2.56 17.52 3.79 26.28.38 2.01.09 4.05-.52 5.98-4.19-11.82-8.22-23.7-12.37-35.53Z"/><path fill="#6c9318" d="M272.83 20.86c1.26-.61 2.56-1.18 3.99-.97l.12.53c.31 4.15 4.09 6.77 5.25 10.55-.91.86-1.99 1.43-3.26 1.71-2.06-3.63-3.47-7.6-5.7-11.14l-.4-.68Z"/><path fill="#0bbdf4" d="M234.27 21.94c1.03-2.38 3.5-.05 4.77.86l-.38.37c-3.52 3.14-5.8 7.33-8.79 10.92-1.11-.78-2.26-1.5-3.39-2.24 2.68-3.24 5.68-6.25 7.79-9.91Z"/><path fill="#80b63d" d="M276.94 20.42c7.66 3.46 15.33 6.9 22.89 10.59-5.55.14-11.27-.28-16.71.24-.37 1.36.12 2.71.39 4.04-3.61 8.12-6.58 16.55-10.87 24.35-.39-2.13-.44-4.33.51-6.34 2.67-6.6 4.35-13.56 7.35-20.03-.33-.08-.98-.23-1.3-.31l-.27-.28c1.27-.28 2.35-.85 3.26-1.71-1.16-3.78-4.94-6.4-5.25-10.55Z"/><path fill="#0096b9" d="M216.32 30.7c5.92-3.02 11.72-6.44 17.95-8.76-2.11 3.66-5.11 6.67-7.79 9.91 1.13.74 2.28 1.46 3.39 2.24 1.57 1.88 2.8 4 3.94 6.16a969.131 969.131 0 0 0 18.55 33.36l-.97.82c-8.05-13.35-16.94-26.2-25.43-39.29l.16-3.19c-3.31-.02-6.62-.3-9.8-1.25Z"/><path fill="#267933" d="M273.23 21.54c2.23 3.54 3.64 7.51 5.7 11.14l.27.28c-3.47 9.33-6.39 18.87-9.82 28.22-.14-.69-.41-2.09-.55-2.78-3.66 6.13-4.13 13.66-8.17 19.63.68-4.52 1.9-8.94 2.78-13.42.01-.06.04-.19.06-.25 3.34-14.25 6.07-28.66 9.73-42.82Z"/><path fill="#007290" d="M229.87 34.09c2.99-3.59 5.27-7.78 8.79-10.92 5.69 17.02 10.24 34.42 15.72 51.51.73 1.23.22 2.52-.72 3.47-.82-.82-2.1-1.44-2.38-2.62l.11-1.1.97-.82c-6.4-11-12.59-22.12-18.55-33.36-1.14-2.16-2.37-4.28-3.94-6.16Z"/><path fill="#007692" d="M214.89 31.05c.36-.09 1.07-.26 1.43-.35 3.18.95 6.49 1.23 9.8 1.25l-.16 3.19c-3.45-.49-6.89-1.15-10.37-1.35l-.62-.05-.08-2.69Z"/><g fill="#b8d258"><path d="M283.12 31.25c5.44-.52 11.16-.1 16.71-.24-.02.72-.05 2.16-.07 2.88-5.41.54-10.82 1.11-16.25 1.4-.27-1.33-.76-2.68-.39-4.04ZM279.2 32.96c.32.08.97.23 1.3.31-3 6.47-4.68 13.43-7.35 20.03-.95 2.01-.9 4.21-.51 6.34-3.89 8.9-7.49 17.93-10.97 27-.51 1.13-.79 2.62-2.18 2.97 3.36-9.45 6.62-18.94 9.89-28.43 3.43-9.35 6.35-18.89 9.82-28.22Z"/></g><path fill="#005675" d="M215.59 33.79c3.48.2 6.92.86 10.37 1.35 8.49 13.09 17.38 25.94 25.43 39.29l-.11 1.1c-5.28-5.04-9.51-11.09-14.49-16.43-6.92-8.57-14.5-16.58-21.2-25.31Z"/><path fill="#69931c" d="M283.51 35.29c5.43-.29 10.84-.86 16.25-1.4-13.26 20.28-26.53 40.59-40.07 60.68-.57.16-1.71.5-2.28.66.66-1.89 1.35-3.76 2.08-5.62 1.39-.35 1.67-1.84 2.18-2.97 3.48-9.07 7.08-18.1 10.97-27 4.29-7.8 7.26-16.23 10.87-24.35Z"/><path d="M0 49.52c1.65-.35 3.34-.51 5.02-.43 7.63.36 15.66-1.14 22.89 1.99 8.85 4.42 7.7 19.93-1.68 23.08-4.38 1.33-9.02 1.59-13.58 1.62.12 5.37.06 10.75.25 16.13 1.6.81 3.37 1.14 5.14 1.3 0 .46-.02 1.36-.02 1.81-6-.42-12.01-.23-18.02-.14v-1.52c1.75-.28 3.49-.68 5.1-1.44.36-9.97.09-19.94.18-29.91-.04-3.22.19-6.48-.39-9.68-1.23-1.38-3.24-1.36-4.89-1.89v-.92m12.68 1.47c.12 7.68.07 15.36.02 23.04 2.98-.17 6.13-.05 8.86-1.46 2.74-1.38 3.9-4.56 4.32-7.42.46-4.12.25-8.99-3.08-11.95-2.7-2.61-6.69-2.22-10.12-2.21ZM187.22 53.15l2.83-.2c-.05 3.35-.06 6.7-.08 10.05 2.49.01 4.97-.02 7.46-.06-.08.5-.22 1.5-.3 2-2.39.14-4.79.07-7.19.06.15 8.01-.02 16.02.08 24.04-.06 1.67 1.45 2.79 2.23 4.12 2.19.02 4.12-.94 5.82-2.24 1.51 1.71-.55 2.71-1.76 3.34-3.32 1.58-7.44 1.86-10.81.27-2.74-1.39-2.82-4.77-2.98-7.44-.12-7.36-.12-14.72.03-22.08-.89 0-2.66-.02-3.55-.02v-1.81c5.32-.02 7.44-5.64 8.22-10.03ZM34.02 73.96c1.32-11.5 18.15-16.44 25.28-7.3 2.56 2.94 2.66 7.02 3.02 10.69-6.89.11-13.78.35-20.67.04 0 4.82.56 10.23 4.16 13.82 4.04 3.6 10.9 1.8 13.4-2.79.52-.91 2.06-3.57 2.88-1.34-1.08 3.21-3.86 5.65-6.7 7.33-5.81 1.81-13.04 1.28-17.59-3.17-4.27-4.59-4.85-11.37-3.78-17.28m12.13-9.83c-3.62 2.72-4.24 7.66-4.41 11.87 4.23-.25 8.47-.27 12.7.01.08-3.74.02-8.02-2.6-10.98-1.33-1.73-3.84-1.53-5.69-.9ZM63.75 63.13c3.71-.62 7.47-.8 11.21-1.2.01 2.18 0 4.37.06 6.55 2.32-2.88 4.87-6.61 9.03-6.55 3.11-.37 6.09 2.95 4.97 5.96-.95 2.94-6.48 3.57-7.1.09-.31-1-1.36-2.71-2.54-1.63-4.23 2.65-4.25 8.24-4.23 12.66.25 4.09-.48 8.3.46 12.31.42 2.15 2.9 1.57 4.49 1.78-.01.48-.01 1.45-.01 1.94-5.61-.5-11.23-.16-16.83-.17-.08-.44-.23-1.31-.31-1.75 1.28-.06 2.57-.11 3.86-.15a7.86 7.86 0 0 0 1.21-4.93c-.12-6.99.15-14-.12-20.98-.36-2.38-3.14-2.62-5.02-3.03l.87-.9ZM90.53 63.03c4.17-.24 8.31-.86 12.48-1.03-.03 1.96-.17 3.92-.38 5.88 2.84-3.35 6.69-6.49 11.39-5.93 3.85-.24 7.18 2.78 7.94 6.45 2.16-3.95 6.44-6.97 11.1-6.44 4.36-.13 8.69 3.45 8.89 7.91.3 6.4-.01 12.8.13 19.2-.09 1.35.5 2.58 1.02 3.79 1.34.09 2.67.18 4.01.29-.1.43-.3 1.3-.4 1.74-5.5-.17-11.01-.06-16.51-.06-.06-.42-.19-1.25-.26-1.66 1.34-.12 2.68-.23 4.02-.34 1.65-4.76.56-9.91.88-14.85-.14-4.42.73-9.75-2.93-13.05-1.51.04-3.01.06-4.52.08-2.62 2.29-5 5.22-4.94 8.89.07 5.74-.47 11.56.31 17.25.17 2.25 2.65 1.79 4.24 1.95.01.49.02 1.45.03 1.94-5.4-.43-10.8-.29-16.2-.07-1.27-2.32 1.55-2.01 2.93-1.98 1.73-1.53 1.18-3.93 1.26-5.96-.06-5.01.01-10.02 0-15.02.02-2.38-.57-5.08-2.47-6.66-2.98-1.41-6.62.29-8.02 3.15-2.11 3.09-1.47 6.94-1.53 10.46.1 4.22-.18 8.45.08 12.67.77 1.7 2.68 1.36 4.19 1.46v1.96c-5.52-.43-11.06-.39-16.57.01-.84-3.34 3.29-.99 4.21-3.19 1-3.51.42-7.22.56-10.82-.2-5.34.54-10.75-.62-16.01-1.51-.49-3.96.11-4.32-2.01ZM151.83 65.81c4.49-4.01 11.08-4.5 16.76-3.39 3.21.65 5.82 3.15 6.28 6.44.44 7.58-.17 15.2.22 22.78.85 2.1 4.44.54 4.17 3.36-3.81-.34-11 1.36-11.4-4.22-3.73 4.36-10.13 5.89-15.44 3.77-5.54-2.83-5.99-11.56-1-15.11 4.71-3.37 10.84-2.95 16.22-3.85.63-2.79.06-5.77-.3-8.58-.23-4.21-6.98-4.58-8.58-1.17-1.06 1.56-.71 3.54-.76 5.32-1.58 1.86-4.28 2.53-6.42 1.18-2.85-1.13-1.56-4.97.25-6.53m8.13 12.94c-5.5 2.14-5.58 11.16-.7 14 2.78 1.04 5.64-1.17 7.15-3.36 1.75-3.84 1.4-8.22 1.39-12.33-2.63.44-5.38.61-7.84 1.69ZM201.99 69.97c1.18-6.15 8.51-8.24 13.98-8.03 4.26-.18 10.03 1.23 10.94 6.11.71 6.96-.04 13.99.15 20.97-.14 1.43.4 2.74 1.08 3.96 1.39.01 4.12-.33 3.1 1.98-3.94-.15-10.53 1.23-11.39-4.16-3.56 4.56-10.02 5.8-15.28 3.74-5.29-2.81-5.95-11.26-1.13-14.87 4.68-3.46 10.89-3.56 16.47-3.77.02-3.32.54-6.81-.68-9.99-.94-2.8-4.6-2.55-6.85-1.76-2.48 1.69-2.04 4.98-2.59 7.55-2.15 2.39-7.18 1.46-7.8-1.73m7.64 10.67c-2.18 2.33-1.98 5.88-1.09 8.73.92 2.7 4.15 4.83 6.83 3.02 5.69-2.7 4.51-10.06 4.66-15.23-3.57.56-7.85.49-10.4 3.48Z"/><path fill="#156b31" opacity=".98" d="M260.66 78.03c4.04-5.97 4.51-13.5 8.17-19.63.14.69.41 2.09.55 2.78-3.27 9.49-6.53 18.98-9.89 28.43-.73 1.86-1.42 3.73-2.08 5.62-.28-5.78 2.03-11.57 3.25-17.2Z"/><path fill="#486a24" opacity=".52" d="M263.44 64.61Z"/></svg>