<svg width="23" height="18" viewBox="0 0 23 18" fill="none" xmlns="http://www.w3.org/2000/svg">
<path d="M20.4444 1.91667C20.7958 1.91667 21.0833 2.20417 21.0833 2.55556V3.83333H1.91667V2.55556C1.91667 2.20417 2.20417 1.91667 2.55556 1.91667H20.4444ZM21.0833 7.66667V15.3333C21.0833 15.6847 20.7958 15.9722 20.4444 15.9722H2.55556C2.20417 15.9722 1.91667 15.6847 1.91667 15.3333V7.66667H21.0833ZM2.55556 0C1.14601 0 0 1.14601 0 2.55556V15.3333C0 16.7429 1.14601 17.8889 2.55556 17.8889H20.4444C21.854 17.8889 23 16.7429 23 15.3333V2.55556C23 1.14601 21.854 0 20.4444 0H2.55556ZM4.79167 12.1389C4.26059 12.1389 3.83333 12.5661 3.83333 13.0972C3.83333 13.6283 4.26059 14.0556 4.79167 14.0556H6.70833C7.23941 14.0556 7.66667 13.6283 7.66667 13.0972C7.66667 12.5661 7.23941 12.1389 6.70833 12.1389H4.79167ZM9.90278 12.1389C9.3717 12.1389 8.94444 12.5661 8.94444 13.0972C8.94444 13.6283 9.3717 14.0556 9.90278 14.0556H14.375C14.9061 14.0556 15.3333 13.6283 15.3333 13.0972C15.3333 12.5661 14.9061 12.1389 14.375 12.1389H9.90278Z" fill="#7B7B7B"/>
</svg>
