<svg width="29" height="33" viewBox="0 0 29 33" fill="none" xmlns="http://www.w3.org/2000/svg">
<path d="M12.1728 0.577661C14.3019 -0.90925 17.548 0.65445 17.7714 3.2164C18.2531 6.00174 14.9093 8.34729 12.466 6.93019C9.98778 5.79232 9.81326 1.93892 12.1728 0.577661ZM13.6387 2.21117C11.6702 2.71379 12.7941 5.89005 14.5812 5.14311C16.6335 4.70332 15.4747 1.39441 13.6387 2.21117ZM3.85166 2.90227C6.4555 1.66667 9.58988 4.40314 8.79407 7.13962C8.28447 9.77836 4.62653 10.9023 2.73473 8.96161C0.787085 7.29319 1.4363 3.76789 3.85166 2.90227ZM4.5637 4.89878C3.67016 5.26178 3.45375 6.38569 3.9075 7.17452C4.5637 8.2007 6.57417 8.07504 6.6719 6.72077C7.35602 5.57592 5.59686 4.2007 4.5637 4.89878ZM21.9389 2.79058C24.5777 1.82722 27.4817 4.66841 26.5462 7.3281C25.8831 9.95288 22.1274 10.8813 20.3613 8.78708C18.4974 6.9651 19.4468 3.46771 21.9389 2.79058ZM22.5742 4.75916C20.5916 5.34555 21.6318 8.47295 23.5445 7.77487C25.4572 7.16754 24.452 4.2007 22.5742 4.75916ZM7.85166 11.5236C8.37522 11.5305 9.42234 11.5305 9.9459 11.5305C9.9459 13.9668 9.95288 16.4101 9.95986 18.8464L12.5707 18.8674C12.5777 22.8743 12.5637 26.8883 12.5777 30.9023C13.6178 30.8883 14.6649 30.8883 15.7051 30.8883C15.7051 26.8813 15.6981 22.8743 15.7051 18.8674C16.5777 18.8534 17.4433 18.8464 18.3159 18.8394C18.3159 16.4031 18.3298 13.9668 18.3229 11.5305H20.4171C20.4241 14.6649 20.4241 17.8063 20.4171 20.9407L17.8063 20.9616C17.7993 24.9756 17.8063 28.9825 17.7993 32.9895C15.363 33.0035 12.9197 33.0035 10.4764 32.9895C10.4625 28.9825 10.4764 24.9686 10.4695 20.9546C9.59686 20.9546 8.72426 20.9476 7.85166 20.9476C7.84468 17.8063 7.84468 14.6649 7.85166 11.5236ZM0.0052356 13.0942C0.528796 13.0942 1.56894 13.0873 2.0925 13.0873C2.10646 15.8796 2.09948 18.6649 2.10646 21.4572C2.97906 21.4642 3.84468 21.4782 4.71728 21.4852V30.8883C6.11344 30.8883 7.5096 30.8953 8.90576 30.9093V32.9895C6.81152 32.9965 4.71728 32.9965 2.62304 32.9895C2.61606 29.8551 2.61606 26.7208 2.61606 23.5864C1.75044 23.5724 0.877836 23.5654 0.0052356 23.5585C-0.0017452 20.0681 -0.0017452 16.5846 0.0052356 13.0942ZM26.1832 13.0942H28.2705C28.2775 16.5777 28.2775 20.0681 28.2705 23.5585C27.3979 23.5654 26.5323 23.5724 25.6597 23.5864C25.6597 26.7208 25.6667 29.8551 25.6527 32.9895C23.5585 33.0035 21.4642 32.9965 19.37 32.9895C19.37 32.466 19.37 31.4258 19.377 30.9023C20.7661 30.9023 22.1623 30.8953 23.5585 30.8883C23.5654 27.7539 23.5585 24.6195 23.5654 21.4852L26.1693 21.4572C26.1763 18.6719 26.1763 15.8796 26.1832 13.0942Z" fill="black"/>
</svg>
