<svg width="20" height="35" viewBox="0 0 20 35" fill="none" xmlns="http://www.w3.org/2000/svg">
<path d="M15.4333 2H5.1C3.38792 2 2 3.38792 2 5.1V29.9C2 31.6121 3.38792 33 5.1 33H15.4333C17.1454 33 18.5333 31.6121 18.5333 29.9V5.1C18.5333 3.38792 17.1454 2 15.4333 2Z" stroke="black" stroke-width="2.06667" stroke-linecap="round" stroke-linejoin="round"/>
<path d="M5.10059 2H6.65059C6.78761 2 6.91903 2.05443 7.01592 2.15133C7.11282 2.24822 7.16725 2.37964 7.16725 2.51667C7.16725 2.79072 7.27612 3.05356 7.46991 3.24734C7.6637 3.44113 7.92653 3.55 8.20059 3.55H12.3339C12.608 3.55 12.8708 3.44113 13.0646 3.24734C13.2584 3.05356 13.3673 2.79072 13.3673 2.51667C13.3673 2.37964 13.4217 2.24822 13.5186 2.15133C13.6155 2.05443 13.7469 2 13.8839 2H15.4339" stroke="black" stroke-width="2.06667" stroke-linecap="round" stroke-linejoin="round"/>
</svg>
