<svg width="23" height="16" viewBox="0 0 23 16" fill="none" xmlns="http://www.w3.org/2000/svg">
<path d="M2.55556 0C1.14601 0 0 1.14601 0 2.55556V5.11111C0 5.4625 0.295486 5.73802 0.62691 5.85382C1.3776 6.11337 1.91667 6.82812 1.91667 7.66667C1.91667 8.50521 1.3776 9.21996 0.62691 9.47951C0.295486 9.59531 0 9.87083 0 10.2222V12.7778C0 14.1873 1.14601 15.3333 2.55556 15.3333H20.4444C21.854 15.3333 23 14.1873 23 12.7778V10.2222C23 9.87083 22.7045 9.59531 22.3731 9.47951C21.6224 9.21996 21.0833 8.50521 21.0833 7.66667C21.0833 6.82812 21.6224 6.11337 22.3731 5.85382C22.7045 5.73802 23 5.4625 23 5.11111V2.55556C23 1.14601 21.854 0 20.4444 0H2.55556ZM5.11111 4.47222V10.8611C5.11111 11.2125 5.39861 11.5 5.75 11.5H17.25C17.6014 11.5 17.8889 11.2125 17.8889 10.8611V4.47222C17.8889 4.12083 17.6014 3.83333 17.25 3.83333H5.75C5.39861 3.83333 5.11111 4.12083 5.11111 4.47222ZM3.83333 3.83333C3.83333 3.12656 4.40434 2.55556 5.11111 2.55556H17.8889C18.5957 2.55556 19.1667 3.12656 19.1667 3.83333V11.5C19.1667 12.2068 18.5957 12.7778 17.8889 12.7778H5.11111C4.40434 12.7778 3.83333 12.2068 3.83333 11.5V3.83333Z" fill="#ED6337"/>
</svg>
