<?xml version="1.0" encoding="UTF-8"?>
<!DOCTYPE svg PUBLIC "-//W3C//DTD SVG 1.1//EN" "http://www.w3.org/Graphics/SVG/1.1/DTD/svg11.dtd">
<svg xmlns="http://www.w3.org/2000/svg" version="1.1" width="66px" height="66px" style="shape-rendering:geometricPrecision; text-rendering:geometricPrecision; image-rendering:optimizeQuality; fill-rule:evenodd; clip-rule:evenodd" xmlns:xlink="http://www.w3.org/1999/xlink">
<g><path style="opacity:0.948" fill="#4a4a4a" d="M 24.5,-0.5 C 29.8333,-0.5 35.1667,-0.5 40.5,-0.5C 53.1667,3.5 61.5,11.8333 65.5,24.5C 65.5,29.8333 65.5,35.1667 65.5,40.5C 61.5,53.1667 53.1667,61.5 40.5,65.5C 35.1667,65.5 29.8333,65.5 24.5,65.5C 11.8247,61.4913 3.49132,53.158 -0.5,40.5C -0.5,35.1667 -0.5,29.8333 -0.5,24.5C 3.50868,11.8247 11.842,3.49132 24.5,-0.5 Z M 26.5,12.5 C 44.9488,11.4485 53.4488,20.1152 52,38.5C 45.3151,52.3391 34.9818,56.0057 21,49.5C 18.3668,51.2962 15.8668,53.2962 13.5,55.5C 12.3345,45.8505 12.1679,36.1839 13,26.5C 15.6873,19.981 20.1873,15.3143 26.5,12.5 Z"/></g>
</svg>
