<?xml version="1.0" encoding="UTF-8" ?>
<!DOCTYPE svg PUBLIC "-//W3C//DTD SVG 1.1//EN" "http://www.w3.org/Graphics/SVG/1.1/DTD/svg11.dtd">
<svg width="300pt" height="300pt" viewBox="0 0 300 300" version="1.1" xmlns="http://www.w3.org/2000/svg">
<g id="#fedc56ff">
<path fill="#fedc56" opacity="1.00" d=" M 143.10 0.00 L 156.47 0.00 C 174.50 0.98 192.42 4.81 209.00 12.03 C 241.38 25.80 268.51 51.42 284.16 82.92 C 294.41 103.16 299.59 125.77 300.00 148.42 L 300.00 150.67 C 299.72 173.38 294.62 196.08 284.42 216.42 C 270.10 245.50 246.06 269.67 217.04 284.11 C 196.54 294.51 173.61 299.71 150.67 300.00 L 149.47 300.00 C 129.52 299.74 109.56 295.93 91.22 288.00 C 58.74 274.29 31.52 248.66 15.79 217.12 C 6.31 198.46 1.18 177.76 0.00 156.90 L 0.00 143.41 C 1.08 122.39 6.26 101.54 15.80 82.74 C 31.49 51.29 58.61 25.71 90.97 11.98 C 107.43 4.82 125.21 1.04 143.10 0.00 M 132.98 56.59 C 108.00 60.91 85.21 76.00 71.15 97.05 C 60.41 112.82 54.90 131.91 54.97 150.95 C 55.05 189.20 54.81 227.45 55.07 265.70 C 56.39 264.81 57.58 263.75 58.70 262.63 C 71.01 250.99 83.34 239.36 95.65 227.71 C 111.92 239.30 132.02 245.24 151.95 244.83 C 172.11 244.42 192.09 237.41 207.99 224.99 C 226.57 210.69 239.60 189.28 243.42 166.12 C 246.94 146.50 243.89 125.78 235.05 107.93 C 225.93 89.43 210.60 74.04 192.10 64.91 C 173.98 55.87 152.89 52.86 132.98 56.59 Z" />
<path fill="#fedc56" opacity="1.00" d=" M 146.11 101.18 C 156.42 100.34 166.98 102.73 175.76 108.24 C 188.27 115.86 197.12 129.35 198.75 143.95 C 200.23 155.20 197.62 166.94 191.45 176.47 C 183.57 188.94 169.79 197.57 155.06 198.87 C 144.13 200.06 132.82 197.40 123.60 191.41 C 111.73 183.87 103.35 171.00 101.47 157.04 C 100.44 148.44 101.16 139.47 104.64 131.48 C 111.30 114.67 128.02 102.32 146.11 101.18 Z" />
</g>
</svg>
