<svg width="800" height="800" viewBox="0 0 600 600" xmlns="http://www.w3.org/2000/svg"><path fill="#fddb56" d="M237.24 9.19C253.92 3.84 271.4.13 288.99.57c29.99-1.58 60.16 2.2 89.15 9.87 53.44 14.15 102.56 43.77 140.41 84.02 48.52 51.18 78.22 120 81.19 190.54.14 15.34.63 30.75-1.09 46.02-3.87 38.67-15.48 76.52-33.85 110.75-30.53 57.19-80.09 103.97-139.03 130.99-35.5 16.5-74.29 25.6-113.37 27.24h-22.71c-36.78-1.19-73.32-9.26-107.17-23.71-33.52-14.31-64.35-34.86-90.58-60.16-33.73-32.38-59.69-72.79-75.05-116.95-13.93-40.04-19.3-83.04-15.58-125.27 4.87-57.34 26.87-113.05 62.38-158.31 27.05-34.72 61.88-63.21 101.02-83.26-2.77 3.02-6.29 5.18-9.27 7.97-44.79 38.94-76.07 92.56-89.76 150.18-11.06 46.28-11.26 95.23.21 141.46 7.55 31.2 21.14 60.72 38.6 87.59 22.44 34.13 54.3 61.91 91.02 79.76 43.26 21.28 93.05 28.63 140.68 21.41 38.32-5.78 75.25-21.03 106.23-44.36 27.94-21.09 51.12-48.37 67.78-79.13 39.54-72.28 39.81-164.07 1.47-236.88-21.77-42.02-55.65-77.82-96.9-101.11-23.69-13.5-49.39-23.39-75.88-29.72-30.64-6.43-63.38-5.57-92.87 5.48-15.58 6.16-30.94 15.49-39.84 30.11-4.91 8.21-6.95 19-2.02 27.68 6.1 11.18 19.12 16.12 30.98 18.44 28.13 4.81 56.45-3.43 82.38-13.85 12.72-5.56 26.53-8.83 40.45-8.72 17.29.01 34.73 5.26 48.47 15.92 22.68 17.48 38.35 44.58 40.15 73.36 3.66 40.48-6.56 83.26-32.77 114.94-16.84 20.79-39.21 36.72-63.74 47.18-26.55 11.56-55.27 17.04-83.92 20.18.16 39.75 0 79.5.08 119.26-18.92-.05-37.84 0-56.76-.03.44-76.14.02-152.28.14-228.43-.24-16.43 4.54-33.03 14.02-46.51 9.88-13.06 26.43-19.53 42.4-20.48.41 37.95.08 75.91.1 113.86 29.31-2.04 59.2-9.19 83.64-26.14 11.74-8.38 22.65-18.48 29.79-31.15 11.42-20.77 14.19-46.33 6.67-68.88-3.66-10.31-13.19-17.35-23.23-20.8-18.56-6.68-38.84-4.78-57.86-1.32-21.68 3.68-43.16 8.98-65.16 10.39-14.05.72-28.34-.64-41.71-5.17-14.23-4.8-27.57-13.61-35.56-26.56-7.92-12.39-9.65-28.03-6.24-42.18 4.42-18.89 16.37-35.15 30.51-48.03 14.53-12.93 31.69-22.98 50.25-28.87Z"/></svg>