<svg xmlns="http://www.w3.org/2000/svg" width="200" height="200" viewBox="0 0 150 150"><path d="M70.24 0h8.09c18.06.84 35.74 8.35 48.7 21 14.25 13.56 22.56 32.9 22.97 52.54v2.79c-.38 18.25-7.52 36.26-20.02 49.6-13.81 15.1-34.01 23.93-54.46 24.07h-3.35c-18.91-.87-37.53-8.81-50.7-22.5C8.7 114.71 1.15 97.15 0 79.16v-8.11c1.06-18.54 9.06-36.64 22.43-49.58C35.1 8.82 52.45 1.34 70.24 0m-28.3 40.94c-9.19 8.77-14.49 21.4-14.45 34.1.03 19.28-.11 38.56.09 57.84 6.89-6.2 13.45-12.75 20.26-19.03 12.22 8.72 28.71 10.97 42.83 5.89 14.66-5.02 26.37-17.72 30.2-32.74 3.48-12.96 1.05-27.35-6.49-38.45-7.28-10.95-19.3-18.6-32.32-20.51-14.42-2.28-29.73 2.66-40.12 12.9Z"/><path d="M67.44 51.69c12.91-4.62 28.33 3.9 31.37 17.24 3.74 13.03-5.48 27.75-18.79 30.13-12.41 2.91-25.92-5.61-28.79-17.98-3.38-12.11 4.22-25.76 16.21-29.39Z"/></svg>